<svg width="27" height="55" viewBox="0 0 27 55" fill="none" xmlns="http://www.w3.org/2000/svg">
<path d="M19.5129 2C21.0229 2.34 22.3429 3.01001 23.3629 4.20001C25.4329 6.62001 25.2729 9.93001 23.0029 12.17C20.1129 15.02 15.2029 14.58 12.8729 11.26C11.0629 8.69001 11.7129 5.18 14.3229 3.25C15.1929 2.61 16.1629 2.24 17.1929 2H19.5029H19.5129Z" stroke="url(#paint0_linear_632_1433)" stroke-width="3" stroke-miterlimit="10"/>
<path d="M14.0032 53.4898C11.9032 53.5098 10.0732 53.2498 8.44321 52.2098C6.48321 50.9498 5.44322 49.1697 5.40322 46.8197C5.36322 44.2897 6.01322 41.8897 6.68322 39.4797C7.57322 36.2897 8.58322 33.1298 9.28322 29.8898C9.52322 28.7798 9.70321 27.6597 9.55321 26.5097C9.35321 24.9197 8.65321 24.2698 7.02321 24.1398C5.71321 24.0298 4.45322 24.1897 3.22322 24.6297C2.94322 24.7297 2.65322 24.8197 2.36322 24.9097C2.07322 25.0097 1.94321 24.9298 2.02321 24.6098C2.21321 23.8498 2.40321 23.0797 2.59321 22.3197C2.64321 22.1097 2.76322 21.9698 2.96322 21.8898C5.40322 20.9598 7.81321 19.9297 10.4132 19.5297C12.3732 19.2297 14.3232 19.3097 16.2032 19.9797C19.1832 21.0497 20.7532 23.8697 20.5132 27.0397C20.2432 30.6597 18.9732 34.0197 18.0832 37.4797C17.5132 39.6997 16.7632 41.8698 16.4532 44.1498C16.3532 44.8798 16.2432 45.5997 16.3632 46.3497C16.6132 47.9397 17.2432 48.5297 18.8532 48.7297C20.4832 48.9297 22.0132 48.5898 23.5232 48.0598C23.6732 48.0098 23.8432 47.8497 23.9832 47.9797C24.1232 48.1097 24.0032 48.2898 23.9632 48.4498C23.7932 49.1498 23.6132 49.8498 23.4532 50.5498C23.4032 50.7598 23.3132 50.9098 23.1032 50.9898C20.8132 51.8298 18.6032 52.8998 16.1732 53.3298C15.3832 53.4698 14.5832 53.5297 13.9832 53.4997L14.0032 53.4898Z" stroke="url(#paint1_radial_632_1433)" stroke-width="3" stroke-miterlimit="10"/>
<defs>
<linearGradient id="paint0_linear_632_1433" x1="10.3529" y1="8.03001" x2="26.3229" y2="8.03001" gradientUnits="userSpaceOnUse">
<stop stop-color="#009994"/>
<stop offset="1" stop-color="#00DDA8"/>
</linearGradient>
<radialGradient id="paint1_radial_632_1433" cx="0" cy="0" r="1" gradientUnits="userSpaceOnUse" gradientTransform="translate(13.0482 36.4197) scale(12.525)">
<stop stop-color="#009994"/>
<stop offset="1" stop-color="#00DDA8"/>
</radialGradient>
</defs>
</svg>
