<?xml version="1.0" encoding="UTF-8"?>
<svg id="Layer_2" data-name="Layer 2" xmlns="http://www.w3.org/2000/svg" xmlns:xlink="http://www.w3.org/1999/xlink" viewBox="0 0 122.23 88.53">
  <defs>
    <style>
      .cls-1 {
        fill: url(#linear-gradient);
      }
    </style>
    <linearGradient id="linear-gradient" x1="0" y1="44.27" x2="122.23" y2="44.27" gradientUnits="userSpaceOnUse">
      <stop offset="0" stop-color="#000"/>
      <stop offset="1" stop-color="#00dda8"/>
    </linearGradient>
  </defs>
  <g id="Layer_1-2" data-name="Layer 1">
    <path class="cls-1" d="m.22,85.17l6.05-13.06,2.69-12.1-1.37-5.36c-.69-2.69.21-5.54,2.32-7.34l6.67-5.72c.31-.28.62-.56.92-.84l3.87-3.72c1.21-1.16,2.72-1.95,4.36-2.29l2.05-.42c2.93-.6,5.57-2.14,7.54-4.39l8.42-9.64c.83-.96,1.82-1.77,2.91-2.41l16.92-9.87c2.9-1.69,6.03-2.95,9.3-3.73L89.38.33c3.84-.92,7.88.12,10.8,2.77l4.58,4.15c1.16,1.05,2.06,2.36,2.62,3.82l6.8,17.65,3.64,10.3c1.4,3.95,1.83,8.18,1.26,12.34l-1.88,13.73c-.18,1.34.08,2.7.74,3.88l3.27,5.78c1.2,2.12,1.36,4.73.42,6.98l-1.72,4.76c-.4,1.11-1.46,1.86-2.64,1.86l-19.7.09c-1.69,0-3.07-1.35-3.09-3.04l-.34-22.93-.2-.44c-1.09-.93-3.18-2.92-4.79-5.78-1.92-3.41-2.62-7-2.09-10.69l-1.71-5.8-2.31,24.57c-.1,1.08-.02,2.17.24,3.22l2.75,11.01c.24.94.35,1.91.35,2.88l-.02,4.29c0,1.45-1.18,2.63-2.64,2.63l-81.34.19c-1.73,0-2.88-1.79-2.15-3.36ZM92.16,3.28c-.67,0-1.35.08-2.02.24l-16.51,3.95c-2.95.71-5.78,1.84-8.41,3.37l-16.92,9.87c-.79.46-1.5,1.05-2.1,1.73l-8.42,9.64c-2.44,2.79-5.72,4.7-9.35,5.45l-2.05.42c-1.03.21-1.99.71-2.75,1.44l-3.87,3.72c-.35.32-.71.64-1.06.96l-6.67,5.72c-1.16.99-1.65,2.56-1.27,4.04l1.57,6.12-2.94,13.22-5.6,12.09,79.28-.18.02-3.65c0-.7-.08-1.4-.25-2.09l-2.75-11c-.35-1.41-.46-2.87-.33-4.32l2.91-31.01c.09-.98.84-1.73,1.82-1.83.98-.1,1.86.5,2.14,1.44l1.3,4.39,2.45,8.34-.06.37c-1.18,7.08,3.59,12.01,5.7,13.81.86.73,1.35,1.79,1.36,2.91l.34,22.73,19.19-.08,1.66-4.57c.56-1.33.47-2.88-.24-4.14l-3.27-5.78c-1.02-1.8-1.42-3.89-1.14-5.94l1.88-13.73c.5-3.64.12-7.34-1.1-10.8l-3.63-10.28-6.78-17.58c-.38-.98-.98-1.86-1.76-2.57l-4.58-4.15c-1.61-1.46-3.69-2.25-5.82-2.25Z"/>
  </g>
</svg>