<?xml version="1.0" encoding="UTF-8"?>
<svg id="Layer_2" data-name="Layer 2" xmlns="http://www.w3.org/2000/svg" xmlns:xlink="http://www.w3.org/1999/xlink" viewBox="0 0 110.49 90.4">
  <defs>
    <style>
      .cls-1 {
        fill: url(#linear-gradient);
      }
    </style>
    <linearGradient id="linear-gradient" x1="0" y1="45.2" x2="110.49" y2="45.2" gradientUnits="userSpaceOnUse">
      <stop offset="0" stop-color="#000"/>
      <stop offset="1" stop-color="#00dda8"/>
    </linearGradient>
  </defs>
  <g id="Layer_1-2" data-name="Layer 1">
    <path class="cls-1" d="m109.97,19.43l-2.57-.13-1.49-.06h-.06l-3.41-.06-33.96,2.18-.06,1.36c-.19,2.86-1.17,5.36-2.4,7.4l-6.72-.16-11.62-1.4c-.71-.1-1.27-.65-1.33-1.4l-.65-6.17c-.16-1.82-1.4-3.34-3.12-3.93l-5.49-1.88c-.58-.19-1.01-.78-1.04-1.43l-.19-6.92-.13-.29c-1.23-2.6-4.16-4.94-7.47-5.97-2.92-.91-5.78-.71-7.99.55l-.81.45.03.94c.16,8.31.49,16.79.78,24.97.49,12.56.94,25.55.91,38.21-1.95.1-3.67.06-4.81.03h-.03c-4.48-.03-8.15,1.43-10.91,4.38C-.65,76.57,0,87.81.03,88.29l.1,1.43,40.75.26h1.56l68.05.42-.52-70.98ZM39.35,86.86l-36.23-.23c.03-3.02.55-10.16,4.58-14.42,2.11-2.27,5.03-3.41,8.6-3.41.36.03,3.99.13,8.28-.19,6.01-.49,10.33-1.62,12.76-3.38.32-.16,1.14-.62,2.24-1.3l-.23,22.92Zm-3.51-24.35l-.1.06-.13.1c-2.27,1.69-6.98,2.5-11.33,2.86,0-12.7-.45-25.65-.94-38.15-.29-7.86-.58-15.94-.75-23.93,1.33-.49,2.99-.49,4.71.06,2.37.75,4.51,2.37,5.45,4.09l.19,6.23c.03,1.92,1.3,3.64,3.12,4.25l5.52,1.88c.55.19.97.71,1.01,1.3l.65,6.2c.23,2.18,1.88,3.86,4.06,4.12l11.75,1.46,4.84.1c-.26.29-.52.58-.75.84-1.4,1.53-3.28,2.76-5.71,3.77-6.33,2.63-8.7,10.03-8.86,10.65-3.08,9.22-12.63,14.06-12.73,14.09Zm6.3-.42c3.31-2.63,7.44-6.85,9.35-12.73l.03-.03c0-.06,2.01-6.59,7.11-8.7,2.86-1.17,5.07-2.66,6.79-4.51,2.37-2.57,5.2-6.59,5.91-11.85l31.17-1.98h1.53c-.58,3.73-2.31,7.6-5.16,11.53-1.53,2.11-3.6,3.86-6.1,5.1-.49.26-1.01.52-1.53.71-.23.1-.45.19-.65.32-1.27.58-2.31,1.4-3.12,2.24-.84.84-1.43,1.69-1.82,2.34-.39.65-.55,1.1-.58,1.14l-.06.1c-.23.71-.49,1.4-.81,2.05-.84,1.98-1.95,3.73-3.15,5.29-.45.65-.94,1.27-1.46,1.82-1.07,1.27-2.14,2.31-3.12,3.12-1.85,1.66-3.25,2.53-3.28,2.57l-.13.06c-3.9,2.89-15.2,1.72-19.19,1.01l-.16-.03-11.56.45Zm.32,24.77l.19-21.72,10.81-.39c.81.13,4.25.65,8.28.81,6.2.23,10.58-.55,13.08-2.37.88-.55,9.74-6.33,13.08-16.4.16-.32,1.53-3.12,4.48-4.29,3.7-1.53,6.82-3.9,8.99-6.88,2.92-4.06,4.77-8.08,5.52-12.01l.45,63.67-64.9-.42Z"/>
  </g>
</svg>