<svg width="123" height="89" viewBox="0 0 123 89" fill="none" xmlns="http://www.w3.org/2000/svg">
<path d="M0.809915 85.5152L6.8599 72.4553L9.54991 60.3553L8.17991 54.9952C7.48991 52.3052 8.38992 49.4552 10.4999 47.6552L17.1699 41.9352C17.4799 41.6552 17.7899 41.3753 18.0899 41.0953L21.9599 37.3752C23.1699 36.2152 24.6799 35.4253 26.3199 35.0853L28.3699 34.6652C31.2999 34.0652 33.9399 32.5252 35.9099 30.2752L44.3299 20.6352C45.1599 19.6752 46.1499 18.8653 47.2399 18.2253L64.1599 8.35528C67.0599 6.66528 70.1899 5.40518 73.4599 4.62518L89.9699 0.675227C93.8099 -0.244773 97.8499 0.795247 100.77 3.44525L105.35 7.59527C106.51 8.64527 107.41 9.95522 107.97 11.4152L114.77 29.0652L118.41 39.3652C119.81 43.3152 120.24 47.5453 119.67 51.7053L117.79 65.4352C117.61 66.7752 117.87 68.1352 118.53 69.3152L121.8 75.0953C123 77.2153 123.16 79.8252 122.22 82.0752L120.5 86.8353C120.1 87.9453 119.04 88.6952 117.86 88.6952L98.1599 88.7852C96.4699 88.7852 95.0899 87.4352 95.0699 85.7452L94.7299 62.8152L94.5299 62.3752C93.4399 61.4452 91.3499 59.4553 89.7399 56.5953C87.8199 53.1853 87.1199 49.5952 87.6499 45.9052L85.9399 40.1053L83.6299 64.6752C83.5299 65.7552 83.6099 66.8452 83.8699 67.8952L86.6199 78.9052C86.8599 79.8452 86.9699 80.8152 86.9699 81.7852L86.9499 86.0752C86.9499 87.5252 85.7699 88.7053 84.3099 88.7053L2.96992 88.8952C1.23992 88.8952 0.0898947 87.1052 0.819895 85.5352L0.809915 85.5152ZM92.7499 3.63519C92.0799 3.63519 91.3999 3.71518 90.7299 3.87518L74.2199 7.82525C71.2699 8.53525 68.4399 9.66525 65.8099 11.1952L48.8899 21.0652C48.0999 21.5252 47.3899 22.1152 46.7899 22.7952L38.3699 32.4352C35.9299 35.2252 32.6499 37.1352 29.0199 37.8852L26.9699 38.3052C25.9399 38.5152 24.9799 39.0152 24.2199 39.7452L20.3499 43.4653C19.9999 43.7853 19.6399 44.1052 19.2899 44.4252L12.6199 50.1452C11.4599 51.1352 10.9699 52.7052 11.3499 54.1852L12.9199 60.3052L9.9799 73.5252L4.37989 85.6152L83.6599 85.4352L83.6799 81.7852C83.6799 81.0852 83.5999 80.3852 83.4299 79.6952L80.6799 68.6952C80.3299 67.2852 80.2199 65.8252 80.3499 64.3752L83.2599 33.3652C83.3499 32.3852 84.0999 31.6352 85.0799 31.5352C86.0599 31.4352 86.9399 32.0353 87.2199 32.9753L88.5199 37.3652L90.9699 45.7053L90.9099 46.0753C89.7299 53.1553 94.4999 58.0852 96.6099 59.8852C97.4699 60.6152 97.9599 61.6752 97.9699 62.7952L98.3099 85.5252L117.5 85.4452L119.16 80.8752C119.72 79.5452 119.63 77.9953 118.92 76.7353L115.65 70.9553C114.63 69.1553 114.23 67.0652 114.51 65.0152L116.39 51.2852C116.89 47.6452 116.51 43.9453 115.29 40.4853L111.66 30.2053L104.88 12.6252C104.5 11.6452 103.9 10.7652 103.12 10.0552L98.5399 5.90521C96.9299 4.44521 94.8499 3.65521 92.7199 3.65521L92.7499 3.63519Z" fill="url(#paint0_linear_1_189)"/>
<defs>
<linearGradient id="paint0_linear_1_189" x1="0.589897" y1="44.6152" x2="122.82" y2="44.6152" gradientUnits="userSpaceOnUse">
<stop stop-color="white"/>
<stop offset="1" stop-color="#00DDA8"/>
</linearGradient>
</defs>
</svg>
