<svg width="800" height="227" viewBox="0 0 800 227" fill="none" xmlns="http://www.w3.org/2000/svg">
<path d="M794.904 200.1C794.904 202.953 794.315 205.779 793.172 208.415C792.029 211.051 790.354 213.446 788.242 215.463C786.13 217.479 783.624 219.078 780.865 220.168C778.106 221.258 775.15 221.818 772.165 221.815H28.0453C22.0142 221.821 16.2275 219.537 11.9579 215.464C7.68819 211.392 5.2852 205.865 5.27734 200.1V26.929C5.2852 21.1606 7.68724 15.631 11.956 11.5543C16.2249 7.47762 22.0115 5.18704 28.0453 5.18555H772.159C775.146 5.18555 778.103 5.748 780.862 6.84078C783.621 7.93356 786.128 9.53526 788.24 11.5544C790.351 13.5735 792.026 15.9706 793.169 18.6086C794.311 21.2466 794.898 24.0739 794.898 26.929L794.904 200.1Z" fill="white"/>
<path d="M772.166 226.867H28.0463C20.6167 226.865 13.4911 224.046 8.23306 219.028C2.97506 214.01 0.0141366 207.203 0 200.1L0 26.9348C0.0109911 19.8286 2.96996 13.0167 8.22779 7.99337C13.4856 2.97009 20.613 0.145646 28.0463 0.139648L772.16 0.139648C779.593 0.148639 786.718 2.97404 791.975 7.99668C797.233 13.0193 800.192 19.8295 800.207 26.9348V200.1C800.218 214.864 787.616 226.867 772.166 226.867Z" fill="#A6A6A6"/>
<path d="M794.904 200.1C794.904 202.953 794.315 205.779 793.172 208.415C792.029 211.051 790.354 213.446 788.242 215.463C786.13 217.479 783.624 219.078 780.865 220.168C778.106 221.258 775.15 221.818 772.165 221.815H28.0453C22.0142 221.821 16.2275 219.537 11.9579 215.464C7.68819 211.392 5.2852 205.865 5.27734 200.1V26.929C5.2852 21.1606 7.68724 15.631 11.956 11.5543C16.2249 7.47762 22.0115 5.18704 28.0453 5.18555H772.159C775.146 5.18555 778.103 5.748 780.862 6.84078C783.621 7.93356 786.128 9.53526 788.24 11.5544C790.351 13.5735 792.026 15.9706 793.169 18.6086C794.311 21.2466 794.898 24.0739 794.898 26.929L794.904 200.1Z" fill="black"/>
<path d="M178.679 112.31C178.507 94.0364 194.33 85.1463 195.053 84.7324C186.092 72.242 172.202 70.5354 167.321 70.3993C155.656 69.2257 144.34 77.0726 138.397 77.0726C132.336 77.0726 123.185 70.5127 113.322 70.7055C100.63 70.8926 88.7572 77.9174 82.2453 88.8259C68.8063 111.068 78.8292 143.754 91.7048 161.733C98.1455 170.544 105.672 180.37 115.522 180.024C125.16 179.649 128.76 174.155 140.39 174.155C151.913 174.155 155.294 180.024 165.34 179.803C175.684 179.649 182.195 170.958 188.411 162.073C195.854 151.987 198.843 142.042 198.962 141.532C198.724 141.452 178.88 134.207 178.679 112.31ZM159.7 58.5722C164.884 52.3752 168.43 43.9443 167.446 35.3887C159.943 35.7062 150.561 40.3497 145.158 46.4106C140.378 51.7515 136.108 60.5056 137.211 68.7381C145.639 69.3391 154.292 64.6729 159.7 58.5722Z" fill="white"/>
<path d="M772.167 0.139648H373.594L529.708 226.867H772.167C779.598 226.861 786.724 224.038 791.981 219.017C797.239 213.996 800.199 207.187 800.213 200.083V26.9348C800.201 19.829 797.241 13.018 791.984 7.99502C786.726 2.97206 779.6 0.147143 772.167 0.139648Z" fill="url(#paint0_linear_690_1254)"/>
<path d="M318.272 178.759H304.803L297.426 156.596H271.781L264.753 178.759H251.641L277.054 103.306H292.746L318.272 178.759ZM295.202 147.298L288.53 127.596C287.824 125.583 286.495 120.843 284.55 113.382H284.313C283.53 116.591 282.279 121.33 280.565 127.596L274.005 147.298H295.202ZM383.498 150.887C383.498 160.14 380.871 167.454 375.61 172.823C370.901 177.603 365.048 179.99 358.067 179.99C350.529 179.99 345.109 177.421 341.817 172.273V200.82H329.173V142.235C329.173 136.423 329.013 130.464 328.704 124.352H339.824L340.53 132.976H340.767C344.984 126.479 351.383 123.23 359.971 123.23C366.684 123.23 372.289 125.764 376.773 130.839C381.25 135.924 383.498 142.603 383.498 150.887ZM370.617 151.329C370.617 146.034 369.371 141.668 366.868 138.226C364.134 134.649 360.463 132.857 355.861 132.857C352.741 132.857 349.907 133.855 347.374 135.822C344.836 137.807 343.175 140.398 342.398 143.607C342.051 144.807 341.854 146.042 341.811 147.287V156.364C341.811 160.316 343.08 163.655 345.619 166.388C348.157 169.109 351.454 170.476 355.511 170.476C360.273 170.476 363.98 168.712 366.631 165.214C369.288 161.705 370.617 157.078 370.617 151.329ZM448.955 150.887C448.955 160.14 446.328 167.454 441.067 172.823C436.353 177.603 430.505 179.99 423.518 179.99C415.981 179.99 410.56 177.421 407.268 172.273V200.82H394.624V142.235C394.624 136.423 394.464 130.464 394.156 124.352H405.276L405.981 132.976H406.219C410.429 126.479 416.829 123.23 425.422 123.23C432.13 123.23 437.734 125.764 442.23 130.839C446.702 135.924 448.955 142.603 448.955 150.887ZM436.068 151.329C436.068 146.034 434.816 141.668 432.314 138.226C429.58 134.649 425.92 132.857 421.318 132.857C418.199 132.857 415.364 133.855 412.819 135.822C410.281 137.807 408.626 140.398 407.85 143.607C407.464 145.104 407.256 146.323 407.256 147.287V156.364C407.256 160.316 408.532 163.655 411.058 166.388C413.596 169.104 416.894 170.476 420.962 170.476C425.731 170.476 429.437 168.712 432.082 165.214C434.739 161.705 436.068 157.078 436.068 151.329ZM522.14 157.594C522.14 164.018 519.792 169.24 515.124 173.271C509.988 177.671 502.818 179.876 493.625 179.876C485.133 179.876 478.324 178.311 473.188 175.176L476.112 165.101C481.657 168.242 487.748 169.807 494.379 169.807C499.147 169.807 502.854 168.775 505.499 166.728C508.15 164.676 509.49 161.931 509.49 158.507C509.49 155.44 508.381 152.871 506.204 150.779C504.016 148.693 500.398 146.748 495.316 144.962C481.497 140.035 474.582 132.829 474.582 123.349C474.582 117.158 477.025 112.089 481.9 108.126C486.775 104.168 493.24 102.189 501.282 102.189C508.464 102.189 514.448 103.386 519.199 105.773L516.026 115.627C511.554 113.313 506.507 112.157 500.861 112.157C496.401 112.157 492.902 113.206 490.399 115.292C488.294 117.158 487.226 119.431 487.226 122.13C487.226 125.107 488.442 127.579 490.862 129.518C492.961 131.304 496.792 133.248 502.332 135.335C509.128 137.954 514.122 141.004 517.319 144.508C520.539 148.012 522.14 152.384 522.14 157.594ZM564.053 133.424H550.115V159.839C550.115 166.558 552.571 169.909 557.493 169.909C559.753 169.909 561.627 169.727 563.11 169.347L563.459 178.527C560.969 179.417 557.689 179.865 553.626 179.865C548.633 179.865 544.73 178.408 541.913 175.493C539.108 172.579 537.696 167.698 537.696 160.826V133.401H529.393V124.33H537.696V114.368L550.115 110.785V124.33H564.053V133.424ZM626.811 151.108C626.811 159.471 624.309 166.337 619.315 171.706C614.09 177.234 607.139 179.99 598.474 179.99C590.112 179.99 583.464 177.342 578.506 172.052C573.548 166.751 571.069 160.072 571.069 152.015C571.069 143.584 573.631 136.678 578.737 131.309C583.855 125.934 590.747 123.247 599.411 123.247C607.762 123.247 614.469 125.9 619.546 131.196C624.397 136.333 626.811 142.966 626.811 151.108ZM613.704 151.386C613.704 146.402 612.578 142.127 610.318 138.549C607.667 134.229 603.871 132.069 598.955 132.069C593.89 132.069 590.005 134.229 587.36 138.549C585.095 142.127 583.968 146.476 583.968 151.613C583.968 156.602 585.095 160.888 587.36 164.455C590.094 168.775 593.908 170.935 598.848 170.935C603.681 170.935 607.471 168.729 610.211 164.347C612.536 160.684 613.704 156.381 613.704 151.386ZM667.929 134.983C666.614 134.756 665.28 134.644 663.943 134.649C659.495 134.649 656.056 136.248 653.636 139.468C651.536 142.303 650.481 145.886 650.481 150.212V178.759H637.836V141.486C637.848 135.775 637.725 130.064 637.469 124.358H648.482L648.945 134.768H649.295C650.635 131.19 652.734 128.304 655.617 126.144C658.255 124.257 661.461 123.234 664.756 123.23C665.924 123.23 666.98 123.309 667.917 123.451L667.929 134.983ZM724.478 148.982C724.51 150.819 724.355 152.656 724.016 154.464H686.083C686.225 159.839 688.064 163.956 691.586 166.79C694.783 169.319 698.917 170.589 703.993 170.589C709.61 170.589 714.734 169.739 719.342 168.021L721.323 176.406C715.938 178.652 709.58 179.768 702.244 179.768C693.419 179.768 686.492 177.285 681.451 172.33C676.422 167.369 673.901 160.701 673.901 152.35C673.901 144.151 676.244 137.319 680.935 131.871C685.846 126.053 692.482 123.145 700.832 123.145C709.035 123.145 715.244 126.053 719.461 131.871C722.8 136.48 724.478 142.195 724.478 148.982ZM712.421 145.846C712.51 142.257 711.68 139.167 709.966 136.554C707.777 133.186 704.409 131.508 699.895 131.508C695.762 131.508 692.393 133.146 689.831 136.435C687.726 139.048 686.474 142.189 686.089 145.835L712.421 145.846Z" fill="white"/>
<path d="M268.135 76.6296C264.618 76.6296 261.575 76.4652 259.043 76.1874V39.7083C262.585 39.1852 266.164 38.9274 269.748 38.9372C284.248 38.9372 290.926 45.7579 290.926 56.8762C290.926 69.7012 283.039 76.6296 268.135 76.6296ZM270.258 43.6147C268.301 43.6147 266.634 43.7281 265.252 44.0003V71.7309C266 71.8443 267.435 71.8954 269.451 71.8954C278.952 71.8954 284.361 66.7246 284.361 57.0407C284.361 48.4057 279.468 43.6147 270.258 43.6147ZM311.737 76.9074C303.565 76.9074 298.269 71.0733 298.269 63.1526C298.269 54.8975 303.677 49.0123 312.2 49.0123C320.254 49.0123 325.669 54.5687 325.669 62.7161C325.669 71.0733 320.088 76.9074 311.737 76.9074ZM311.975 53.3553C307.485 53.3553 304.609 57.3695 304.609 62.9825C304.609 68.4879 307.544 72.502 311.915 72.502C316.286 72.502 319.222 68.21 319.222 62.8692C319.222 57.4262 316.345 53.3553 311.975 53.3553ZM372.272 49.5623L363.524 76.3008H357.825L354.201 64.6891C353.3 61.8489 352.55 58.9668 351.953 56.0541H351.835C351.378 58.9684 350.512 61.8883 349.593 64.6891L345.738 76.3008H339.979L331.747 49.5623H338.135L341.302 62.2738C342.049 65.3015 342.678 68.159 343.2 70.8578H343.318C343.775 68.6069 344.522 65.7947 345.619 62.3305L349.593 49.568H354.658L358.459 62.0584C359.379 65.086 360.126 68.057 360.707 70.8635H360.873C361.276 68.1137 361.911 65.1937 362.771 62.0584L366.169 49.568L372.272 49.5623ZM404.476 76.3008H398.26V60.9471C398.26 56.2186 396.363 53.8486 392.62 53.8486C388.937 53.8486 386.405 56.8762 386.405 60.3971V76.3008H380.19V57.2051C380.19 54.8408 380.13 52.3064 379.958 49.5566H385.426L385.717 53.6842H385.889C387.561 50.8266 390.954 49.0123 394.755 49.0123C400.627 49.0123 404.482 53.3043 404.482 60.2894L404.476 76.3008ZM421.615 76.3008H415.394V37.293H421.615V76.3008ZM444.277 76.9074C436.11 76.9074 430.808 71.0733 430.808 63.1526C430.808 54.8975 436.217 49.0123 444.733 49.0123C452.793 49.0123 458.202 54.5687 458.202 62.7161C458.208 71.0733 452.621 76.9074 444.277 76.9074ZM444.508 53.3553C440.018 53.3553 437.142 57.3695 437.142 62.9825C437.142 68.4879 440.084 72.502 444.443 72.502C448.82 72.502 451.749 68.21 451.749 62.8692C451.755 57.4262 448.885 53.3553 444.508 53.3553ZM482.708 76.3008L482.257 73.2221H482.091C480.193 75.6998 477.423 76.9074 473.912 76.9074C468.901 76.9074 465.343 73.5509 465.343 69.0378C465.343 62.4383 471.327 59.0251 481.688 59.0251V58.5318C481.688 55.0109 479.736 53.2476 475.881 53.2476C473.124 53.2476 470.704 53.911 468.575 55.232L467.312 51.3256C469.897 49.7834 473.124 49.0123 476.913 49.0123C484.22 49.0123 487.909 52.6976 487.909 60.074V69.9223C487.909 72.6211 488.033 74.7132 488.312 76.3064L482.708 76.3008ZM481.854 62.9825C474.95 62.9825 471.487 64.5814 471.487 68.3745C471.487 71.181 473.272 72.5531 475.751 72.5531C478.912 72.5531 481.854 70.2455 481.854 67.1101V62.9825ZM518.09 76.3008L517.8 72.0088H517.628C515.843 75.2519 512.842 76.9074 508.649 76.9074C501.905 76.9074 496.912 71.2377 496.912 63.2604C496.912 54.8975 502.089 49.0066 509.159 49.0066C512.901 49.0066 515.552 50.2143 517.047 52.6409H517.171V37.293H523.392V69.0945C523.392 71.6799 523.458 74.1009 523.624 76.3008H518.09ZM517.171 60.5672C517.171 56.8252 514.579 53.6332 510.624 53.6332C506.015 53.6332 503.198 57.5396 503.198 63.0392C503.198 68.4312 506.122 72.1222 510.499 72.1222C514.407 72.1222 517.171 68.8734 517.171 65.0237V60.5672ZM562.837 76.9074C554.671 76.9074 549.375 71.0733 549.375 63.1526C549.375 54.8975 554.784 49.0123 563.3 49.0123C571.36 49.0123 576.769 54.5687 576.769 62.7161C576.775 71.0733 571.194 76.9074 562.837 76.9074ZM563.069 53.3553C558.585 53.3553 555.709 57.3695 555.709 62.9825C555.709 68.4879 558.644 72.502 563.009 72.502C567.386 72.502 570.316 68.21 570.316 62.8692C570.328 57.4262 567.452 53.3553 563.069 53.3553ZM610.194 76.3008H603.973V60.9471C603.973 56.2186 602.075 53.8486 598.333 53.8486C594.65 53.8486 592.123 56.8762 592.123 60.3971V76.3008H585.902V57.2051C585.902 54.8408 585.843 52.3064 585.671 49.5566H591.139L591.429 53.6842H591.601C593.268 50.8266 596.666 49.0066 600.462 49.0066C606.333 49.0066 610.194 53.2986 610.194 60.2838V76.3008ZM652.012 54.0187H645.174V67.0024C645.174 70.3078 646.371 71.9577 648.791 71.9577C649.888 71.9577 650.808 71.8443 651.549 71.6799L651.721 76.193C650.517 76.6353 648.904 76.8564 646.899 76.8564C642.001 76.8564 639.071 74.271 639.071 67.5013V54.0187H634.99V49.5623H639.071V44.6636L645.174 42.9003V49.5566H652.012V54.0187ZM684.915 76.3008H678.706V61.0605C678.706 56.2752 676.814 53.8543 673.066 53.8543C669.845 53.8543 666.844 55.9464 666.844 60.1817V76.3008H660.635V37.293H666.844V53.3553H666.969C668.926 50.4411 671.761 49.0066 675.379 49.0066C681.297 49.0066 684.915 53.4064 684.915 60.3971V76.3008ZM718.625 64.3603H699.973C700.092 69.4234 703.597 72.2809 708.786 72.2809C711.544 72.2809 714.082 71.8387 716.324 71.0166L717.291 75.1441C714.646 76.2441 711.532 76.794 707.909 76.794C699.161 76.794 693.983 71.5098 693.983 63.3171C693.983 55.1186 699.285 48.9556 707.209 48.9556C714.355 48.9556 718.839 54.0187 718.839 61.6672C718.879 62.5698 718.807 63.4738 718.625 64.3603ZM712.926 60.125C712.926 55.9974 710.749 53.0832 706.776 53.0832C703.205 53.0832 700.382 56.0541 699.979 60.125H712.926Z" fill="white"/>
<defs>
<linearGradient id="paint0_linear_690_1254" x1="586.897" y1="227.469" x2="586.897" y2="-590.219" gradientUnits="userSpaceOnUse">
<stop stop-color="#1A1A1A" stop-opacity="0.1"/>
<stop offset="0.123" stop-color="#212121" stop-opacity="0.151"/>
<stop offset="0.308" stop-color="#353535" stop-opacity="0.227"/>
<stop offset="0.532" stop-color="#575757" stop-opacity="0.318"/>
<stop offset="0.783" stop-color="#858585" stop-opacity="0.421"/>
<stop offset="1" stop-color="#B3B3B3" stop-opacity="0.51"/>
</linearGradient>
</defs>
</svg>
