<svg width="36" height="22" viewBox="0 0 36 22" fill="none" xmlns="http://www.w3.org/2000/svg">
<path d="M0.984375 3.85413C1.10938 3.41142 1.35417 3.04684 1.68229 2.72913C1.98958 2.43226 2.27083 2.11455 2.57292 1.81767C3.35937 1.03642 4.41146 0.989548 5.26042 1.69788C5.375 1.79163 5.47396 1.8958 5.57812 1.99476C9.67187 5.96871 13.7552 9.93747 17.849 13.9114C18.3802 14.4323 18.2448 14.4323 18.776 13.8854C22.7604 9.79163 26.7396 5.69788 30.7188 1.59892C31.2083 1.09371 31.7552 0.76559 32.4948 0.822882C32.9635 0.864548 33.3438 1.06767 33.6771 1.38538C34.0208 1.7083 34.3542 2.03642 34.6875 2.36455C35.5729 3.23955 35.5938 4.35934 34.7292 5.24997C32.7396 7.30205 30.7448 9.35413 28.75 11.4062C25.8229 14.4218 22.8958 17.4323 19.9635 20.4479C18.9479 21.4896 17.8802 21.5104 16.8385 20.4948C11.8385 15.6354 6.83854 10.776 1.83333 5.91663C1.47396 5.57288 1.16146 5.20309 1 4.72392C0.994792 4.43226 0.989584 4.14059 0.984375 3.85413Z" fill="#9A9A9A"/>
</svg>
