<svg xmlns="http://www.w3.org/2000/svg" width="48" height="48" viewBox="0 0 48 48" fill="none">
<path d="M3.45518 0.0354378L44.2441 0C46.3503 0.165633 47.8349 1.65479 48.0005 3.75641V44.1331C47.898 46.2841 46.3858 47.8325 44.2441 48.0005H3.86734C1.71642 47.898 0.167944 46.3858 0 44.2441V3.75641C0.154848 1.78422 1.4907 0.307384 3.45518 0.0354378ZM3.44979 2.16016C2.87739 2.35353 2.4167 2.81037 2.18713 3.36428V44.6354C2.45676 45.2587 3.03301 45.8473 3.75487 45.8711L44.6362 45.8126C45.2595 45.543 45.848 44.9667 45.8719 44.2449L45.8134 3.36351C45.5437 2.74027 44.9675 2.15169 44.2456 2.12781L3.44979 2.15939V2.16016Z" fill="url(#paint0_linear_518_2)"/>
<path d="M21.7572 30.7279V39.6421C21.7572 39.6868 21.3805 40.3347 21.3003 40.4186C21.0438 40.6852 20.4845 40.8755 20.1193 40.9194C18.7195 41.0873 15.5032 41.0642 14.0718 40.9363C13.2259 40.8608 12.5811 40.4525 12.3877 39.5928L12.3338 8.91368C12.4324 7.81588 12.9717 7.2743 14.0718 7.17569C21.1917 7.79045 31.6828 4.93848 36.4261 11.8542C38.8559 15.3965 39.0362 21.2453 36.9145 24.9724C33.8777 30.3081 27.3448 31.0407 21.7572 30.7279ZM19.6271 38.8008V29.55C19.6271 29.2195 20.1301 28.7696 20.4745 28.7157C21.7217 28.5192 23.5999 28.7712 24.952 28.708C32.1004 28.376 36.7843 25.2852 36.2266 17.5474C35.8537 12.3781 32.0141 9.60009 27.0882 9.30503L14.4685 9.30966V38.8001H19.6263L19.6271 38.8008Z" fill="url(#paint1_linear_518_2)"/>
<path d="M29.7918 14.8454C32.425 17.4786 31.2617 22.6248 27.7303 23.9738C26.191 24.5616 22.2459 24.6494 20.578 24.4514C19.8823 24.369 19.6828 23.9152 19.6235 23.2758C19.3708 20.574 19.8246 17.4894 19.6235 14.7453C19.6196 14.1005 20.0426 13.535 20.6905 13.4572C22.2143 13.2762 26.9044 13.3316 28.2603 13.854C28.7217 14.0319 29.4459 14.4988 29.7918 14.8454ZM21.7575 22.4307H25.0655C25.8259 22.4307 27.3058 21.95 27.9152 21.4677C29.3427 20.3368 29.5438 17.182 28.0299 16.1027C27.8412 15.9679 26.9244 15.5904 26.748 15.5904H21.7582V22.4307H21.7575Z" fill="url(#paint2_linear_518_2)"/>
<defs>
<linearGradient id="paint0_linear_518_2" x1="0" y1="24.0006" x2="48.0013" y2="24.0006" gradientUnits="userSpaceOnUse">
<stop stop-color="#009994"/>
<stop offset="1" stop-color="#00DDA8"/>
</linearGradient>
<linearGradient id="paint1_linear_518_2" x1="12.3338" y1="24.0672" x2="38.386" y2="24.0672" gradientUnits="userSpaceOnUse">
<stop stop-color="#009994"/>
<stop offset="1" stop-color="#00DDA8"/>
</linearGradient>
<linearGradient id="paint2_linear_518_2" x1="19.5441" y1="18.9547" x2="31.2278" y2="18.9547" gradientUnits="userSpaceOnUse">
<stop stop-color="#009994"/>
<stop offset="1" stop-color="#00DDA8"/>
</linearGradient>
</defs>
</svg>