<svg width="112" height="91" viewBox="0 0 112 91" fill="none" xmlns="http://www.w3.org/2000/svg">
<path d="M110.55 19.7356L107.98 19.6056L106.49 19.5455H106.43L103.02 19.4856L69.0598 21.6655L68.9998 23.0255C68.8098 25.8855 67.8298 28.3856 66.5998 30.4256L59.8798 30.2655L48.2598 28.8655C47.5498 28.7655 46.9898 28.2156 46.9298 27.4656L46.2798 21.2955C46.1198 19.4755 44.8798 17.9555 43.1598 17.3655L37.6698 15.4856C37.0898 15.2956 36.6598 14.7056 36.6298 14.0556L36.4398 7.13551L36.3098 6.84559C35.0798 4.24559 32.1498 1.9055 28.8398 0.875501C25.9198 -0.0344988 23.0598 0.16555 20.8498 1.42555L20.0398 1.8755L20.0698 2.81556C20.2298 11.1256 20.5598 19.6055 20.8498 27.7855C21.3398 40.3455 21.7898 53.3355 21.7598 65.9955C19.8098 66.0955 18.0898 66.0555 16.9498 66.0255H16.9198C12.4398 65.9955 8.76984 67.4555 6.00984 70.4055C-0.0601621 76.8655 0.589839 88.1056 0.619839 88.5856L0.719837 90.0155L41.4698 90.2755H43.0298L111.08 90.6956L110.56 19.7156L110.55 19.7356ZM39.9298 87.1756L3.69984 86.9456C3.72984 83.9256 4.24984 76.7855 8.27984 72.5255C10.3898 70.2555 13.3098 69.1155 16.8798 69.1155C17.2398 69.1455 20.8698 69.2456 25.1598 68.9256C31.1698 68.4356 35.4898 67.3055 37.9198 65.5455C38.2398 65.3855 39.0598 64.9255 40.1598 64.2455L39.9298 87.1655V87.1756ZM36.4198 62.8256L36.3198 62.8855L36.1898 62.9856C33.9198 64.6756 29.2098 65.4856 24.8598 65.8456C24.8598 53.1456 24.4098 40.1956 23.9198 27.6956C23.6298 19.8356 23.3398 11.7555 23.1698 3.76552C24.4998 3.27552 26.1598 3.27557 27.8798 3.82557C30.2498 4.57557 32.3898 6.19554 33.3298 7.91554L33.5198 14.1455C33.5498 16.0655 34.8198 17.7855 36.6398 18.3955L42.1598 20.2755C42.7098 20.4655 43.1298 20.9856 43.1698 21.5756L43.8198 27.7755C44.0498 29.9555 45.6998 31.6355 47.8798 31.8955L59.6298 33.3556L64.4698 33.4556C64.2098 33.7456 63.9498 34.0355 63.7198 34.2955C62.3198 35.8255 60.4398 37.0556 58.0098 38.0656C51.6798 40.6956 49.3098 48.0956 49.1498 48.7156C46.0698 57.9356 36.5198 62.7756 36.4198 62.8056V62.8256ZM42.7198 62.3955C46.0298 59.7655 50.1598 55.5455 52.0698 49.6655L52.0998 49.6355C52.0998 49.5755 54.1098 43.0456 59.2098 40.9356C62.0698 39.7656 64.2798 38.2755 65.9998 36.4255C68.3698 33.8555 71.1998 29.8356 71.9098 24.5756L103.08 22.5956H104.61C104.03 26.3256 102.3 30.1955 99.4498 34.1255C97.9198 36.2355 95.8498 37.9856 93.3498 39.2256C92.8598 39.4856 92.3398 39.7456 91.8198 39.9356C91.5898 40.0356 91.3698 40.1255 91.1698 40.2555C89.8998 40.8355 88.8598 41.6555 88.0498 42.4955C87.2098 43.3355 86.6198 44.1856 86.2298 44.8356C85.8398 45.4856 85.6798 45.9356 85.6498 45.9756L85.5898 46.0756C85.3598 46.7856 85.0998 47.4755 84.7798 48.1255C83.9398 50.1055 82.8298 51.8555 81.6298 53.4155C81.1798 54.0655 80.6898 54.6856 80.1698 55.2356C79.0998 56.5056 78.0298 57.5456 77.0498 58.3556C75.1998 60.0156 73.7998 60.8855 73.7698 60.9255L73.6398 60.9856C69.7398 63.8756 58.4398 62.7055 54.4498 61.9955L54.2898 61.9656L42.7298 62.4155L42.7198 62.3955ZM43.0498 87.1756L43.2398 65.4556L54.0498 65.0656C54.8598 65.1956 58.2998 65.7155 62.3298 65.8755C68.5298 66.1055 72.9098 65.3255 75.4098 63.5055C76.2898 62.9555 85.1498 57.1756 88.4898 47.1056C88.6498 46.7856 90.0198 43.9856 92.9698 42.8156C96.6698 41.2856 99.7898 38.9156 101.96 35.9356C104.88 31.8756 106.73 27.8556 107.48 23.9256L107.93 87.5956L43.0298 87.1756H43.0498Z" fill="url(#paint0_linear_1_188)"/>
<defs>
<linearGradient id="paint0_linear_1_188" x1="0.579839" y1="45.5055" x2="111.07" y2="45.5055" gradientUnits="userSpaceOnUse">
<stop stop-color="white"/>
<stop offset="1" stop-color="#00DDA8"/>
</linearGradient>
</defs>
</svg>
