<svg width="49" height="47" viewBox="0 0 49 47" fill="none" xmlns="http://www.w3.org/2000/svg">
<path d="M44.99 6.78937H39.78V2.89941C39.78 1.78941 38.87 0.909363 37.76 0.909363C36.65 0.909363 35.74 1.78941 35.74 2.89941V6.78937H13.77V2.87939C13.77 1.76939 12.86 0.859375 11.75 0.859375C10.64 0.859375 9.72998 1.76939 9.72998 2.87939V6.78937H4.46998C2.26998 6.78937 0.47998 8.57942 0.47998 10.7794V42.4094C0.47998 44.5894 2.26998 46.3694 4.46998 46.3694H44.98C47.18 46.3694 48.97 44.5794 48.97 42.4094V10.7794C48.97 8.57942 47.18 6.78937 44.98 6.78937H44.99ZM4.47998 10.8294H9.73997V13.3194C9.73997 14.4294 10.65 15.3394 11.76 15.3394C12.87 15.3394 13.78 14.4294 13.78 13.3194V10.8294L35.75 10.7794V13.3694C35.75 14.4794 36.66 15.3894 37.77 15.3894C38.88 15.3894 39.79 14.4794 39.79 13.3694V10.7794H44.94V17.8994H4.47998V10.8294ZM4.52998 42.4094L4.49998 21.9194H44.96L44.99 42.3594L4.52998 42.4094Z" fill="url(#paint0_linear_2_91)"/>
<defs>
<linearGradient id="paint0_linear_2_91" x1="0.48998" y1="23.6194" x2="48.98" y2="23.6194" gradientUnits="userSpaceOnUse">
<stop stop-color="#009994"/>
<stop offset="1" stop-color="#00DDA8"/>
</linearGradient>
</defs>
</svg>
