<svg width="96" height="140" viewBox="0 0 96 140" fill="none" xmlns="http://www.w3.org/2000/svg">
<path d="M93.9 79.7102V85.3902C93.9 85.5602 93.88 85.7202 93.85 85.8802C90.65 101.77 73.93 104.67 61.05 109.33C48.88 113.73 40.01 117.83 29.11 124.78C23.08 128.63 17.1 132.62 11.21 136.69C10.54 137.15 9.73999 137.4 8.92999 137.4C7.61999 137.4 6.39999 136.77 5.64999 135.7C4.46999 134.03 3.23999 132.15 2.99999 130.3C2.53999 126.83 2.86999 117.38 3.60999 113.95C4.58999 109.39 8.98999 107.52 11.11 103.42C14.18 97.4602 14.79 85.4502 11.03 79.7802C8.99999 76.7302 5.80999 75.2602 6.70999 70.9402C7.38999 67.6402 14.64 61.1502 16.85 57.3802C18.88 53.9102 18.92 49.6602 21.4 46.7402C22.43 45.5302 24.03 44.7102 24.99 43.3802C26.54 41.2502 26.63 38.5302 28.01 36.3602C29.8 33.5402 31.95 33.8402 32.99 30.0102C34.4 24.8202 33.26 21.3202 35.65 15.6702C37.61 11.0102 40.56 7.03021 44.23 3.63021C44.69 3.20021 45.29 2.97021 45.92 2.97021H46.22C47.07 2.97021 47.86 3.40021 48.3 4.13021C48.3 4.13021 48.3 4.13021 48.3 4.14021C61.33 25.3402 75.82 45.7602 88.69 67.0402C91.06 70.9702 92.91 74.7002 93.85 79.2302C93.88 79.4002 93.9 79.5702 93.9 79.7402V79.7102Z" stroke="url(#paint0_linear_573_4)" stroke-width="4" stroke-miterlimit="10"/>
<path d="M40.66 63.0801C43.24 63.0801 45.34 63.9301 46.96 65.6201C48.56 67.3001 49.37 69.6701 49.37 72.7001C49.37 75.7301 48.59 78.1401 47.02 79.9001C45.45 81.6601 43.33 82.5401 40.67 82.5401H32.14V63.0801H40.67H40.66ZM40.32 78.9501C41.69 78.9501 42.82 78.4601 43.71 77.4901C44.62 76.5101 45.07 75.0401 45.07 73.1001C45.07 70.8501 44.6 69.2201 43.66 68.2101C42.72 67.1901 41.36 66.6801 39.57 66.6801H36.4V78.9501H40.32Z" fill="url(#paint1_linear_573_4)"/>
<path d="M61.06 62.6199C63.94 62.6199 66.26 63.5899 68.01 65.5199C69.76 67.4499 70.63 69.9099 70.63 72.8899C70.63 74.2899 70.42 75.5999 70 76.8099C69.58 78.0199 68.94 79.0999 68.09 80.0699L70.51 82.2799L68.53 84.3699L65.78 81.8699C65.14 82.2399 64.43 82.5299 63.65 82.7199C62.87 82.9099 62.01 83.0099 61.07 83.0099C58.14 83.0099 55.81 82.0399 54.08 80.0899C52.36 78.1299 51.5 75.7299 51.5 72.8899C51.5 69.8999 52.37 67.4399 54.12 65.4999C55.88 63.5699 58.19 62.6099 61.07 62.6099L61.06 62.6199ZM55.76 72.8899C55.76 74.7999 56.21 76.3699 57.13 77.6199C58.05 78.8699 59.53 79.4699 61.55 79.4199C62.2 79.4199 62.61 79.3299 62.77 79.1399L60.93 77.4799L62.93 75.3499L65.14 77.3699C65.55 76.8099 65.85 76.1599 66.05 75.3999C66.25 74.6399 66.34 73.8099 66.34 72.8999C66.34 70.8399 65.87 69.2099 64.94 68.0199C64.01 66.8199 62.7 66.2199 61.02 66.2199C59.34 66.2199 58.07 66.8299 57.14 68.0399C56.22 69.2599 55.76 70.8799 55.76 72.8999V72.8899Z" fill="url(#paint2_linear_573_4)"/>
<defs>
<linearGradient id="paint0_linear_573_4" x1="0.789988" y1="70.1802" x2="95.9" y2="70.1802" gradientUnits="userSpaceOnUse">
<stop stop-color="white"/>
<stop offset="1" stop-color="#00DDA8"/>
</linearGradient>
<linearGradient id="paint1_linear_573_4" x1="32.12" y1="72.8101" x2="49.36" y2="72.8101" gradientUnits="userSpaceOnUse">
<stop stop-color="white"/>
<stop offset="1" stop-color="#00DDA8"/>
</linearGradient>
<linearGradient id="paint2_linear_573_4" x1="51.49" y1="73.4899" x2="70.63" y2="73.4899" gradientUnits="userSpaceOnUse">
<stop stop-color="white"/>
<stop offset="1" stop-color="#00DDA8"/>
</linearGradient>
</defs>
</svg>
