<?xml version="1.0" encoding="UTF-8"?>
<svg id="Layer_2" data-name="Layer 2" xmlns="http://www.w3.org/2000/svg" xmlns:xlink="http://www.w3.org/1999/xlink" viewBox="0 0 72.52 105.12">
  <defs>
    <style>
      .cls-1 {
        fill: url(#linear-gradient-2);
      }

      .cls-2 {
        fill: none;
        stroke: url(#linear-gradient);
        stroke-miterlimit: 10;
        stroke-width: 4px;
      }

      .cls-3 {
        fill: url(#linear-gradient-3);
      }
    </style>
    <linearGradient id="linear-gradient" x1="0" y1="52.56" x2="72.52" y2="52.56" gradientUnits="userSpaceOnUse">
      <stop offset="0" stop-color="#000"/>
      <stop offset="1" stop-color="#00dda8"/>
    </linearGradient>
    <linearGradient id="linear-gradient-2" x1="24.06" y1="54.54" x2="37.02" y2="54.54" xlink:href="#linear-gradient"/>
    <linearGradient id="linear-gradient-3" x1="38.62" y1="55.05" x2="53.02" y2="55.05" xlink:href="#linear-gradient"/>
  </defs>
  <g id="Layer_1-2" data-name="Layer 1">
    <g>
      <path class="cls-2" d="m70.52,59.73v4.27c0,.12-.01.25-.04.37-2.41,11.95-14.98,14.13-24.67,17.64-9.15,3.31-15.82,6.39-24.02,11.62-4.54,2.9-9.03,5.89-13.46,8.96-.5.35-1.1.54-1.72.54h0c-.98,0-1.9-.48-2.47-1.28-.88-1.26-1.81-2.67-1.99-4.06-.34-2.61-.09-9.72.46-12.3.74-3.43,4.04-4.84,5.64-7.92,2.31-4.48,2.77-13.52-.06-17.78-1.52-2.29-3.92-3.4-3.25-6.65.51-2.49,5.96-7.36,7.63-10.2,1.53-2.61,1.55-5.8,3.42-8,.78-.91,1.98-1.53,2.7-2.53,1.17-1.6,1.23-3.65,2.27-5.28,1.35-2.12,2.96-1.89,3.75-4.78,1.06-3.9.21-6.54,2-10.79,1.48-3.5,3.69-6.5,6.45-9.05.35-.32.8-.5,1.27-.5h.23c.64,0,1.23.33,1.56.87,0,0,0,0,0,0,9.8,15.95,20.7,31.3,30.38,47.3,1.79,2.95,3.18,5.76,3.88,9.17.03.13.04.25.04.38Z"/>
      <g>
        <path class="cls-1" d="m30.47,47.22c1.94,0,3.52.64,4.74,1.91,1.21,1.27,1.81,3.04,1.81,5.32s-.59,4.09-1.77,5.42c-1.18,1.32-2.77,1.98-4.78,1.98h-6.42v-14.64h6.42Zm-.25,11.93c1.03,0,1.88-.37,2.55-1.1.68-.74,1.02-1.84,1.02-3.3,0-1.69-.35-2.92-1.06-3.67-.71-.77-1.73-1.15-3.07-1.15h-2.38v9.23h2.94Z"/>
        <path class="cls-3" d="m45.82,46.87c2.17,0,3.91.73,5.22,2.18,1.32,1.45,1.97,3.3,1.97,5.55,0,1.06-.16,2.04-.48,2.94-.32.91-.79,1.72-1.44,2.45l1.82,1.66-1.49,1.57-2.07-1.88c-.48.28-1.02.5-1.6.64-.59.15-1.23.22-1.94.22-2.2,0-3.95-.73-5.25-2.19-1.3-1.47-1.94-3.28-1.94-5.42,0-2.25.66-4.1,1.97-5.55,1.32-1.45,3.06-2.17,5.23-2.17Zm-3.98,7.73c0,1.44.34,2.62,1.03,3.55.69.94,1.8,1.39,3.32,1.35.49,0,.79-.07.92-.21l-1.38-1.25,1.5-1.6,1.66,1.52c.31-.42.53-.91.68-1.48s.22-1.19.22-1.88c0-1.55-.35-2.77-1.05-3.67-.7-.9-1.68-1.35-2.94-1.35s-2.22.46-2.92,1.37c-.69.92-1.04,2.13-1.04,3.65Z"/>
      </g>
    </g>
  </g>
</svg>