<svg width="83" height="82" viewBox="0 0 83 82" fill="none" xmlns="http://www.w3.org/2000/svg">
<path d="M57.27 0.240234H25.61C11.8802 0.240234 0.75 11.3704 0.75 25.1002V56.7602C0.75 70.49 11.8802 81.6202 25.61 81.6202H57.27C70.9998 81.6202 82.13 70.49 82.13 56.7602V25.1002C82.13 11.3704 70.9998 0.240234 57.27 0.240234Z" fill="url(#paint0_linear_691_1305)"/>
<path d="M34.1296 81.7904C34.1296 75.9804 34.1296 70.1603 34.1196 64.3503C34.1196 61.0103 34.1196 57.6604 34.1196 54.3204C34.1196 53.4904 34.1196 53.4904 33.2696 53.4904C30.6396 53.4904 27.9996 53.4804 25.3696 53.4904C24.7896 53.4904 24.5996 53.3204 24.5996 52.7304C24.6196 49.4904 24.6196 46.2503 24.5996 43.0103C24.5996 42.4303 24.7796 42.2404 25.3596 42.2404C27.9896 42.2604 30.6296 42.2503 33.2596 42.2503C33.8329 42.2503 34.1196 41.957 34.1196 41.3703C34.1196 39.0603 34.0896 36.7503 34.1196 34.4403C34.1596 32.1203 34.3996 29.8403 35.2796 27.6603C36.9796 23.4003 40.1496 20.9003 44.5596 19.9003C47.1596 19.3103 49.7996 19.5003 52.4296 19.5903C53.7396 19.6303 55.0496 19.8004 56.3596 19.8704C56.8396 19.9004 57.0296 20.0503 57.0296 20.5503C57.0096 23.4703 57.0096 26.3803 57.0296 29.3003C57.0296 29.7703 56.8796 29.9403 56.3996 29.9303C54.7996 29.9103 53.1996 29.9003 51.5996 29.9303C50.7296 29.9503 49.8596 29.9903 48.9996 30.1603C47.2196 30.5203 46.1796 31.5803 45.8596 33.3503C45.7696 33.8703 45.6996 34.3903 45.6996 34.9203C45.7096 37.1303 45.7196 39.3403 45.6896 41.5403C45.6896 42.1203 45.8896 42.2503 46.4296 42.2503C49.5696 42.2303 52.7096 42.2403 55.8496 42.2503C56.6396 42.2503 56.6396 42.2603 56.5496 43.0303C56.1296 46.3003 55.7096 49.5704 55.3196 52.8404C55.2496 53.3804 54.9896 53.4904 54.5196 53.4904C51.8696 53.4804 49.2096 53.4904 46.5596 53.4904C45.9996 53.4904 45.7196 53.767 45.7196 54.3204C45.7196 63.1704 45.7196 72.0303 45.7196 80.8803C45.7196 81.1803 45.6996 81.4904 45.6896 81.7904H34.1396H34.1296Z" fill="white"/>
<defs>
<linearGradient id="paint0_linear_691_1305" x1="0.75" y1="40.9302" x2="82.13" y2="40.9302" gradientUnits="userSpaceOnUse">
<stop stop-color="#009994"/>
<stop offset="1" stop-color="#00DDA8"/>
</linearGradient>
</defs>
</svg>
