<svg width="52" height="52" viewBox="0 0 52 52" fill="none" xmlns="http://www.w3.org/2000/svg">
<path d="M25.5317 0.0146777C37.9717 -0.0353223 48.4917 8.39465 50.9017 20.4846C52.5517 28.7746 50.4717 36.2247 44.9417 42.6147C40.6517 47.5847 35.1217 50.3547 28.6217 51.1147C23.2917 51.7347 18.2517 50.7446 13.5617 48.0946C13.1917 47.8846 12.8917 47.8947 12.5217 48.0547C10.2017 49.0247 7.88167 49.9747 5.56167 50.9447C4.92167 51.2147 4.28168 51.3746 3.58168 51.1646C2.31168 50.7846 1.74168 49.7747 1.99168 48.3047C2.52168 45.2647 3.05168 42.2247 3.60168 39.1847C3.67168 38.8047 3.60168 38.5147 3.42168 38.1947C1.57168 35.0147 0.471672 31.5847 0.121672 27.9247C-0.368328 22.7647 0.621673 17.8747 3.09167 13.3147C6.19167 7.59467 10.8517 3.68464 16.9517 1.47464C19.7417 0.464639 22.6317 -0.0553321 25.5117 0.00466793L25.5317 0.0146777ZM47.3417 25.4347C47.3817 24.4547 47.2717 23.2547 47.0717 22.0547C46.2817 17.3847 44.2917 13.2846 40.8417 10.0346C35.5017 4.98464 29.1017 3.01467 21.8517 4.19467C9.91168 6.13467 2.26168 17.5647 4.32168 29.3247C4.80168 32.0547 5.75168 34.6046 7.21168 36.9646C7.50168 37.4346 7.74168 37.9346 7.64168 38.5346C7.27168 40.7446 6.91167 42.9647 6.55167 45.1747C6.52167 45.3547 6.40168 45.5647 6.57168 45.6947C6.74168 45.8347 6.92167 45.6646 7.09167 45.6046C8.58167 44.9946 10.0517 44.3647 11.5417 43.7647C12.4517 43.4047 13.3217 43.4447 14.1917 43.9947C18.9917 46.9847 24.2117 48.0146 29.7617 46.9646C40.0917 45.0046 47.3517 36.1746 47.3417 25.4546V25.4347Z" fill="url(#paint0_linear_633_1436)"/>
<path d="M25.7012 13.4961C30.1812 13.4961 33.8312 17.1461 33.6612 21.5661C33.5912 23.5861 32.6512 25.2761 31.2912 26.7361C30.5312 27.5461 29.7012 28.2861 28.9312 29.0961C28.2312 29.8261 27.7712 30.6561 27.7112 31.7261C27.6512 32.7861 26.7512 33.4161 25.5512 33.3661C24.5212 33.3261 23.7112 32.5961 23.7112 31.5761C23.7112 29.4261 24.6312 27.6361 26.0612 26.0961C26.6912 25.4161 27.3812 24.7961 28.0412 24.1461C28.2712 23.9161 28.4812 23.6561 28.7112 23.4161C30.8312 21.0961 28.7412 18.0961 26.5312 17.6561C24.4312 17.2361 21.8912 18.6061 21.8012 21.6561C21.7712 22.7861 20.9612 23.4761 19.8112 23.4861C18.6712 23.4861 17.8512 22.8061 17.7912 21.7561C17.7612 21.3061 17.7612 20.8461 17.8212 20.3961C18.3612 16.4661 21.7512 13.5161 25.7012 13.5061V13.4961Z" fill="url(#paint1_linear_633_1436)"/>
<path d="M25.7113 39.2842C24.5713 39.2842 23.6913 38.3842 23.7113 37.2342C23.7213 36.0742 24.6013 35.2343 25.7713 35.2543C26.8913 35.2743 27.7413 36.1442 27.7413 37.2742C27.7413 38.4342 26.8713 39.2942 25.7113 39.2942V39.2842Z" fill="url(#paint2_linear_633_1436)"/>
<defs>
<linearGradient id="paint0_linear_633_1436" x1="0.0216723" y1="25.6547" x2="51.4517" y2="25.6547" gradientUnits="userSpaceOnUse">
<stop stop-color="#009994"/>
<stop offset="1" stop-color="#00DDA8"/>
</linearGradient>
<linearGradient id="paint1_linear_633_1436" x1="17.7712" y1="23.4261" x2="33.6712" y2="23.4261" gradientUnits="userSpaceOnUse">
<stop stop-color="#009994"/>
<stop offset="1" stop-color="#00DDA8"/>
</linearGradient>
<linearGradient id="paint2_linear_633_1436" x1="23.7113" y1="37.2642" x2="27.7413" y2="37.2642" gradientUnits="userSpaceOnUse">
<stop stop-color="#009994"/>
<stop offset="1" stop-color="#00DDA8"/>
</linearGradient>
</defs>
</svg>
