<svg width="54" height="51" viewBox="0 0 54 51" fill="none" xmlns="http://www.w3.org/2000/svg">
<path d="M19.9649 39.6096C19.9649 36.553 19.9649 33.4964 19.9733 30.4397C19.9733 29.9875 19.8395 29.6609 19.5383 29.3343C13.6069 22.8191 7.67558 16.3039 1.76096 9.77191C-0.397424 7.38523 -0.589844 4.37884 1.2841 2.06753C2.38002 0.719264 3.81893 0.00744385 5.56739 0.00744385C19.8395 0.00744385 34.1115 -0.00930481 48.3752 0.00744385C50.7093 0.00744385 52.441 1.14635 53.4114 3.25668C54.3902 5.36701 54.156 7.44385 52.6502 9.2192C50.8264 11.3798 48.8772 13.4315 46.9781 15.5251C42.7618 20.1728 38.537 24.8206 34.3123 29.4516C34.0446 29.7447 33.9944 30.0545 33.9944 30.4146C33.9944 33.8481 33.986 37.2732 34.0028 40.7067C34.0028 41.5692 33.71 42.214 33.0323 42.75C29.8282 45.2958 26.6409 47.8583 23.4451 50.4209C22.7424 50.9903 21.9644 51.1913 21.1278 50.7894C20.2661 50.379 19.9315 49.6588 19.9398 48.7125C19.9649 45.681 19.9482 42.6411 19.9398 39.6013L19.9649 39.6096ZM24.0391 44.6259C24.3235 44.4165 24.4908 44.3076 24.6498 44.1736C26.2309 42.8924 27.8037 41.6027 29.4099 40.3466C29.7948 40.0451 29.9453 39.7352 29.9453 39.2495C29.9286 35.8831 29.9453 32.5166 29.9286 29.1417C29.9286 28.4802 30.1294 27.9274 30.5728 27.4417C32.7562 25.0467 34.9314 22.6432 37.1065 20.2398C41.1639 15.7596 45.2297 11.2793 49.2871 6.79902C49.764 6.27144 49.9145 5.67686 49.6552 5.01529C49.3959 4.35372 48.827 4.12761 48.1661 4.06899C47.9988 4.05225 47.8315 4.06899 47.6641 4.06899C33.8689 4.06899 20.0821 4.06899 6.28684 4.06899C6.06096 4.06899 5.82674 4.06899 5.60086 4.09412C4.96506 4.17786 4.45473 4.47096 4.22885 5.10741C3.99461 5.74386 4.17865 6.27981 4.61367 6.76553C7.79268 10.2744 10.9717 13.7832 14.1591 17.2921C17.1708 20.6167 20.1825 23.9413 23.2109 27.2575C23.7881 27.8939 24.0474 28.5806 24.0391 29.4516C24.014 34.2333 24.0224 39.0151 24.0224 43.7968V44.6091L24.0391 44.6259Z" fill="white"/>
</svg>
