<svg xmlns="http://www.w3.org/2000/svg" width="42" height="42" viewBox="0 0 42 42" fill="none">
<path d="M21.2599 41.9999C17.7399 41.9999 14.2099 41.9999 10.6899 41.9999C8.37993 41.9999 6.76995 40.3898 6.76995 38.0798C6.76995 34.3298 6.76995 30.5898 6.76995 26.8398C6.76995 26.4298 6.62995 26.2199 6.26995 26.0399C5.17995 25.5199 4.04994 25.0898 3.00994 24.4698C2.37994 24.0898 1.78995 23.6798 1.32995 23.0898C0.889946 22.5198 0.659902 21.8799 0.659902 21.1499C0.659902 18.2899 0.709953 15.4298 0.649953 12.5798C0.579953 9.65983 2.34991 7.15986 5.03991 5.97986C5.99991 5.55986 7.01995 5.43993 8.01995 5.17993C8.38995 5.08993 8.75993 4.9899 9.12993 4.8999C9.48993 4.8199 9.84994 4.77991 9.88994 4.27991C9.89994 4.14991 10.0699 4.02991 10.1799 3.90991C11.0399 3.03991 11.9099 2.18994 12.7699 1.30994C13.0699 1.00994 13.3999 0.879883 13.8299 0.879883C18.7799 0.879883 23.7299 0.879883 28.6899 0.879883C29.1499 0.879883 29.5099 1.00985 29.8299 1.34985C30.6099 2.15985 31.4199 2.94988 32.2199 3.74988C32.4999 4.02988 32.8099 4.27985 32.8499 4.71985C32.8699 4.93985 33.0799 4.94987 33.2499 4.98987C34.3199 5.23987 35.3799 5.47986 36.4499 5.72986C39.7699 6.51986 41.89 9.18987 41.9 12.6199C41.9 15.4099 41.8699 18.2099 41.9099 20.9999C41.9299 22.2399 41.4199 23.1599 40.4899 23.9099C39.4999 24.7099 38.3599 25.2199 37.2199 25.7499C35.8099 26.3999 35.7999 26.3898 35.7999 27.9598C35.7999 31.3198 35.7999 34.6899 35.7999 38.0499C35.7999 40.3799 34.19 41.9899 31.84 41.9899C28.32 41.9899 24.7899 41.9899 21.2699 41.9899L21.2599 41.9999ZM20.4799 26.2999V25.8699C20.4799 21.4699 20.4799 17.0699 20.4799 12.6799C20.4799 12.5499 20.56 12.3699 20.4 12.2899C20.28 12.2399 20.1699 12.3698 20.0699 12.4398C19.4999 12.7898 18.9499 13.1599 18.3599 13.4799C17.8399 13.7599 17.2799 13.9299 16.6699 13.8499C15.8499 13.7299 15.38 13.1699 14.96 12.5299C13.67 10.5699 12.3499 8.61991 11.0499 6.65991C10.8899 6.42991 10.7499 6.20992 10.4099 6.28992C8.8399 6.65992 7.22991 6.91992 5.72991 7.53992C4.12991 8.18992 2.94993 9.23986 2.49993 10.9799C2.32993 11.6599 2.25994 12.3499 2.25994 13.0499C2.25994 15.5599 2.30992 18.0698 2.23992 20.5698C2.19992 21.9298 2.79992 22.7698 3.92992 23.3298C4.72992 23.7198 5.5499 24.0598 6.3499 24.4498C6.7199 24.6298 6.77995 24.5099 6.76995 24.1599C6.75995 22.9399 6.76995 21.7199 6.76995 20.4899C6.76995 19.2799 6.76995 18.0799 6.76995 16.8699C6.76995 16.2899 7.07992 15.9999 7.61992 16.0299C8.13992 16.0599 8.35991 16.3399 8.35991 17.0299C8.35991 23.9499 8.35991 30.8699 8.35991 37.7999C8.35991 39.4499 9.31995 40.4099 10.96 40.4099C13.93 40.4099 16.8999 40.4099 19.8699 40.4099C20.2833 40.4099 20.4899 40.1999 20.4899 39.7799C20.4899 35.2899 20.4899 30.7899 20.4899 26.2999H20.4799ZM22.1199 12.2198C22.0899 12.3698 22.0799 12.3999 22.0799 12.4299C22.0799 21.6099 22.0799 30.7798 22.0799 39.9598C22.0799 40.3198 22.2199 40.4199 22.5599 40.4199C25.6399 40.4199 28.7199 40.4199 31.7999 40.4199C32.6699 40.4199 33.3699 40.0598 33.8499 39.3198C34.1499 38.8498 34.2199 38.3199 34.2199 37.7699C34.2199 30.9399 34.2199 24.1199 34.2199 17.2899C34.2199 17.1199 34.2199 16.9399 34.2199 16.7699C34.2599 16.2299 34.7099 15.9198 35.2299 16.0898C35.6799 16.2398 35.8099 16.5699 35.8099 17.0099C35.8099 19.3299 35.8099 21.6498 35.8099 23.9598C35.8099 24.0898 35.8099 24.2098 35.8099 24.3398C35.8099 24.5398 35.8899 24.6099 36.0799 24.5199C37.1399 24.0099 38.2699 23.6498 39.2399 22.9698C39.8799 22.5198 40.3199 21.9499 40.3199 21.1199C40.3199 18.2599 40.3399 15.3999 40.3199 12.5499C40.2999 9.98993 38.7699 8.02994 36.3299 7.30994C35.0999 6.94994 33.83 6.7199 32.59 6.3999C31.86 6.2199 31.8699 6.21985 31.4499 6.84985C30.0899 8.87985 28.7799 10.9399 27.3599 12.9299C26.6599 13.9199 25.6799 14.1899 24.5599 13.7399C23.9299 13.4899 23.3999 13.0898 22.8499 12.7098C22.6399 12.5598 22.4199 12.4099 22.1599 12.2299L22.1199 12.2198ZM27.21 2.43982C27.1 2.39982 27.0699 2.37988 27.0399 2.37988C23.3099 2.37988 19.5799 2.37988 15.8499 2.37988C15.7599 2.37988 15.64 2.34982 15.59 2.43982C15.52 2.56982 15.6499 2.63985 15.7199 2.71985C17.4799 4.84985 19.2499 6.96985 20.9999 9.09985C21.2399 9.38985 21.3599 9.33984 21.5799 9.08984C22.6499 7.80984 23.7399 6.54991 24.8199 5.27991C25.6099 4.34991 26.4 3.41983 27.21 2.44983V2.43982ZM17.2499 12.3298C17.2999 12.3098 17.4299 12.2999 17.5399 12.2399C18.3299 11.7399 19.11 11.2198 19.9 10.7198C20.12 10.5798 20.0599 10.4599 19.9199 10.2999C19.5099 9.81993 19.1099 9.32984 18.6999 8.83984C17.1099 6.91984 15.5199 4.99982 13.9399 3.06982C13.6999 2.77982 13.5599 2.77993 13.3199 3.04993C12.8499 3.55993 12.34 4.04991 11.84 4.52991C11.68 4.68991 11.64 4.79989 11.78 5.00989C13.36 7.30989 14.9299 9.61993 16.4999 11.9299C16.6599 12.1699 16.8699 12.3198 17.2399 12.3298H17.2499ZM25.4799 12.3298C25.9199 12.3298 26.1299 12.0499 26.3199 11.7499C27.3099 10.2499 28.3 8.75989 29.28 7.25989C29.73 6.56989 30.1799 5.87982 30.6399 5.18982C30.8199 4.91982 30.8599 4.66992 30.6099 4.41992C30.1099 3.92992 29.6199 3.43982 29.1299 2.93982C28.9699 2.76982 28.85 2.77985 28.71 2.96985C28.45 3.30985 28.17 3.63985 27.9 3.96985C26.24 6.01985 24.5899 8.05986 22.9299 10.1099C22.5699 10.5599 22.5699 10.5599 23.0699 10.8799C23.7199 11.2999 24.38 11.7199 25.03 12.1499C25.18 12.2499 25.3199 12.3398 25.4799 12.3298Z" fill="url(#paint0_linear_1_2371)"/>
<defs>
<linearGradient id="paint0_linear_1_2371" x1="0.649953" y1="21.4499" x2="41.8999" y2="21.4499" gradientUnits="userSpaceOnUse">
<stop stop-color="#009994"/>
<stop offset="1" stop-color="#00DDA8"/>
</linearGradient>
</defs>
</svg>