<svg width="800" height="238" viewBox="0 0 800 238" fill="none" xmlns="http://www.w3.org/2000/svg">
<path d="M770.37 237.518H29.6296C13.037 237.518 0 224.481 0 207.889V30.1111C0 13.5185 13.037 0.481445 29.6296 0.481445H770.37C786.963 0.481445 800 13.5185 800 30.1111V207.889C800 224.481 786.963 237.518 770.37 237.518Z" fill="black"/>
<path d="M770.37 5.22219C784 5.22219 795.259 16.4814 795.259 30.1111V207.889C795.259 221.518 784 232.778 770.37 232.778H29.6296C16 232.778 4.74074 221.518 4.74074 207.889V30.1111C4.74074 16.4814 16 5.22219 29.6296 5.22219H770.37ZM770.37 0.481445H29.6296C13.037 0.481445 0 14.1111 0 30.1111V207.889C0 224.481 13.037 237.518 29.6296 237.518H770.37C786.963 237.518 800 224.481 800 207.889V30.1111C800 14.1111 786.963 0.481445 770.37 0.481445Z" fill="#A6A6A6"/>
<path d="M403.555 129.666C389.332 129.666 378.073 140.333 378.073 155.148C378.073 169.37 389.332 180.629 403.555 180.629C417.777 180.629 429.036 169.963 429.036 155.148C429.036 139.74 417.777 129.666 403.555 129.666ZM403.555 169.963C395.851 169.963 389.332 163.444 389.332 154.555C389.332 145.666 395.851 139.148 403.555 139.148C411.258 139.148 417.777 145.074 417.777 154.555C417.777 163.444 411.258 169.963 403.555 169.963ZM348.444 129.666C334.221 129.666 322.962 140.333 322.962 155.148C322.962 169.37 334.221 180.629 348.444 180.629C362.666 180.629 373.925 169.963 373.925 155.148C373.925 139.74 362.666 129.666 348.444 129.666ZM348.444 169.963C340.74 169.963 334.221 163.444 334.221 154.555C334.221 145.666 340.74 139.148 348.444 139.148C356.147 139.148 362.666 145.074 362.666 154.555C362.666 163.444 356.147 169.963 348.444 169.963ZM282.666 137.37V148.037H308.147C307.555 153.963 305.184 158.703 302.221 161.666C298.666 165.222 292.74 169.37 282.666 169.37C266.666 169.37 254.814 156.926 254.814 140.926C254.814 124.926 267.258 112.481 282.666 112.481C290.962 112.481 297.481 116.037 302.221 120.185L309.925 112.481C303.407 106.555 295.11 101.814 283.258 101.814C261.925 101.814 243.555 119.592 243.555 140.926C243.555 162.259 261.925 180.037 283.258 180.037C295.11 180.037 303.407 176.481 310.518 168.777C317.629 161.666 319.999 151.592 319.999 143.889C319.999 141.518 319.999 139.148 319.407 137.37H282.666ZM551.703 145.666C549.332 139.74 543.407 129.666 530.37 129.666C517.332 129.666 506.666 139.74 506.666 155.148C506.666 169.37 517.332 180.629 531.555 180.629C542.814 180.629 549.925 173.518 552.295 169.37L543.999 163.444C541.036 167.592 537.481 170.555 531.555 170.555C525.629 170.555 522.073 168.185 519.11 162.851L552.888 148.629L551.703 145.666ZM517.332 153.963C517.332 144.481 525.036 139.148 530.37 139.148C534.518 139.148 538.666 141.518 539.851 144.481L517.332 153.963ZM489.481 178.259H500.74V104.185H489.481V178.259ZM471.703 135C468.74 132.037 463.999 129.074 458.073 129.074C445.629 129.074 433.777 140.333 433.777 154.555C433.777 168.777 445.036 179.444 458.073 179.444C463.999 179.444 468.74 176.481 471.11 173.518H471.703V177.074C471.703 186.555 466.37 191.889 458.073 191.889C451.555 191.889 446.814 187.148 445.629 183L436.147 187.148C439.11 193.666 446.221 201.963 458.666 201.963C471.703 201.963 482.37 194.259 482.37 175.889V130.851H471.703V135ZM458.666 169.963C450.962 169.963 444.444 163.444 444.444 154.555C444.444 145.666 450.962 139.148 458.666 139.148C466.37 139.148 472.295 145.666 472.295 154.555C472.295 163.444 466.37 169.963 458.666 169.963ZM603.258 104.185H576.592V178.259H587.851V150.407H603.258C615.703 150.407 627.555 141.518 627.555 127.296C627.555 113.074 615.703 104.185 603.258 104.185ZM603.851 139.74H587.851V114.259H603.851C612.147 114.259 616.888 121.37 616.888 126.703C616.295 133.222 611.555 139.74 603.851 139.74ZM671.999 129.074C663.703 129.074 655.407 132.629 652.444 140.333L662.518 144.481C664.888 140.333 668.444 139.148 672.592 139.148C678.518 139.148 683.851 142.703 684.444 148.629V149.222C682.666 148.037 677.925 146.259 673.184 146.259C662.518 146.259 651.851 152.185 651.851 162.851C651.851 172.926 660.74 179.444 670.221 179.444C677.925 179.444 681.481 175.889 684.444 172.333H685.036V178.259H695.703V149.814C694.518 136.777 684.444 129.074 671.999 129.074ZM670.814 169.963C667.258 169.963 661.925 168.185 661.925 163.444C661.925 157.518 668.444 155.74 673.777 155.74C678.518 155.74 680.888 156.926 683.851 158.111C682.666 165.222 676.74 169.963 670.814 169.963ZM733.036 130.851L720.592 162.851H719.999L706.962 130.851H695.11L714.666 175.889L703.407 200.777H714.666L744.888 130.851H733.036ZM633.481 178.259H644.74V104.185H633.481V178.259Z" fill="white"/>
<path d="M61.6282 44.9258C59.8504 46.7036 59.2578 49.6665 59.2578 53.2221V184.185C59.2578 187.741 60.443 190.704 62.2208 192.481L62.8134 193.074L136.295 119.592V118.407L61.6282 44.9258Z" fill="url(#paint0_linear_690_1277)"/>
<path d="M159.999 144.482L135.703 120.185V118.408L159.999 94.1113L160.592 94.7039L189.629 111.297C197.925 116.037 197.925 123.741 189.629 128.482L159.999 144.482Z" fill="url(#paint1_linear_690_1277)"/>
<path d="M160.592 143.889L135.703 119L61.6289 193.074C64.5919 196.037 68.74 196.037 74.0734 193.667L160.592 143.889Z" fill="url(#paint2_linear_690_1277)"/>
<path d="M160.592 94.1107L74.0734 44.9255C68.74 41.9626 64.5919 42.5552 61.6289 45.5181L135.703 119L160.592 94.1107Z" fill="url(#paint3_linear_690_1277)"/>
<path opacity="0.2" d="M159.999 143.296L74.0734 191.888C69.3326 194.851 65.1845 194.259 62.2215 191.888L61.6289 192.481L62.2215 193.074C65.1845 195.444 69.3326 196.037 74.0734 193.074L159.999 143.296Z" fill="black"/>
<path opacity="0.12" d="M61.6282 191.889C59.8504 190.111 59.2578 187.148 59.2578 183.593V184.185C59.2578 187.741 60.443 190.704 62.2208 192.481V191.889H61.6282ZM189.628 126.704L159.999 143.296L160.591 143.889L189.628 127.296C193.776 124.926 195.554 121.963 195.554 119C195.554 121.963 193.184 124.333 189.628 126.704Z" fill="black"/>
<path opacity="0.25" d="M74.0726 45.5183L189.628 111.296C193.184 113.666 195.554 116.037 195.554 119C195.554 116.037 193.776 113.074 189.628 110.703L74.0726 44.9257C65.7763 40.1849 59.2578 43.7405 59.2578 53.222V53.8146C59.2578 44.9257 65.7763 40.7775 74.0726 45.5183Z" fill="white"/>
<path d="M273.778 72.7775C270.223 76.3331 266.075 78.1109 260.741 78.1109C255.408 78.1109 251.26 76.3331 247.704 72.7775C244.149 69.222 242.371 65.0738 242.371 59.7405C242.371 54.4072 244.149 50.259 247.704 46.7035C251.26 43.1479 255.408 41.3701 260.741 41.3701C266.075 41.3701 270.223 43.1479 273.778 46.7035C277.334 50.259 279.112 54.4072 279.112 59.7405C279.112 65.0738 277.334 69.222 273.778 72.7775ZM251.26 69.8146C253.63 72.1849 257.186 73.9627 260.741 73.9627C264.297 73.9627 267.853 72.7775 270.223 69.8146C272.593 67.4442 274.371 63.8886 274.371 59.7405C274.371 55.5923 273.186 52.0368 270.223 49.6664C267.853 47.296 264.297 45.5183 260.741 45.5183C257.186 45.5183 253.63 46.7035 251.26 49.6664C248.89 52.0368 247.112 55.5923 247.112 59.7405C247.112 63.8886 248.297 67.4442 251.26 69.8146ZM285.63 77.5183V41.9627H290.964L308.149 69.8146V41.9627H312.89V77.5183H308.149L290.371 48.4812V77.5183H285.63ZM333.038 77.5183H328.297V46.1109H318.223V41.9627H342.519V46.1109H332.445V77.5183H333.038ZM349.038 77.5183V41.9627H359.704C365.038 41.9627 369.778 43.7405 372.741 46.7035C376.297 50.259 377.482 54.4072 377.482 59.7405C377.482 65.0738 375.704 69.222 372.741 72.7775C369.186 76.3331 365.038 77.5183 359.704 77.5183H349.038ZM353.186 73.3701H359.704C363.853 73.3701 366.816 72.1849 369.186 69.8146C371.556 67.4442 372.741 63.8886 372.741 59.7405C372.741 55.5923 371.556 52.0368 369.186 49.6664C366.816 47.296 363.26 46.1109 359.704 46.1109H353.186V73.3701ZM404.741 46.1109H388.741V57.3701H403.556V61.5183H388.741V72.7775H404.741V77.5183H384.001V41.9627H404.741V46.1109ZM438.519 41.9627L425.482 57.3701L439.704 77.5183H434.371L422.519 60.9257L417.186 67.4442V77.5183H412.445V41.9627H417.186V60.3331L432.593 41.9627H438.519ZM455.704 77.5183V41.9627H460.445V57.3701H478.223V41.9627H482.964V77.5183H478.223V61.5183H460.445V77.5183H455.704ZM512.001 46.1109H496.001V57.3701H510.816V61.5183H496.001V72.7775H512.001V77.5183H491.26V41.9627H512.001V46.1109ZM530.964 77.5183H526.223V46.1109H516.149V41.9627H540.445V46.1109H530.371V77.5183H530.964ZM587.26 72.7775C583.704 76.3331 579.556 78.1109 574.223 78.1109C568.89 78.1109 564.741 76.3331 561.186 72.7775C557.63 69.222 555.853 65.0738 555.853 59.7405C555.853 54.4072 557.63 50.259 561.186 46.7035C564.741 43.1479 568.89 41.3701 574.223 41.3701C579.556 41.3701 583.704 43.1479 587.26 46.7035C590.816 50.259 592.593 54.4072 592.593 59.7405C592.593 65.0738 590.816 69.222 587.26 72.7775ZM564.741 69.8146C567.112 72.1849 570.667 73.9627 574.223 73.9627C577.778 73.9627 581.334 72.7775 583.704 69.8146C586.075 67.4442 587.853 63.8886 587.853 59.7405C587.853 55.5923 586.667 52.0368 583.704 49.6664C581.334 47.296 577.778 45.5183 574.223 45.5183C570.667 45.5183 567.112 46.7035 564.741 49.6664C562.371 52.0368 560.593 55.5923 560.593 59.7405C560.593 63.8886 561.778 67.4442 564.741 69.8146ZM603.26 77.5183H598.519V41.9627H610.371C613.334 41.9627 615.704 43.1479 618.075 44.9257C620.445 46.7034 621.63 49.6664 621.63 52.6294C621.63 55.5923 620.445 57.9627 618.075 60.3331C615.704 62.1109 613.334 63.296 610.371 63.296H602.667V77.5183H603.26ZM603.26 58.5553H610.964C612.741 58.5553 614.519 57.9627 615.704 56.7775C616.89 55.5923 617.482 53.8146 617.482 52.6294C617.482 51.4442 616.89 49.6664 615.704 48.4812C614.519 47.296 612.741 46.7035 610.964 46.7035H603.26V58.5553Z" fill="white" stroke="white" stroke-width="1.18519" stroke-miterlimit="10"/>
<defs>
<linearGradient id="paint0_linear_690_1277" x1="129.184" y1="52.0962" x2="29.7289" y2="151.545" gradientUnits="userSpaceOnUse">
<stop stop-color="#00A0FF"/>
<stop offset="0.007" stop-color="#00A1FF"/>
<stop offset="0.26" stop-color="#00BEFF"/>
<stop offset="0.512" stop-color="#00D2FF"/>
<stop offset="0.76" stop-color="#00DFFF"/>
<stop offset="1" stop-color="#00E3FF"/>
</linearGradient>
<linearGradient id="paint1_linear_690_1277" x1="200.497" y1="119.006" x2="57.1076" y2="119.006" gradientUnits="userSpaceOnUse">
<stop stop-color="#FFE000"/>
<stop offset="0.409" stop-color="#FFBD00"/>
<stop offset="0.775" stop-color="#FFA500"/>
<stop offset="1" stop-color="#FF9C00"/>
</linearGradient>
<linearGradient id="paint2_linear_690_1277" x1="147.122" y1="132.606" x2="12.26" y2="267.468" gradientUnits="userSpaceOnUse">
<stop stop-color="#FF3A44"/>
<stop offset="1" stop-color="#C31162"/>
</linearGradient>
<linearGradient id="paint3_linear_690_1277" x1="43.2408" y1="1.52406" x2="103.466" y2="61.7493" gradientUnits="userSpaceOnUse">
<stop stop-color="#32A071"/>
<stop offset="0.069" stop-color="#2DA771"/>
<stop offset="0.476" stop-color="#15CF74"/>
<stop offset="0.801" stop-color="#06E775"/>
<stop offset="1" stop-color="#00F076"/>
</linearGradient>
</defs>
</svg>
