<svg xmlns="http://www.w3.org/2000/svg" width="25" height="43" viewBox="0 0 25 43" fill="none">
<path d="M13.9098 5.33235C13.9098 4.46149 13.9098 3.57871 13.9098 2.70785C13.9217 1.28824 15.0312 0.1788 16.4627 0.16687C18.2163 0.16687 19.97 0.16687 21.7236 0.16687C23.1194 0.16687 24.2765 1.26438 24.3004 2.66014C24.3362 4.46149 24.3362 6.25092 24.3004 8.05227C24.2765 9.44802 23.1313 10.5455 21.7355 10.5694C19.9819 10.5933 18.2283 10.5933 16.4746 10.5694C15.0312 10.5575 13.9217 9.41224 13.9098 7.96877C13.9098 7.09791 13.9098 6.21513 13.9098 5.34427V5.33235Z" fill="url(#paint0_linear_102_184)"/>
<path d="M0 5.33235C0 4.46149 0 3.57871 0 2.70785C0.0119295 1.28824 1.1333 0.16687 2.56484 0.16687C4.31848 0.16687 6.07212 0.16687 7.82575 0.16687C9.22151 0.16687 10.3787 1.26438 10.4025 2.66014C10.4383 4.46149 10.4383 6.25092 10.4025 8.05227C10.3787 9.44802 9.23344 10.5455 7.83768 10.5694C6.08405 10.5933 4.33041 10.5933 2.57677 10.5694C1.12137 10.5455 0.0119295 9.40031 0 7.95684C0 7.08598 0 6.2032 0 5.33235Z" fill="url(#paint1_linear_102_184)"/>
<path d="M14.1365 21.3419C14.1365 20.4711 14.1365 19.5883 14.1365 18.7174C14.1484 17.2978 15.2578 16.1884 16.6894 16.1765C18.443 16.1765 20.1967 16.1765 21.9503 16.1765C23.3461 16.1765 24.5032 17.274 24.5271 18.6697C24.5629 20.4711 24.5629 22.2605 24.5271 24.0619C24.5032 25.4576 23.358 26.5551 21.9622 26.579C20.2086 26.6028 18.455 26.6028 16.7013 26.579C15.2578 26.5671 14.1484 25.4218 14.1365 23.9783C14.1365 23.1075 14.1365 22.2247 14.1365 21.3539V21.3419Z" fill="url(#paint2_linear_102_184)"/>
<path d="M14.1365 37.7331C14.1365 36.8622 14.1365 35.9794 14.1365 35.1086C14.1484 33.689 15.2578 32.5795 16.6894 32.5676C18.443 32.5676 20.1967 32.5676 21.9503 32.5676C23.3461 32.5676 24.5032 33.6651 24.5271 35.0609C24.5629 36.8622 24.5629 38.6516 24.5271 40.453C24.5032 41.8488 23.358 42.9463 21.9622 42.9701C20.2086 42.994 18.455 42.994 16.7013 42.9701C15.2578 42.9582 14.1484 41.813 14.1365 40.3695C14.1365 39.4986 14.1365 38.6159 14.1365 37.745V37.7331Z" fill="url(#paint3_linear_102_184)"/>
<path d="M0.226654 21.3419C0.226654 20.4711 0.226654 19.5883 0.226654 18.7174C0.238584 17.2978 1.34803 16.1884 2.77957 16.1765C4.5332 16.1765 6.28684 16.1765 8.04048 16.1765C9.43623 16.1765 10.5934 17.274 10.6173 18.6697C10.653 20.4711 10.653 22.2605 10.6173 24.0619C10.5934 25.4576 9.44816 26.5551 8.05241 26.579C6.29877 26.6028 4.54513 26.6028 2.7915 26.579C1.34803 26.5671 0.238584 25.4218 0.226654 23.9783C0.226654 23.1075 0.226654 22.2247 0.226654 21.3539V21.3419Z" fill="url(#paint4_linear_102_184)"/>
<path d="M0.226654 37.745C0.226654 36.8741 0.226654 35.9914 0.226654 35.1205C0.238584 33.7009 1.34803 32.5915 2.77957 32.5795C4.5332 32.5795 6.28684 32.5795 8.04048 32.5795C9.43623 32.5795 10.5934 33.677 10.6173 35.0728C10.653 36.8742 10.653 38.6636 10.6173 40.4649C10.5934 41.8607 9.44816 42.9582 8.05241 42.9821C6.29877 43.0059 4.54513 43.0059 2.7915 42.9821C1.34803 42.9701 0.238584 41.8249 0.226654 40.3814C0.226654 39.5106 0.226654 38.6278 0.226654 37.7569V37.745Z" fill="url(#paint5_linear_102_184)"/>
<defs>
<linearGradient id="paint0_linear_102_184" x1="13.9098" y1="5.36813" x2="24.3242" y2="5.36813" gradientUnits="userSpaceOnUse">
<stop stop-color="#009994"/>
<stop offset="1" stop-color="#00DDA8"/>
</linearGradient>
<linearGradient id="paint1_linear_102_184" x1="0" y1="5.36813" x2="10.4145" y2="5.36813" gradientUnits="userSpaceOnUse">
<stop stop-color="#009994"/>
<stop offset="1" stop-color="#00DDA8"/>
</linearGradient>
<linearGradient id="paint2_linear_102_184" x1="14.1365" y1="21.3777" x2="24.5509" y2="21.3777" gradientUnits="userSpaceOnUse">
<stop stop-color="#009994"/>
<stop offset="1" stop-color="#00DDA8"/>
</linearGradient>
<linearGradient id="paint3_linear_102_184" x1="14.1365" y1="37.7689" x2="24.5509" y2="37.7689" gradientUnits="userSpaceOnUse">
<stop stop-color="#009994"/>
<stop offset="1" stop-color="#00DDA8"/>
</linearGradient>
<linearGradient id="paint4_linear_102_184" x1="0.226654" y1="21.3777" x2="10.6411" y2="21.3777" gradientUnits="userSpaceOnUse">
<stop stop-color="#009994"/>
<stop offset="1" stop-color="#00DDA8"/>
</linearGradient>
<linearGradient id="paint5_linear_102_184" x1="0.226654" y1="37.7808" x2="10.6411" y2="37.7808" gradientUnits="userSpaceOnUse">
<stop stop-color="#009994"/>
<stop offset="1" stop-color="#00DDA8"/>
</linearGradient>
</defs>
</svg>