<svg width="53" height="46" viewBox="0 0 53 46" fill="none" xmlns="http://www.w3.org/2000/svg">
<path d="M28.0161 44.6705C27.0361 45.5905 25.5061 45.5905 24.5161 44.6705L5.67607 27.1404C1.43607 23.1904 -0.623935 17.5604 0.166066 12.0804C0.206066 11.7804 0.266067 11.4805 0.316067 11.1905C1.51607 5.23049 6.25607 0.890422 12.4061 0.120422C18.1061 -0.589578 23.3961 1.95046 26.2661 6.66046C29.1361 1.95046 34.4061 -0.599578 40.1261 0.120422C46.2761 0.880422 51.0161 5.23049 52.2161 11.1905C52.2761 11.4805 52.3261 11.7804 52.3661 12.0804C53.1661 17.5604 51.1061 23.1904 46.8561 27.1404L28.0161 44.6705ZM14.2761 3.12042C13.7861 3.12042 13.2961 3.15039 12.7961 3.21039C8.97607 3.69039 4.49606 6.19048 3.37606 11.8005C3.32606 12.0405 3.28607 12.2704 3.25607 12.5204C2.60607 16.9904 4.30607 21.6004 7.80607 24.8604L26.2761 42.0505L44.7461 24.8604C48.2461 21.6104 49.9461 17.0005 49.2961 12.5305C49.2561 12.2805 49.2161 12.0405 49.1761 11.8105C48.0461 6.20049 43.5661 3.7004 39.7561 3.2204C34.9161 2.6204 30.4461 5.01049 28.3961 9.31049C28.1561 9.82049 27.9361 10.3304 27.7561 10.8504C27.2661 12.2304 25.3261 12.2404 24.8261 10.8604C24.6361 10.3304 24.4161 9.81049 24.1761 9.31049C22.3361 5.45049 18.5461 3.13043 14.2961 3.13043L14.2761 3.12042Z" fill="url(#paint0_linear_632_1321)"/>
<defs>
<linearGradient id="paint0_linear_632_1321" x1="0.00606565" y1="22.6804" x2="52.5361" y2="22.6804" gradientUnits="userSpaceOnUse">
<stop stop-color="#009994"/>
<stop offset="1" stop-color="#00DDA8"/>
</linearGradient>
</defs>
</svg>
