<svg xmlns="http://www.w3.org/2000/svg" width="24" height="49" viewBox="0 0 24 49" fill="none">
<path d="M4.28994 9.80004C4.51994 8.24004 4.58994 6.67999 4.59994 5.11999C4.59994 4.14999 4.68995 3.2 4.91995 2.26C4.98995 1.97 5.08996 1.69005 5.24996 1.43005C5.81996 0.510047 6.89998 0.500048 7.45998 1.43005C7.84998 2.08005 7.93998 2.81004 8.01998 3.55004C8.14998 4.72004 8.09999 5.88994 8.14999 7.06994C8.18999 8.00994 8.17996 8.95002 8.36996 10.03C8.58996 9.11002 8.63998 8.31 8.70998 7.51C8.84998 5.85 8.84997 4.19003 9.12997 2.54003C9.17997 2.23003 9.25995 1.91999 9.35995 1.61999C9.51995 1.13999 9.79994 0.759984 10.3499 0.739984C10.9199 0.719984 11.37 0.969984 11.64 1.48998C11.89 1.97998 11.98 2.52994 12.01 3.06994C12.21 6.51994 12.1699 9.97004 12.0999 13.42C12.0799 14.67 11.8799 15.89 11.2999 17.03C10.7499 18.11 9.97998 18.97 8.88998 19.51C8.58998 19.66 8.42997 19.8299 8.44997 20.1899C8.54997 22.3799 8.62994 24.56 8.72994 26.75C8.77994 27.82 8.78998 28.8899 8.82998 29.9499C8.94998 32.8199 8.97994 35.6901 9.09994 38.5601C9.17994 40.4201 9.18995 42.27 9.16994 44.13C9.15994 45.13 9.10997 46.1299 8.75997 47.0799C8.28997 48.3399 7.17994 48.94 5.91995 48.61C5.24995 48.43 4.79994 47.99 4.47994 47.39C3.91994 46.32 3.78994 45.14 3.78994 43.97C3.80994 40.82 3.89998 37.67 3.95998 34.51C3.95998 34.39 3.95998 34.26 3.95998 34.14C4.00998 30.02 4.04994 25.91 4.09994 21.79C4.09994 21.23 4.13995 20.67 4.16995 20.11C4.18995 19.81 4.07996 19.63 3.80996 19.49C1.83996 18.46 0.929943 16.71 0.729943 14.6C0.359943 10.7 0.539943 6.80002 0.729943 2.90002C0.749943 2.43002 0.84996 1.96002 1.05996 1.53002C1.31996 1.01002 1.84997 0.689984 2.37997 0.739984C2.92997 0.789984 3.19996 1.17001 3.36996 1.64001C3.70996 2.61001 3.73997 3.63001 3.81997 4.64001C3.94997 6.28001 3.97995 7.93004 4.23995 9.55004C4.24995 9.63004 4.26994 9.71003 4.28994 9.79003V9.80004ZM2.22994 2.04003C1.95994 2.42003 1.95995 2.76998 1.92995 3.10998C1.75995 4.64998 1.85999 6.18997 1.77999 7.72997C1.65999 10.06 1.69998 12.3899 1.95998 14.6999C2.16998 16.5299 3.04997 17.98 4.87997 18.67C5.28997 18.83 5.42994 19.09 5.40994 19.52C5.32994 21.22 5.30995 22.92 5.29995 24.61C5.26995 27.9 5.21995 31.19 5.16995 34.49C5.16995 34.6 5.16995 34.7001 5.16995 34.8101C5.10995 37.93 4.96998 41.04 5.01998 44.16C5.03998 45.1 5.12999 46.05 5.58999 46.91C5.80999 47.31 6.13996 47.53 6.61996 47.51C7.10996 47.48 7.43997 47.23 7.62997 46.79C7.69997 46.63 7.74999 46.46 7.77999 46.29C7.90999 45.64 7.97994 44.9701 7.97994 44.3101C7.97994 42.4401 7.99995 40.5599 7.91995 38.6899C7.79995 35.7999 7.76999 32.91 7.64999 30.03C7.59999 28.95 7.58994 27.86 7.53994 26.78C7.43994 24.35 7.34996 21.92 7.24996 19.49C7.22996 19.06 7.41999 18.82 7.83999 18.68C8.83999 18.34 9.57995 17.68 10.1099 16.76C10.7199 15.71 10.8799 14.54 10.9099 13.37C10.9799 9.96999 11.02 6.57005 10.81 3.18005C10.79 2.80005 10.78 2.39994 10.51 2.06994C10.37 2.22994 10.36 2.39004 10.34 2.55004C9.99999 4.50004 10.04 6.48995 9.82998 8.45995C9.73998 9.29995 9.66996 10.14 9.30996 10.91C9.11996 11.31 8.80999 11.61 8.33999 11.6C7.86999 11.59 7.56998 11.3 7.38998 10.88C7.25998 10.57 7.16997 10.25 7.12997 9.92004C6.93997 8.28004 6.95995 6.63998 6.91995 4.98998C6.89995 4.11998 6.85999 3.24001 6.58999 2.39001C6.54999 2.27001 6.53996 2.06994 6.36996 2.06994C6.20996 2.06994 6.18999 2.26001 6.14999 2.39001C6.03999 2.74001 5.96996 3.09996 5.93996 3.46996C5.77996 5.15996 5.79994 6.86005 5.72994 8.56005C5.69994 9.31005 5.64998 10.06 5.38998 10.78C5.21998 11.24 4.92994 11.59 4.40994 11.6C3.91994 11.6 3.60995 11.3 3.41995 10.87C3.21995 10.44 3.11995 9.98 3.04995 9.51C2.79995 7.81 2.77997 6.09 2.62997 4.38C2.55997 3.63 2.55997 2.86005 2.25997 2.06005L2.22994 2.04003Z" fill="url(#paint0_linear_213_3)"/>
<path d="M23.1599 41.7999C23.1599 43.4799 23.22 45.0099 22.84 46.5099C22.41 48.1799 21.0499 49.0199 19.4099 48.6199C18.4399 48.3799 17.85 47.7099 17.53 46.7999C17.01 45.2999 16.9899 43.7399 17.0399 42.1799C17.0799 41.0299 17.1599 39.8699 17.1999 38.7198C17.3199 35.4098 17.4299 32.1099 17.5499 28.7999C17.5599 28.3999 17.5999 27.9999 17.6299 27.5999C17.6499 27.3199 17.5399 27.1899 17.2499 27.1599C16.7599 27.1199 16.2799 27.0398 15.7899 26.9698C14.7799 26.8198 14.4199 26.5199 14.1799 25.5199C13.8799 24.2599 13.9199 22.9798 13.9999 21.6998C14.1299 19.4998 14.35 17.3099 14.59 15.1099C14.95 11.7999 15.2999 8.48982 16.3699 5.31982C16.6999 4.35982 17.1099 3.42983 17.6899 2.57983C17.8599 2.32983 18.0499 2.0999 18.2599 1.8999C19.4699 0.769903 20.7499 1.05985 21.3799 2.59985C21.6299 3.20985 21.74 3.84987 21.78 4.48987C21.87 6.02987 21.9299 7.56986 21.9899 9.10986C22.1399 13.1999 22.2699 17.2999 22.4399 21.3899C22.5499 24.1399 22.6599 26.8799 22.7599 29.6299C22.8699 32.6899 22.9899 35.7499 23.0799 38.8099C23.1099 39.8599 23.1399 40.9099 23.1599 41.7999ZM21.9999 42.0599C21.8899 38.9599 21.7799 35.8699 21.6599 32.7699C21.5599 29.9699 21.4499 27.1699 21.3499 24.3699C21.2099 20.6999 21.0599 17.0199 20.9199 13.3499C20.8299 11.0399 20.7899 8.72992 20.6699 6.41992C20.6199 5.49992 20.6699 4.5599 20.4499 3.6499C20.3399 3.1999 20.3199 2.60987 19.7899 2.48987C19.2299 2.35987 18.9399 2.88992 18.6699 3.28992C18.0299 4.23992 17.61 5.2999 17.28 6.3999C16.44 9.1999 16.1199 12.0899 15.8199 14.9799C15.5799 17.2199 15.3899 19.4698 15.2199 21.7198C15.1399 22.8198 15.1199 23.9199 15.2899 25.0199C15.3599 25.4299 15.4799 25.7299 15.9899 25.7699C16.6199 25.8199 17.2399 25.9298 17.8699 25.9698C18.7099 26.0298 18.8799 26.2099 18.8499 27.0499C18.7799 29.0799 18.7299 31.1099 18.6099 33.1399C18.5599 34.0899 18.5599 35.0299 18.5099 35.9698C18.3899 38.5398 18.2399 41.1098 18.2399 43.6898C18.2399 44.6198 18.3299 45.5499 18.6699 46.4299C18.8699 46.9499 19.1999 47.3298 19.7699 47.4598C20.7299 47.6798 21.4799 47.1499 21.7199 46.0399C21.9999 44.7299 21.9699 43.3899 21.9999 42.0599Z" fill="url(#paint1_linear_213_3)"/>
<defs>
<linearGradient id="paint0_linear_213_3" x1="0.519943" y1="24.72" x2="12.15" y2="24.72" gradientUnits="userSpaceOnUse">
<stop stop-color="#009994"/>
<stop offset="1" stop-color="#00DDA8"/>
</linearGradient>
<linearGradient id="paint1_linear_213_3" x1="13.9599" y1="24.9699" x2="23.1599" y2="24.9699" gradientUnits="userSpaceOnUse">
<stop stop-color="#009994"/>
<stop offset="1" stop-color="#00DDA8"/>
</linearGradient>
</defs>
</svg>