<svg width="85" height="85" viewBox="0 0 85 85" fill="none" xmlns="http://www.w3.org/2000/svg">
<path d="M60.0302 0H25.3502C11.6204 0 0.490234 11.1302 0.490234 24.86V59.54C0.490234 73.2698 11.6204 84.4 25.3502 84.4H60.0302C73.76 84.4 84.8902 73.2698 84.8902 59.54V24.86C84.8902 11.1302 73.76 0 60.0302 0Z" fill="url(#paint0_linear_691_1303)"/>
<path d="M54.5107 67.6903H30.8407C30.6007 67.6403 30.3607 67.5803 30.1107 67.5403C24.2107 66.4703 20.1907 63.1203 18.0407 57.5303C17.6107 56.4103 17.4507 55.2303 17.2207 54.0603C17.2207 46.1703 17.2207 38.2803 17.2207 30.3903C17.2507 30.2303 17.2907 30.0703 17.3207 29.9003C17.7107 27.1603 18.7207 24.6903 20.4607 22.5403C23.3707 18.9403 27.1407 16.8503 31.7807 16.7803C39.0507 16.6603 46.3307 16.7103 53.6107 16.7603C56.5307 16.7803 59.2307 17.7303 61.6007 19.4303C65.9707 22.5603 68.1807 26.8403 68.1807 32.2403C68.1807 38.9003 68.1807 45.5603 68.1807 52.2303C68.1807 53.1403 68.1507 54.0503 67.9807 54.9503C66.9407 60.4903 63.8107 64.3603 58.6507 66.6103C57.3307 67.1803 55.9307 67.4303 54.5307 67.6903H54.5107ZM22.4007 42.2103C22.4007 45.5203 22.4007 48.8403 22.4007 52.1503C22.4007 52.7803 22.4207 53.4103 22.5107 54.0303C23.1907 58.7403 27.3207 62.4503 32.0807 62.4803C39.1607 62.5303 46.2307 62.5003 53.3107 62.4803C54.9707 62.4803 56.5307 62.0203 57.9407 61.1703C61.1707 59.2203 62.9107 56.3403 62.9307 52.5603C62.9807 45.6703 62.9407 38.7703 62.9407 31.8703C62.9407 31.3703 62.9007 30.8803 62.8307 30.3903C62.1607 25.7103 58.0107 21.9903 53.2907 21.9603C46.1807 21.9103 39.0707 21.9403 31.9607 21.9603C30.6807 21.9603 29.4507 22.2603 28.3107 22.8103C24.4807 24.6703 22.4707 27.7403 22.4007 32.0103C22.3507 35.4103 22.3907 38.8103 22.3907 42.2003L22.4007 42.2103Z" fill="white"/>
<path d="M42.6109 55.45C35.0809 55.29 29.4309 49.36 29.4709 42.18C29.5109 34.62 35.5609 28.96 42.7409 29.02C50.3609 29.08 55.9609 35.2 55.8809 42.31C55.8009 49.91 49.7109 55.4 42.6109 55.44V55.45ZM42.7509 34.24C38.4309 34.11 34.7609 37.69 34.7009 42.17C34.6309 46.53 38.1209 50.16 42.5909 50.22C46.9209 50.28 50.5809 46.85 50.6909 42.31C50.7909 38 47.2609 34.37 42.7609 34.23L42.7509 34.24Z" fill="white"/>
<path d="M52.6895 29.17C52.6895 27.39 54.0795 25.98 55.8695 25.98C57.6495 25.98 59.0795 27.41 59.0695 29.16C59.0495 30.92 57.6095 32.35 55.8495 32.34C54.0995 32.33 52.6995 30.92 52.6895 29.17Z" fill="white"/>
<defs>
<linearGradient id="paint0_linear_691_1303" x1="0.490234" y1="42.2" x2="84.8902" y2="42.2" gradientUnits="userSpaceOnUse">
<stop stop-color="#009994"/>
<stop offset="1" stop-color="#00DDA8"/>
</linearGradient>
</defs>
</svg>
