<svg width="66" height="117" viewBox="0 0 66 117" fill="none" xmlns="http://www.w3.org/2000/svg">
<path d="M44.4258 29.9326L53.0861 1.67428L47.4658 0L0 116.395L66 117L44.4258 29.9326ZM62.564 114.553L49.484 114.424L45.8564 47.0627L62.564 114.553ZM3.88315 114.012L49.1136 3.0525L49.7778 3.21995L41.6923 29.572L41.5901 29.8682L43.7488 38.562L40.8237 38.3559C39.8274 38.2915 38.9204 38.7939 38.4989 39.5667L40.5682 40.0303V40.0948L38.4989 39.5538L16.235 114.102L3.88315 113.999V114.012ZM19.0323 114.141L40.07 43.8298L30.4517 114.244L19.0323 114.141ZM33.1725 114.282L42.893 43.0957L46.7505 114.424L33.1725 114.295V114.282Z" fill="url(#paint0_linear_1_190)"/>
<defs>
<linearGradient id="paint0_linear_1_190" x1="-0.0127734" y1="58.5" x2="66" y2="58.5" gradientUnits="userSpaceOnUse">
<stop stop-color="white"/>
<stop offset="1" stop-color="#00DDA8"/>
</linearGradient>
</defs>
</svg>
