<svg width="40" height="149" viewBox="0 0 40 149" fill="none" xmlns="http://www.w3.org/2000/svg">
<path d="M27.24 0.00997925L26.73 4.37L19.72 24.18L12.31 4.32999L11.8 0L0 2.97V3.25998L1.42001 141.88L19.51 148.51V148.14V147.46H19.5L18.46 147.08L16.81 125.9L18.41 101.77V101.75L15.83 78.48L17.94 53.92V53.9L14.92 27.28L14.65 24.94L12.95 9.94L19.75 28.17L26.04 10.42L24.39 24.96L24.12 27.3L21.1 53.92V53.94L23.21 78.5L20.63 101.77V101.79L22.23 125.92L20.58 147.1L19.51 147.47V148.15L19.53 148.52H19.52L37.62 141.89L39.04 3.26999V2.97998L27.24 0.00997925ZM2.13 60.15L14.24 78.5L2.53 98.57L2.14 60.15H2.13ZM2.96 141.4L2.6 106.32L14.95 125.9L4.7 142.04L2.96 141.4ZM16.87 146.5L6.04 142.53L15.41 127.77L16.87 146.5ZM16.86 101.78L15.39 123.99L2.79 104.01L2.94 100.65L14.54 80.77L16.87 101.78H16.86ZM16.39 53.93L14.47 76.34L2.14 57.66L2.11 50.49L13.64 29.67L16.39 53.93ZM13.36 27.25L2 47.77L1.55 3.54999L10.66 1.25998L11.47 3.59M22.17 101.79L24.5 80.78L36.1 100.66L36.25 104.02L23.65 124L22.18 101.79H22.17ZM22.17 146.51L23.63 127.78L33 142.54L22.17 146.51ZM36.07 141.41L34.33 142.05L24.08 125.91L36.43 106.33L36.07 141.41ZM36.51 98.58L24.8 78.51L36.91 60.16L36.52 98.58H36.51ZM36.9 57.68L24.57 76.36L22.65 53.95L25.4 29.69L36.93 50.51L36.9 57.68ZM27.57 3.59L28.38 1.25998L37.49 3.54999L37.04 47.77L25.68 27.25" fill="url(#paint0_linear_408_5)"/>
<defs>
<linearGradient id="paint0_linear_408_5" x1="0" y1="74.26" x2="39.04" y2="74.26" gradientUnits="userSpaceOnUse">
<stop stop-color="white"/>
<stop offset="1" stop-color="#00DDA8"/>
</linearGradient>
</defs>
</svg>
