<svg width="40" height="149" viewBox="0 0 40 149" fill="none" xmlns="http://www.w3.org/2000/svg">
<path d="M27.24 0.00994873L26.73 4.37L19.72 24.18L12.31 4.32996L11.8 0L0 2.96997V3.25995L1.42 141.88L19.51 148.51V148.14V147.46H19.5L18.46 147.08L16.81 125.9L18.41 101.77V101.75L15.83 78.4799L17.94 53.92V53.9L14.92 27.28L14.65 24.94L12.95 9.94L19.75 28.17L26.04 10.42L24.39 24.96L24.12 27.3L21.1 53.92V53.94L23.21 78.4999L20.63 101.77V101.79L22.23 125.92L20.58 147.1L19.51 147.47V148.15L19.53 148.52H19.52L37.62 141.89L39.04 3.26996V2.97998L27.24 0.00994873ZM2.14 60.16L14.25 78.5099L2.54 98.58L2.15 60.16H2.14ZM2.97 141.41L2.61 106.33L14.96 125.91L4.71 142.05L2.97 141.41ZM16.88 146.51L6.05 142.54L15.42 127.78L16.88 146.51ZM16.87 101.79L15.4 124L2.8 104.02L2.95 100.66L14.55 80.78L16.88 101.79H16.87ZM16.4 53.94L14.48 76.35L2.15 57.67L2.12 50.4999L13.65 29.68L16.4 53.94ZM13.37 27.2599L2.01 47.78L1.56 3.56L10.67 1.26996L11.48 3.59998M22.18 101.8L24.51 80.79L36.11 100.67L36.26 104.03L23.66 124.01L22.19 101.8H22.18ZM22.17 146.51L23.63 127.78L33 142.54L22.17 146.51ZM36.08 141.42L34.34 142.06L24.09 125.92L36.44 106.34L36.08 141.42ZM36.52 98.59L24.81 78.52L36.92 60.17L36.53 98.59H36.52ZM36.9 57.68L24.57 76.3599L22.65 53.95L25.4 29.69L36.93 50.5099L36.9 57.68ZM27.58 3.59998L28.39 1.26996L37.5 3.56L37.05 47.78L25.69 27.2599" fill="url(#paint0_linear_111_673)"/>
<defs>
<linearGradient id="paint0_linear_111_673" x1="0.01" y1="74.27" x2="39.04" y2="74.27" gradientUnits="userSpaceOnUse">
<stop/>
<stop offset="1" stop-color="#00DDA8"/>
</linearGradient>
</defs>
</svg>
