<svg width="59" height="59" viewBox="0 0 59 59" fill="none" xmlns="http://www.w3.org/2000/svg">
<path d="M58.1217 30.1304C58.1217 27.1504 55.6017 24.6504 52.6017 24.6404C46.5317 24.6204 40.4617 24.6404 34.4017 24.6404C33.8151 24.6404 33.5217 24.3504 33.5217 23.7704C33.5217 17.7804 33.5217 11.7804 33.5217 5.79041C33.5217 2.44041 31.1117 0.0304049 27.7717 0.0304049C20.4917 0.0304049 13.2117 0.0803756 5.93172 0.000375631C3.14172 -0.0296244 0.751724 1.74036 0.141724 4.23036C0.111724 4.36036 0.0617188 4.48036 0.0117188 4.61036V29.0004C0.341719 30.1804 0.841723 31.2703 1.78172 32.1003C2.90172 33.1003 4.22172 33.5704 5.72172 33.5704H23.6217C24.2617 33.5704 24.5817 33.8904 24.5817 34.5304C24.5817 40.2904 24.6517 46.0504 24.5517 51.8104C24.4917 54.9204 26.0917 57.4504 29.2717 58.1504H53.4317C54.8317 57.8104 56.0517 57.1904 56.9417 56.0204C57.6817 55.0404 58.1117 53.9503 58.1117 52.7203C58.1117 45.2003 58.1217 37.6704 58.1117 30.1504L58.1217 30.1304ZM55.5217 52.1104C55.5217 52.5404 55.4717 52.9804 55.3717 53.4004C55.0517 54.6504 53.9517 55.4904 52.6017 55.5004C48.8417 55.5104 45.0817 55.5004 41.3217 55.5004C37.7117 55.5004 34.1017 55.4604 30.4917 55.5204C28.4517 55.5604 27.2317 54.0604 27.2417 52.2704C27.2817 45.0604 27.2817 37.8404 27.2417 30.6304C23.7217 30.6404 20.2017 30.6304 16.6917 30.6304C13.0817 30.6304 9.47172 30.5904 5.86172 30.6504C3.82172 30.6904 2.60172 29.1904 2.61172 27.4004C2.65172 20.1604 2.65172 12.9304 2.61172 5.69044C2.60172 3.92044 3.79172 2.39041 5.89172 2.41041C13.1117 2.46041 20.3317 2.46041 27.5417 2.41041C29.3617 2.40041 30.8917 3.46044 30.8917 5.69044C30.8917 12.8704 30.8917 20.0504 30.8917 27.2304C30.8917 27.2404 30.8917 27.2604 30.8917 27.2704C37.9917 27.3204 45.0817 27.3104 52.1817 27.2704C54.0117 27.2604 55.5317 28.3204 55.5317 30.5604C55.5317 37.7404 55.5317 44.9203 55.5317 52.1003L55.5217 52.1104Z" fill="url(#paint0_linear_699_1309)"/>
<path d="M0 38.6302C0.34 37.6802 0.690007 37.3902 1.71001 37.3802C3.26001 37.3602 4.81 37.3602 6.36 37.3802C7.36 37.3902 7.93 37.8602 7.98 38.6102C8.04 39.4102 7.49001 40.0002 6.63 40.0202C5.5 40.0402 4.36 40.0402 3.23 40.0202C2.78 40.0202 2.63 40.1702 2.68 40.6302C3.02 43.9902 4.22 47.0002 6.4 49.6002C9.11 52.8302 12.57 54.7502 16.74 55.3802C17.47 55.4902 18.21 55.4603 18.94 55.5403C19.55 55.6103 20.04 55.8602 20.22 56.4902C20.41 57.1302 20.17 57.6402 19.64 58.0202C19.59 58.0502 19.56 58.1002 19.52 58.1402H17.14C15.47 57.8502 13.79 57.5603 12.21 56.9003C5.85001 54.2503 1.92 49.5702 0.410004 42.8502C0.160004 41.7202 0.110002 40.5703 0.0100021 39.4303V38.6402L0 38.6302Z" fill="url(#paint1_linear_699_1309)"/>
<path d="M54.0397 20.8393C53.2297 20.8393 52.4097 20.8593 51.5997 20.8393C50.7797 20.8193 50.2397 20.4093 50.1197 19.7693C49.9497 18.9093 50.5497 18.2093 51.5197 18.1793C52.5997 18.1493 53.6697 18.1793 54.7497 18.1693C55.3897 18.1693 55.4797 18.0693 55.4097 17.4394C54.6797 10.2593 49.4397 4.43927 42.3697 2.97927C41.5797 2.81927 40.7697 2.68935 39.9597 2.68935C39.5997 2.68935 39.2397 2.64937 38.8897 2.57937C38.1897 2.43937 37.7897 1.88934 37.8497 1.17934C37.8997 0.529341 38.3897 0.0493066 39.0897 0.0193066C40.4397 -0.0406934 41.7697 0.139351 43.0797 0.439351C48.6697 1.73935 52.8897 4.89929 55.7097 9.87929C57.1097 12.3593 57.8997 15.0493 58.0197 17.9193C58.0397 18.3193 58.0997 18.7093 58.0997 19.1093C58.1097 20.2793 57.5797 20.8193 56.4197 20.8393C55.6297 20.8493 54.8297 20.8393 54.0397 20.8393Z" fill="url(#paint2_linear_699_1309)"/>
<path d="M48.7801 49.0501C48.0101 46.9601 47.2101 44.8701 46.4301 42.7901C45.2101 39.5401 43.9801 36.2801 42.7601 33.0301C42.4401 32.1801 41.8801 31.8001 41.1401 31.9201C40.4801 32.0301 40.1701 32.5 39.9601 33.09C38.6101 36.78 37.2501 40.4701 35.9001 44.1601C35.3001 45.7901 34.6901 47.4201 34.1101 49.0601C33.7701 50.0101 34.1501 50.77 35.0101 50.98C35.6701 51.14 36.2701 50.78 36.5801 49.99C37.0001 48.92 37.4001 47.84 37.7901 46.75C37.9201 46.39 38.1301 46.25 38.5001 46.25C39.4801 46.26 40.4601 46.25 41.4501 46.25C42.3801 46.25 43.3001 46.27 44.2301 46.25C44.7201 46.24 44.9801 46.4001 45.1501 46.8801C45.5201 47.9701 45.9301 49.05 46.3701 50.12C46.7001 50.94 47.4401 51.2301 48.1601 50.9001C48.8201 50.5901 49.0801 49.8801 48.7801 49.0601V49.0501ZM43.1701 43.59C41.9401 43.57 40.7101 43.58 39.4901 43.59C39.1401 43.59 38.9201 43.53 39.0801 43.1C39.8101 41.11 40.5301 39.1301 41.2501 37.1401C41.3001 37.1401 41.3501 37.12 41.3901 37.12C41.5901 37.66 41.7801 38.21 41.9801 38.75C42.5001 40.17 43.0101 41.5901 43.5401 43.0101C43.6901 43.4101 43.6701 43.6 43.1701 43.59Z" fill="url(#paint3_linear_699_1309)"/>
<path d="M10.4414 24.4695V8.08948C10.4414 7.35948 11.0314 6.76953 11.7614 6.76953H20.4114C21.2914 6.76953 22.0114 7.48951 22.0114 8.36951C22.0114 9.26951 21.2914 9.9895 20.4114 9.9895H13.5814V14.2095H19.8114C20.6914 14.2095 21.4114 14.9296 21.4114 15.8096C21.4114 16.6896 20.6914 17.4095 19.8114 17.4095H13.5814V22.5696H20.7014C21.5814 22.5696 22.3014 23.2896 22.3014 24.1696C22.3014 25.0696 21.5814 25.7896 20.7014 25.7896H11.7614C11.0314 25.7896 10.4414 25.1995 10.4414 24.4695Z" fill="url(#paint4_linear_699_1309)"/>
<defs>
<linearGradient id="paint0_linear_699_1309" x1="0.00171875" y1="29.0704" x2="58.1217" y2="29.0704" gradientUnits="userSpaceOnUse">
<stop stop-color="#009994"/>
<stop offset="1" stop-color="#00DDA8"/>
</linearGradient>
<linearGradient id="paint1_linear_699_1309" x1="0" y1="47.7502" x2="20.28" y2="47.7502" gradientUnits="userSpaceOnUse">
<stop stop-color="#009994"/>
<stop offset="1" stop-color="#00DDA8"/>
</linearGradient>
<linearGradient id="paint2_linear_699_1309" x1="37.8397" y1="10.4293" x2="58.0997" y2="10.4293" gradientUnits="userSpaceOnUse">
<stop stop-color="#009994"/>
<stop offset="1" stop-color="#00DDA8"/>
</linearGradient>
<linearGradient id="paint3_linear_699_1309" x1="33.9801" y1="41.4501" x2="48.9001" y2="41.4501" gradientUnits="userSpaceOnUse">
<stop stop-color="#009994"/>
<stop offset="1" stop-color="#00DDA8"/>
</linearGradient>
<linearGradient id="paint4_linear_699_1309" x1="10.4414" y1="16.2795" x2="22.3014" y2="16.2795" gradientUnits="userSpaceOnUse">
<stop stop-color="#009994"/>
<stop offset="1" stop-color="#00DDA8"/>
</linearGradient>
</defs>
</svg>
