<svg width="141" height="88" viewBox="0 0 141 88" fill="none" xmlns="http://www.w3.org/2000/svg">
<path d="M93.69 41.6301L92.79 41.4401L44.49 31.4401L44.29 31.4001L44.12 9.47008L9.46997 0.580078V0.620079L9.44 0.580078L0.659973 7.28008L0.23999 87.0901L3.89001 87.1101H5.23999V85.5401L5.27002 64.3001V58.9701L5.28003 54.5301V52.6501V51.0001V49.2601L5.33002 10.1901L6.15997 9.38007V48.8501V67.2301V85.5501V87.1301H7.51001L10.8 87.1601L44.71 87.3901V86.5901L44.64 79.1501H73.18L73.14 86.7001H128.39L140.93 51.4201L93.67 41.6401L93.69 41.6301ZM9.39001 47.3701V49.1101L9.38 55.3001V57.1801L9.34998 72.1701V77.4901L9.33002 85.5701H7.53003V66.2601V48.2301V6.16008L4 9.61008L3.94 49.8701V51.6101V51.7601V53.6401V54.6001V59.9301L3.89001 85.5301H1.83002L2 53.6701V52.3901V50.7801C2 50.7801 1.92 50.8001 1.88 50.8101L2.01001 50.7501L2.23999 8.06007L9.46997 2.54008L9.40002 47.3601L9.39001 47.3701ZM11.04 2.62008L42.55 10.7001L42.6 17.3701L11.03 10.3801V2.62008H11.04ZM17.35 43.7201V45.4601L17.3 60.4401V62.3201L17.25 77.5601V79.1401L17.23 85.6201L10.91 85.5801V79.1401L10.92 77.2601L10.95 58.2001V56.3201L10.97 48.3801V46.6401L11.03 11.9901L42.62 18.9801L42.68 26.6901L20.05 22.3601L17.43 23.3901L17.37 43.7201H17.35ZM43.21 78.9801C43.21 78.9801 43.12 78.9801 43.08 78.9701V79.1301L43.13 85.7801L18.8 85.6201L18.82 79.1301V77.5501L18.87 63.3301V61.4501L18.93 44.7201V42.9801L18.99 24.4601L20.19 23.9901L42.68 28.3001L42.71 32.0801L42.72 33.8101L42.85 49.6201V51.3401L43.07 77.1501V77.5501V77.7801V78.8601C43.11 78.9001 43.16 78.9401 43.21 78.9701H43.2L43.21 78.9801ZM137.69 52.3501L113.18 66.3201L94.6 43.4301L137.69 52.3501ZM125.7 84.2501L102.17 74.4201L112.8 68.3601L125.7 84.2501ZM111.8 67.1101L100.34 73.6401L69.19 60.6301L92.63 43.5001L111.8 67.1101ZM44.3 33.1001L44.42 33.0501L91.04 42.7001L67.48 59.9201L44.43 50.2901L44.29 33.1001H44.3ZM44.64 76.6201L44.45 52.0101L65.99 61.0101L44.64 76.6201ZM80.35 85.1101H74.75L74.79 77.5601H46.04L67.7 61.7301L98.61 74.6401L81.22 84.5501C81.13 84.6101 80.74 84.8401 80.35 85.1101ZM83.42 85.1101L100.44 75.4101L123.67 85.1101H83.42ZM127.64 84.1301L114.19 67.5701L138.44 53.7501L127.64 84.1401V84.1301Z" fill="url(#paint0_linear_548_75)"/>
<defs>
<linearGradient id="paint0_linear_548_75" x1="0.22999" y1="43.9801" x2="140.95" y2="43.9801" gradientUnits="userSpaceOnUse">
<stop stop-color="white"/>
<stop offset="1" stop-color="#00DDA8"/>
</linearGradient>
</defs>
</svg>
