<svg width="82" height="82" viewBox="0 0 82 82" fill="none" xmlns="http://www.w3.org/2000/svg">
<path d="M56.9008 0.240234H25.2408C11.511 0.240234 0.380859 11.3704 0.380859 25.1002V56.7602C0.380859 70.49 11.511 81.6202 25.2408 81.6202H56.9008C70.6306 81.6202 81.7609 70.49 81.7609 56.7602V25.1002C81.7609 11.3704 70.6306 0.240234 56.9008 0.240234Z" fill="url(#paint0_linear_691_1306)"/>
<path d="M66.9598 41.6797C67.0498 55.6397 55.5198 67.1597 41.4998 67.1497C27.4798 67.1497 15.9898 55.6297 16.0098 41.6297C16.0298 27.6697 27.5098 16.1497 41.5698 16.1797C55.5298 16.2197 67.0498 27.6997 66.9598 41.6697V41.6797ZM33.8798 41.6697C33.9598 43.2697 34.0498 44.8797 34.0998 46.4797C34.1198 47.0097 34.3898 47.0797 34.8298 47.0297C36.5698 46.8397 38.3098 46.7297 40.0598 46.7197C42.7998 46.6997 45.5298 46.7197 48.2498 47.0397C48.6398 47.0897 48.8498 46.9597 48.8698 46.5397C48.8898 45.9897 48.9498 45.4497 48.9798 44.8997C49.1098 42.2397 49.0698 39.5797 48.8798 36.9197C48.8398 36.3397 48.7398 36.2597 48.1498 36.3197C46.6598 36.4797 45.1598 36.5997 43.6698 36.6097C40.7098 36.6497 37.7398 36.6697 34.7898 36.3097C34.3498 36.2597 34.1298 36.3897 34.1098 36.8597C34.0498 38.4597 33.9598 40.0697 33.8798 41.6697ZM19.4998 41.6597C19.5298 42.1197 19.5598 42.5797 19.5798 43.0297C19.6898 45.2697 20.1898 47.4197 20.9598 49.5197C21.1098 49.9397 21.2798 49.9897 21.6898 49.8397C24.3798 48.8397 27.1398 48.1497 29.9698 47.6697C30.6798 47.5497 30.7098 47.5097 30.6498 46.7797C30.3498 43.3597 30.3498 39.9497 30.6498 36.5297C30.7098 35.8297 30.6798 35.7797 29.9998 35.6697C27.1598 35.1897 24.3698 34.4897 21.6698 33.4897C21.2298 33.3297 21.0998 33.4597 20.9498 33.8397C19.9898 36.3597 19.5498 38.9697 19.4998 41.6497V41.6597ZM63.4698 41.2797C63.4298 40.7297 63.3798 39.7997 63.2798 38.8697C63.0798 37.0897 62.6198 35.3697 61.9798 33.6997C61.8798 33.4497 61.7798 33.3197 61.4798 33.4397C58.6598 34.4997 55.7598 35.2197 52.7898 35.7097C52.4098 35.7697 52.2898 35.9397 52.3298 36.3097C52.4098 37.2897 52.5098 38.2797 52.5298 39.2597C52.5698 41.7797 52.6298 44.3097 52.3398 46.8197C52.2798 47.3197 52.3998 47.5797 52.9598 47.6697C55.8298 48.1197 58.6198 48.8397 61.3398 49.8497C61.7498 49.9997 61.8898 49.8997 62.0298 49.5297C62.9998 46.9997 63.4498 44.3697 63.4798 41.2797H63.4698ZM41.4898 33.0697C42.3398 33.0697 43.1798 33.0697 44.0298 33.0697C45.3198 33.0697 46.5998 32.9197 47.8798 32.8397C48.1598 32.8197 48.3598 32.7597 48.2898 32.3997C47.7198 29.1897 46.8998 26.0597 45.3398 23.1597C44.7298 22.0397 44.0098 20.9897 42.9498 20.2297C41.9598 19.5197 40.9998 19.5197 40.0098 20.2297C39.1498 20.8497 38.5098 21.6697 37.9698 22.5697C36.1698 25.6097 35.2898 28.9597 34.6698 32.3997C34.5998 32.7697 34.8098 32.8197 35.0798 32.8397C37.2098 33.0497 39.3398 33.0697 41.4698 33.0697H41.4898ZM41.4998 50.2597C40.7598 50.2597 40.0198 50.2597 39.2798 50.2597C37.8798 50.2597 36.4998 50.3997 35.1098 50.4997C34.8398 50.5197 34.6298 50.5697 34.6898 50.9397C35.2598 54.1697 36.0898 57.3197 37.6698 60.2197C38.2598 61.3097 38.9698 62.3297 39.9898 63.0797C41.0098 63.8297 41.9898 63.8297 43.0098 63.0797C43.8498 62.4697 44.4798 61.6597 45.0098 60.7697C46.8198 57.7297 47.6898 54.3797 48.3098 50.9397C48.3798 50.5797 48.1798 50.5197 47.8998 50.4897C45.7698 50.2797 43.6398 50.2597 41.5098 50.2597H41.4998ZM47.9998 20.6897C48.0998 20.8897 48.1298 20.9697 48.1698 21.0497C48.9798 22.4597 49.6198 23.9497 50.1498 25.4897C50.8598 27.5597 51.3598 29.6897 51.7498 31.8397C51.7998 32.1097 51.8098 32.3297 52.2298 32.2597C54.7698 31.8197 57.2698 31.2097 59.7098 30.3697C60.1198 30.2297 60.1798 30.0897 59.9298 29.7097C58.0598 26.8597 55.6698 24.5497 52.7398 22.7997C51.2898 21.9297 49.7598 21.2197 47.9998 20.6897ZM34.9998 62.6397C34.0898 61.0697 33.4098 59.5597 32.8698 57.9897C32.1498 55.8997 31.6198 53.7597 31.2498 51.5897C31.1798 51.1597 31.0598 51.0097 30.5798 51.0997C28.1098 51.5497 25.6898 52.1397 23.3098 52.9497C22.8298 53.1097 22.8098 53.2697 23.0798 53.6797C25.4198 57.2097 28.5098 59.8697 32.3498 61.6497C33.1598 62.0297 33.9798 62.3797 34.9998 62.6397ZM34.8998 20.7897C34.7698 20.6997 34.6698 20.7797 34.5798 20.8097C29.6898 22.4697 25.8398 25.4697 23.0098 29.7797C22.7498 30.1697 22.9598 30.2397 23.2598 30.3497C25.6098 31.1797 28.0298 31.7497 30.4698 32.2197C31.0298 32.3297 31.2498 32.1897 31.2698 31.6497C31.2698 31.5797 31.2798 31.5097 31.2998 31.4397C31.9998 27.7897 32.9698 24.2197 34.8498 20.9697C34.8798 20.9197 34.8798 20.8497 34.8998 20.7897ZM48.0298 62.5597C48.1498 62.5797 48.1898 62.5897 48.2198 62.5797C48.3698 62.5297 48.5198 62.4897 48.6698 62.4297C53.3798 60.7497 57.1198 57.8297 59.8998 53.6697C60.1798 53.2497 60.1198 53.0997 59.6598 52.9397C57.3398 52.1397 54.9598 51.5497 52.5398 51.1297C51.8298 50.9997 51.8298 51.0197 51.6898 51.7497C51.2498 54.2197 50.6298 56.6397 49.7298 58.9897C49.2598 60.2097 48.6898 61.3797 48.0198 62.5597H48.0298Z" fill="white"/>
<defs>
<linearGradient id="paint0_linear_691_1306" x1="0.380859" y1="40.9302" x2="81.7509" y2="40.9302" gradientUnits="userSpaceOnUse">
<stop stop-color="#009994"/>
<stop offset="1" stop-color="#00DDA8"/>
</linearGradient>
</defs>
</svg>
