<svg xmlns="http://www.w3.org/2000/svg" width="44" height="43" viewBox="0 0 44 43" fill="none">
<path d="M28.7398 26.6268C24.7434 26.6268 20.747 26.6268 16.7507 26.6268C15.0209 26.6268 13.9234 25.5412 13.9114 23.8114C13.9114 22.2129 13.9114 20.6263 13.9114 19.0277C13.9114 17.3218 15.0209 16.2362 16.7268 16.2362C24.7315 16.2362 32.7362 16.2362 40.7409 16.2362C42.4707 16.2362 43.5324 17.2979 43.5324 19.0396C43.5324 20.6978 43.5324 22.3441 43.5324 24.0023C43.5324 25.5412 42.423 26.6507 40.896 26.6507C36.8399 26.6507 32.7958 26.6507 28.7398 26.6507V26.6268Z" fill="url(#paint0_linear_102_202)"/>
<path d="M28.7518 42.8388C24.7435 42.8388 20.7351 42.8388 16.7268 42.8388C15.0209 42.8388 13.9353 41.7532 13.9234 40.0353C13.9234 38.4368 13.9234 36.8502 13.9234 35.2516C13.9234 33.5576 15.0448 32.4362 16.7388 32.4362C24.7435 32.4362 32.7482 32.4362 40.7529 32.4243C42.3395 32.4243 43.6159 33.6292 43.5563 35.2397C43.4966 36.886 43.5563 38.5442 43.5444 40.2024C43.5444 41.7413 42.4468 42.8388 40.9079 42.8388C36.8519 42.8388 32.8078 42.8388 28.7518 42.8388Z" fill="url(#paint1_linear_102_202)"/>
<path d="M28.7159 0C32.7362 0 36.7683 0 40.7886 0C42.4826 0 43.5324 1.0498 43.5443 2.73186C43.5443 4.40199 43.5443 6.06019 43.5443 7.73032C43.5443 9.24537 42.4349 10.3906 40.9079 10.3906C32.8078 10.3906 24.6957 10.3906 16.5956 10.3906C15.0924 10.3906 13.9591 9.26923 13.9234 7.74225C13.8995 6.04826 13.8995 4.35427 13.9234 2.66028C13.9472 1.06173 15.0567 0 16.6433 0C20.6635 0 24.6957 0 28.7159 0Z" fill="url(#paint2_linear_102_202)"/>
<path d="M0.693542 5.17744C0.693542 4.30658 0.693542 3.4238 0.693542 2.55295C0.705472 1.13334 1.81492 0.0238924 3.24646 0.0119629C5.00009 0.0119629 6.75373 0.0119629 8.50737 0.0119629C9.90312 0.0119629 11.0603 1.10948 11.0841 2.50523C11.1199 4.30658 11.1199 6.09601 11.0841 7.89736C11.0603 9.29312 9.91505 10.3906 8.51929 10.4145C6.76566 10.4383 5.01202 10.4383 3.25838 10.4145C1.81491 10.4026 0.705472 9.25733 0.693542 7.81386C0.693542 6.943 0.693542 6.06022 0.693542 5.18937V5.17744Z" fill="url(#paint3_linear_102_202)"/>
<path d="M0.693542 21.3777C0.693542 20.5188 0.693542 19.6479 0.693542 18.789C0.705472 17.3694 1.81492 16.2361 3.23453 16.2242C5.00009 16.2122 6.76566 16.2122 8.53123 16.2242C9.90312 16.2242 11.0484 17.3336 11.0841 18.7055C11.1199 20.5188 11.1199 22.3321 11.0841 24.1334C11.0603 25.5053 9.90312 26.6028 8.54315 26.6148C6.76566 26.6267 4.97623 26.6267 3.19874 26.6148C1.83877 26.6028 0.717399 25.4576 0.70547 24.0976C0.70547 23.191 0.70547 22.2843 0.70547 21.3777H0.693542Z" fill="url(#paint4_linear_102_202)"/>
<path d="M1 37.1625C1 36.3036 1 35.4327 1 34.5738C1.01193 33.1542 2.12137 32.0209 3.54099 32.0089C5.30655 31.997 7.07212 31.997 8.83768 32.0089C10.2096 32.0089 11.3548 33.1184 11.3906 34.4903C11.4264 36.3036 11.4264 38.1169 11.3906 39.9182C11.3667 41.2901 10.2096 42.3876 8.84961 42.3995C7.07211 42.4115 5.28269 42.4115 3.50519 42.3995C2.14523 42.3876 1.02386 41.2424 1.01193 39.8824C1.01193 38.9758 1.01193 38.0691 1.01193 37.1625H1Z" fill="url(#paint5_linear_102_202)"/>
<defs>
<linearGradient id="paint0_linear_102_202" x1="13.9114" y1="21.4255" x2="43.5443" y2="21.4255" gradientUnits="userSpaceOnUse">
<stop stop-color="#009994"/>
<stop offset="1" stop-color="#00DDA8"/>
</linearGradient>
<linearGradient id="paint1_linear_102_202" x1="13.9115" y1="37.6375" x2="43.5563" y2="37.6375" gradientUnits="userSpaceOnUse">
<stop stop-color="#009994"/>
<stop offset="1" stop-color="#00DDA8"/>
</linearGradient>
<linearGradient id="paint2_linear_102_202" x1="13.8995" y1="5.20126" x2="43.5443" y2="5.20126" gradientUnits="userSpaceOnUse">
<stop stop-color="#009994"/>
<stop offset="1" stop-color="#00DDA8"/>
</linearGradient>
<linearGradient id="paint3_linear_102_202" x1="0.693542" y1="5.21323" x2="11.108" y2="5.21323" gradientUnits="userSpaceOnUse">
<stop stop-color="#009994"/>
<stop offset="1" stop-color="#00DDA8"/>
</linearGradient>
<linearGradient id="paint4_linear_102_202" x1="0.693542" y1="21.4254" x2="11.108" y2="21.4254" gradientUnits="userSpaceOnUse">
<stop stop-color="#009994"/>
<stop offset="1" stop-color="#00DDA8"/>
</linearGradient>
<linearGradient id="paint5_linear_102_202" x1="1" y1="37.2102" x2="11.4145" y2="37.2102" gradientUnits="userSpaceOnUse">
<stop stop-color="#009994"/>
<stop offset="1" stop-color="#00DDA8"/>
</linearGradient>
</defs>
</svg>