<svg width="39" height="49" viewBox="0 0 39 49" fill="none" xmlns="http://www.w3.org/2000/svg">
<path d="M19.0299 0.509712C28.0399 0.419712 36.2599 6.91973 37.7799 16.6497C38.6299 22.0997 37.2399 27.0097 33.8499 31.3497C29.7999 36.5397 25.7199 41.6997 21.6399 46.8697C20.1799 48.7197 17.7599 48.6897 16.2899 46.8297C12.3199 41.7897 8.33993 36.7597 4.38993 31.7097C1.84993 28.4697 0.339933 24.7997 0.259933 20.6597C0.109933 12.6197 3.46993 6.49974 10.5299 2.53974C12.7299 1.30974 15.8099 0.449722 19.0299 0.519722V0.509712ZM18.7899 3.81965C17.4999 3.77965 16.0299 3.99975 14.5999 4.41975C7.35993 6.52975 3.14993 13.8198 3.55993 20.5598C3.75993 23.9598 4.89993 26.9797 6.98993 29.6397C10.8799 34.5997 14.7899 39.5397 18.6799 44.4897C18.9399 44.8197 19.0599 44.8197 19.3199 44.4897C23.2699 39.4797 27.2299 34.4697 31.1899 29.4697C34.1899 25.6697 35.4399 21.3897 34.4899 16.5997C32.9899 9.05968 26.7399 3.72976 18.8099 3.80976L18.7899 3.81965Z" fill="url(#paint0_linear_215_4)"/>
<path d="M27.6999 19.01C27.7799 23.25 24.3799 27.7 18.9999 27.72C13.8599 27.73 10.2499 23.53 10.2699 18.99C10.2899 14.2 14.1999 10.27 18.9799 10.27C23.7899 10.27 27.6999 14.19 27.6999 19.02V19.01ZM24.3999 18.98C24.3999 15.94 22.0299 13.5701 18.9999 13.5601C15.9599 13.5601 13.5899 15.92 13.5799 18.95C13.5699 21.97 16.0099 24.43 18.9999 24.42C21.9899 24.41 24.3899 21.98 24.3899 18.97L24.3999 18.98Z" fill="url(#paint1_linear_215_4)"/>
<defs>
<linearGradient id="paint0_linear_215_4" x1="0.259933" y1="24.3697" x2="38.0299" y2="24.3697" gradientUnits="userSpaceOnUse">
<stop stop-color="#009994"/>
<stop offset="1" stop-color="#00DDA8"/>
</linearGradient>
<linearGradient id="paint1_linear_215_4" x1="10.2699" y1="18.98" x2="27.6999" y2="18.98" gradientUnits="userSpaceOnUse">
<stop stop-color="#009994"/>
<stop offset="1" stop-color="#00DDA8"/>
</linearGradient>
</defs>
</svg>
