<svg width="47" height="54" viewBox="0 0 47 54" fill="none" xmlns="http://www.w3.org/2000/svg">
<path d="M32.7 53.48H7.11C3.39 52.79 0.5 49.9 0.02 46.1L0 7.68C0.32 3.67 3.56 0.36 7.57 0H32.43C35.15 0.55 35.26 4.23 32.61 4.99L8.31 5.03C6.22 5.23 5.06 6.65999 5 8.71999C5.11 21.13 4.8 33.57 5.15 45.96C5.62 47.49 6.83 48.33 8.4 48.46L32.6 48.49C35.16 49.27 35.15 52.56 32.68 53.48H32.7Z" fill="#FF494C"/>
<path d="M37.9195 29.2602H17.7095C17.6495 29.2602 16.8995 28.9002 16.7895 28.8202C15.4295 27.9102 15.4295 25.5902 16.7895 24.6802C16.8995 24.6102 17.6495 24.2402 17.7095 24.2402H37.9195L30.2895 16.5702C28.3595 14.4202 30.7595 11.2702 33.3495 12.5702C37.6995 16.5902 41.7595 20.9402 46.0095 25.0802C46.7995 26.1102 46.7995 27.4002 46.0095 28.4302L33.8395 40.6002C31.2495 42.5902 28.1995 39.3702 30.2795 36.9402L37.9095 29.2702L37.9195 29.2602Z" fill="#FF494C"/>
</svg>
