<svg width="829" height="370" viewBox="0 0 829 370" fill="none" xmlns="http://www.w3.org/2000/svg">
<path d="M626.666 103V203.667H727.333H827.999V103V2.33337H727.333H626.666V103ZM737.083 35.3334C737.567 40.3547 737.321 40.264 743.538 37.6667C750.534 34.744 759.703 35.1627 765.895 38.688C772.835 42.64 773.081 44.2414 767.037 46.1294C762.381 47.5854 754.942 52.5787 756.143 53.4414C756.431 53.648 761.343 55.2467 767.058 56.9947C772.774 58.7427 780.369 61.84 783.935 63.876C789.847 67.2534 790.678 68.356 793.346 76.3747C794.957 81.212 795.93 85.5134 795.51 85.9334C795.09 86.3534 791.879 85.4747 788.373 83.98C780.427 80.5947 762.883 75.36 761.349 75.9174C760.719 76.1467 764.39 81.4334 769.506 87.6667C780.541 101.111 793.346 119.613 793.338 122.101C793.331 124.115 783.23 141.827 781.467 142.917C780.83 143.311 777.125 138.991 773.234 133.316C769.342 127.643 761.781 117.6 756.431 111C743.579 95.1414 741.717 93 740.786 93C740.353 93 739.999 111.6 739.999 134.333V175.667H726.685H713.37L713.018 134.14L712.666 92.6147L702.286 105.14C696.578 112.029 687.878 123.512 682.953 130.657C678.029 137.803 673.669 143.652 673.265 143.657C672.861 143.663 669.661 138.92 666.154 133.12C660.434 123.659 659.949 122.251 661.442 119.453C664.442 113.828 680.223 92.508 687.683 84C691.703 79.4174 694.255 75.6667 693.354 75.6667C689.857 75.6667 675.634 79.9014 667.975 83.2227C663.551 85.1414 659.591 86.3707 659.175 85.9547C658.206 84.984 662.453 70.232 664.375 67.896C666.581 65.2147 676.862 60.364 687.687 56.8974C693.015 55.1907 697.191 53.1654 696.966 52.3974C696.742 51.6294 693.462 49.5 689.678 47.6667C685.894 45.8334 682.965 43.7334 683.169 43C683.373 42.2667 685.894 40.3267 688.77 38.688C694.878 35.2107 705.502 34.7147 710.666 37.6667C715.35 40.344 715.597 40.2307 716.589 34.9427L717.475 30.22L727.07 30.6094L736.666 31L737.083 35.3334Z" fill="white" stroke="black" stroke-width="1.33333"/>
<path d="M251.35 3.152C234.115 7.31866 216.827 18.448 204.801 33.1213C197.939 41.4907 190.042 57.5173 187.993 67.2267C187.245 70.7693 186.155 93.4667 185.57 117.667C184.351 168.163 184.187 168.903 171.386 181.732C163.458 189.677 155.247 193.941 144.486 195.704C140.186 196.408 107.418 196.988 71.6673 196.992C20.5647 196.999 6.66598 197.356 6.65798 198.667C6.65398 199.584 5.45398 208.337 3.99132 218.12C2.52998 227.903 1.33398 236.784 1.33398 237.856C1.33398 239.549 11.478 239.753 78.334 239.403L155.334 239L165.462 235.412C179.401 230.473 189.938 223.992 199.043 214.755C207.815 205.856 210.523 202.136 216.085 191.343C223.765 176.435 224.327 172.263 225.205 123.667L226.01 79L229.906 71.296C234.711 61.796 244.302 52.628 254.377 47.9067L262.001 44.3333L411.667 43.9773L561.334 43.6213V22.3107V1L410.334 1.11067C283.389 1.204 258.062 1.52933 251.35 3.152Z" fill="white" stroke="black" stroke-width="1.33333"/>
<path d="M480.666 87.264C467.901 88.956 453.097 95.9507 443.526 104.809C437.294 110.579 429.12 123.548 425.816 132.907C415.457 162.247 430.169 197.24 458.99 211.821C471.464 218.132 479.786 219.667 501.534 219.667C512.337 219.667 521.469 220.141 521.828 220.72C523.006 222.629 518.289 230.531 511.6 237.851C507.001 242.883 501.954 246.549 494.842 250.025L484.666 255L452.922 255.44C421.781 255.872 421.157 255.935 420.05 258.773C418.901 261.723 413.417 297.349 414.005 298.053C414.182 298.265 429.554 298.453 448.164 298.472C477.976 298.501 483.237 298.183 492.4 295.789C521.813 288.111 546.358 264.983 556.912 235L560.666 224.333L561.066 155.333L561.466 86.3334L523.066 86.5334C501.946 86.6427 482.866 86.972 480.666 87.264ZM525.03 153.333L525.394 177H505.321C483.937 177 478.561 175.853 472.225 169.936C459.272 157.841 465.528 134.472 482.83 130.319C485.306 129.724 495.733 129.335 506 129.452L524.666 129.667L525.03 153.333Z" fill="white" stroke="black" stroke-width="1.33333"/>
<path d="M321.986 88.6667C322.503 89.9507 324.909 96.4 327.334 103C329.758 109.6 336.057 126.4 341.331 140.333C350.206 163.773 350.883 166.288 350.398 173.985C349.655 185.787 343.605 193.163 332.563 195.724C329.686 196.391 310.694 196.951 290.358 196.968L253.383 197L252.731 200C251.683 204.823 246.666 236.479 246.666 238.268C246.666 239.533 257.205 239.785 293.666 239.389C340.629 238.879 340.673 238.875 349.497 235.396C365.505 229.084 375.346 221.152 384.103 207.505C394.098 191.929 396.225 168.445 389.49 148C385.618 136.245 370.443 93.0014 368.669 88.6667C367.811 86.5694 365.35 86.3334 344.381 86.3334C322.69 86.3334 321.114 86.4974 321.986 88.6667Z" fill="white" stroke="black" stroke-width="1.33333"/>
<path d="M1.33398 274.885C1.33398 275.921 4.93398 296.172 9.33398 319.885C13.734 343.599 17.334 363.451 17.334 364C17.334 364.551 24.7353 365 33.782 365H50.23L52.41 357.159C53.61 352.845 55.8353 343.695 57.3567 336.825C61.6393 317.48 68.3193 293 69.3167 293C70.194 293 71.686 298.889 82.0753 343.333L87.1393 365H103.959H120.779L124.438 345.333C126.45 334.517 130.158 314.387 132.678 300.6C135.197 286.813 137.611 274.964 138.042 274.267C138.514 273.503 134.087 273 126.883 273H114.943L113.358 284.667C110.983 302.163 105.338 337.297 104.417 340.333C103.749 342.528 103.274 342.056 101.731 337.667C99.826 332.251 84.0007 275.159 84.0007 273.705C84.0007 273.269 77.33 273.083 69.178 273.289L54.3553 273.667L47.7447 298.333C38.0607 334.468 35.7206 342.333 34.654 342.333C34.1273 342.333 33.3287 339.484 32.8807 336C31.718 326.976 23.7993 276.661 23.2286 274.667C22.5006 272.125 1.33398 272.336 1.33398 274.885Z" fill="white" stroke="black" stroke-width="1.33333"/>
<path d="M85.7146 64.268C73.8146 67.9867 66.0746 74.0147 59.952 84.3334C57.212 88.9494 56.8053 91.28 56.9213 101.667C56.996 108.267 57.268 114.867 57.528 116.333C57.936 118.637 57.1013 119.091 51.3826 119.667L44.7666 120.333L43.1466 131C42.256 136.867 41.2213 143.617 40.848 146L40.168 150.333H86.7506H133.333V135.033V119.735L112.349 119.367L91.3666 119L89.4906 115.085C86.4933 108.824 86.0093 100.201 88.4493 96.4787C91.7293 91.4734 98.5493 89.9187 114.191 90.6147L128 91.2294V77.6227V64.016L123 63.1894C114.412 61.7694 91.596 62.4294 85.7146 64.268Z" fill="white" stroke="black" stroke-width="1.33333"/>
<path d="M626.666 236.333V241H639.225C648.63 241 652.779 240.428 655.751 238.723C659.003 236.856 660.341 236.728 663.157 238.011C667.691 240.076 669.086 245.589 665.951 249.053C663.466 251.799 656.739 252.609 655.333 250.333C654.869 249.583 648.43 249 640.587 249H626.666V253.667V258.333L643.666 258.535C668.662 258.831 667.246 259.208 677.189 249.571L685.999 241.029L714.461 241.015C738.43 241.003 743.506 240.655 746.623 238.813C754.435 234.199 762.855 241.108 758.158 248.279C755.865 251.777 749.027 253.076 747.333 250.333C746.825 249.512 735.609 249 718.122 249H689.737L679.867 258.283L669.999 267.567L648.333 267.616C629.985 267.659 626.666 267.973 626.666 269.667C626.666 271.427 638.741 271.667 727.333 271.667H827.999V261V250.333H804.313H780.626L772.187 241L763.749 231.667H695.207H626.666V236.333ZM701.921 256.376C705.777 259.292 806.057 259.213 809.921 256.291C815.374 252.167 822.666 255.243 822.666 261.667C822.666 268.009 814.633 271.443 810.19 267C807.111 263.921 707.094 264.02 701.123 267.108C696.002 269.756 691.043 268.62 689.098 264.351C685.802 257.116 695.183 251.28 701.921 256.376Z" fill="white" stroke="black" stroke-width="1.33333"/>
<path d="M193.334 286.333V299.667L181.667 299.725C175.251 299.757 167.75 300.587 164.998 301.569C152.388 306.069 144.098 317.079 143.047 330.72C142.488 337.975 142.887 339.905 146.262 346.309C150.558 354.459 158.722 361.483 166.367 363.605C169.099 364.364 181.084 364.988 193 364.992L214.667 365V319V273H204H193.334V286.333ZM191.724 320.801C192.966 321.588 193.339 325.039 193.058 333.115L192.667 344.333L184.667 344.76C173.223 345.369 167.05 343.228 164.432 337.737C160.974 330.484 164.422 323.117 172.363 320.8C176.714 319.529 189.722 319.531 191.724 320.801Z" fill="white" stroke="black" stroke-width="1.33333"/>
<path d="M278 285.999V299L264.666 299.763C249.786 300.615 243.697 302.939 236.401 310.549C223.896 323.596 225.34 345.939 239.402 356.993C248.428 364.087 251.698 364.787 276.333 364.899L298.666 365V319V273L288.333 272.999L278 272.996V285.999ZM276.473 321.36C278.402 322.771 278.724 324.833 278.394 333.693L278 344.333H266.216C254.956 344.333 254.288 344.167 251.216 340.592C245.236 333.635 247.908 323.596 256.393 321.143C262.738 319.308 273.83 319.428 276.473 321.36Z" fill="white" stroke="black" stroke-width="1.33333"/>
<path d="M314.666 319V365H325.999H337.333V357.825C337.333 351.516 337.846 350.148 341.586 346.492C343.925 344.204 346.475 342.344 347.253 342.356C348.03 342.368 352.266 347.467 356.666 353.685L364.666 364.993L376.913 364.663L389.159 364.333L379.238 351.667C373.781 344.7 367.445 336.384 365.159 333.188L361.005 327.375L374.811 313.521L388.618 299.667L375.975 299.728L363.333 299.789L351.421 313.061C344.869 320.361 339.019 326.333 338.421 326.333C337.822 326.333 337.333 314.333 337.333 299.667V273H325.999H314.666V319Z" fill="white" stroke="black" stroke-width="1.33333"/>
<path d="M626.666 221C626.666 223.633 627.555 223.667 697.231 223.667H767.798L776.093 233L784.387 242.333H806.194H827.999V237V231.667H816.107C807.33 231.667 803.175 232.263 800.247 233.944C793.346 237.905 786.757 232.669 789.457 225.371C791.115 220.888 794.907 219.483 799.259 221.741C801.723 223.019 807.178 223.667 815.485 223.667C827.11 223.667 827.999 223.477 827.999 221C827.999 218.357 827.11 218.333 727.333 218.333C627.555 218.333 626.666 218.357 626.666 221Z" fill="white" stroke="black" stroke-width="1.33333"/>
<path d="M769.334 304.333V323.667H778.054C793.622 323.667 802.653 316.243 802.662 303.436C802.666 298.655 801.855 296.239 799.175 293.055C793.926 286.816 789.317 285 778.734 285H769.334V304.333ZM786.138 293.052C791.291 295.012 793.243 298.153 793.291 304.569C793.326 309.028 792.633 310.692 789.821 312.903C787.889 314.423 784.589 315.667 782.487 315.667H778.667V304.556C778.667 290.924 779.038 290.353 786.138 293.052Z" fill="white" stroke="black" stroke-width="1.33333"/>
<path d="M677.575 292.597C676.081 296.852 673.017 305.133 670.768 311C668.517 316.867 666.675 322.117 666.672 322.667C666.669 323.217 668.481 323.667 670.7 323.667C673.775 323.667 675.033 322.875 676 320.333C677.171 317.256 677.924 317 685.823 317C693.836 317 694.431 317.211 695.215 320.333C695.907 323.091 696.853 323.667 700.692 323.667C703.245 323.667 705.333 323.512 705.333 323.324C705.333 323.136 702.109 314.585 698.17 304.324L691.007 285.667L685.649 285.264L680.292 284.861L677.575 292.597ZM690.141 308.445C689.437 310.28 682.561 311.116 681.003 309.557C680.576 309.132 680.987 306.881 681.916 304.557C682.845 302.235 684.069 299.133 684.635 297.667C685.527 295.352 686.005 295.763 688.264 300.779C689.695 303.957 690.54 307.408 690.141 308.445Z" fill="white" stroke="black" stroke-width="1.33333"/>
<path d="M718.666 298.937C718.666 306.629 719.355 314.388 720.205 316.252C722.597 321.5 727.569 324.021 735.391 323.951C748.63 323.832 751.999 318.661 751.999 298.465V285H747.378H742.757L742.378 299.285C742.01 313.159 741.898 313.628 738.486 315.54C735.337 317.304 734.613 317.272 731.486 315.223C728.093 313 727.999 312.563 727.999 298.969V285H723.333H718.666V298.937Z" fill="white" stroke="black" stroke-width="1.33333"/>
<path d="M631.897 287.564C624.842 294.619 627.548 303.24 637.923 306.763C644.416 308.968 646.574 311.897 643.997 315.004C642.168 317.207 636.73 317.273 631.904 315.152C630.454 314.515 629.35 315.235 628.324 317.489C626.992 320.411 627.209 320.892 630.42 322.144C642.8 326.969 653.333 322.299 653.333 311.983C653.333 305.396 651.492 303.085 643.568 299.732C638.867 297.743 637.258 296.38 637.592 294.672C637.94 292.887 639.436 292.308 643.909 292.229C648.684 292.144 649.973 291.579 650.858 289.185C651.753 286.768 651.344 286.019 648.553 284.957C641.998 282.465 636.068 283.393 631.897 287.564Z" fill="white" stroke="black" stroke-width="1.33333"/>
<path d="M724 352.333V367.667H727.26C730.204 367.667 730.56 367.052 730.927 361.333L731.333 355H738H744.667L745.073 361.333C745.44 367.052 745.796 367.667 748.74 367.667H752V352.333V337H748.743C745.865 337 745.439 337.659 745.076 342.667L744.667 348.333L737.527 348.741L730.387 349.149L730.869 343.075C731.336 337.216 731.221 337 727.676 337H724V352.333Z" fill="white" stroke="black" stroke-width="1.33333"/>
<path d="M694.531 338.711C688.098 343.032 685.486 350.847 688.142 357.825C691.286 366.087 701.081 371.06 708.558 368.191C709.718 367.745 710.667 365.919 710.667 364.131C710.667 361.179 710.265 360.955 706.298 361.699C700.226 362.837 694.659 358.461 694.687 352.569C694.699 350.24 695.149 347.673 695.687 346.867C697.474 344.191 702.871 342.096 705.973 342.873C708.245 343.444 709.201 342.988 709.694 341.1C711.251 335.147 702.006 333.689 694.531 338.711Z" fill="white" stroke="black" stroke-width="1.33333"/>
<path d="M658.666 352.333V367.667H666.666C673.777 367.667 674.666 367.371 674.666 365C674.666 362.841 673.777 362.333 669.999 362.333C665.943 362.333 665.333 361.908 665.333 359.084C665.333 356.393 666.077 355.764 669.666 355.417C672.987 355.097 674.099 354.3 674.426 352C674.799 349.369 674.265 349 670.093 349C665.905 349 665.333 348.6 665.333 345.667C665.333 342.747 665.91 342.333 669.999 342.333C673.777 342.333 674.666 341.825 674.666 339.667C674.666 337.296 673.777 337 666.666 337H658.666V352.333Z" fill="white" stroke="black" stroke-width="1.33333"/>
<path d="M818.666 302.224C818.666 311.697 819.03 320.397 819.475 321.557C819.955 322.808 821.854 323.667 824.142 323.667H827.999V304.333V285H823.333H818.666V302.224Z" fill="white" stroke="black" stroke-width="1.33333"/>
<path d="M626.666 339.573C626.666 341.228 627.738 342.3 629.666 342.573C632.498 342.976 632.687 343.693 633.05 355.333C633.426 367.447 633.491 367.667 636.717 367.667C639.974 367.667 639.999 367.571 639.999 355C639.999 342.377 640.011 342.333 643.333 342.333C645.777 342.333 646.666 341.623 646.666 339.667C646.666 337.237 645.777 337 636.666 337C627.675 337 626.666 337.26 626.666 339.573Z" fill="white" stroke="black" stroke-width="1.33333"/>
</svg>
