<svg width="38" height="48" viewBox="0 0 38 48" fill="none" xmlns="http://www.w3.org/2000/svg">
<path d="M18.7748 0.000922922C27.7848 -0.0890771 36.0048 6.41094 37.5248 16.1409C38.3748 21.5909 36.9848 26.5009 33.5948 30.8409C29.5448 36.0309 25.4648 41.1909 21.3848 46.3609C19.9248 48.2109 17.5048 48.1809 16.0348 46.3209C12.0648 41.2809 8.0848 36.2509 4.1348 31.2009C1.5948 27.9609 0.0848058 24.2909 0.00480585 20.1509C-0.145194 12.1109 3.2148 5.99095 10.2748 2.03095C12.4748 0.800952 15.5548 -0.0590673 18.7748 0.0109327V0.000922922ZM18.5348 3.31086C17.2448 3.27086 15.7748 3.49096 14.3448 3.91096C7.1048 6.02096 2.8948 13.311 3.3048 20.051C3.5048 23.451 4.6448 26.4709 6.7348 29.1309C10.6248 34.0909 14.5348 39.0309 18.4248 43.9809C18.6848 44.3109 18.8048 44.3109 19.0648 43.9809C23.0148 38.9709 26.9748 33.9609 30.9348 28.9609C33.9348 25.1609 35.1848 20.8809 34.2348 16.0909C32.7348 8.55089 26.4848 3.22097 18.5548 3.30097L18.5348 3.31086Z" fill="url(#paint0_linear_646_1248)"/>
<path d="M27.4457 18.5007C27.5257 22.7407 24.1257 27.1907 18.7457 27.2107C13.6057 27.2207 9.99571 23.0207 10.0157 18.4807C10.0357 13.6907 13.9457 9.76074 18.7257 9.76074C23.5357 9.76074 27.4457 13.6807 27.4457 18.5107V18.5007ZM24.1457 18.4707C24.1457 15.4307 21.7757 13.0608 18.7457 13.0508C15.7057 13.0508 13.3357 15.4107 13.3257 18.4407C13.3157 21.4607 15.7557 23.9208 18.7457 23.9108C21.7357 23.9008 24.1357 21.4707 24.1357 18.4607L24.1457 18.4707Z" fill="url(#paint1_linear_646_1248)"/>
<defs>
<linearGradient id="paint0_linear_646_1248" x1="0.00480584" y1="23.8609" x2="37.7748" y2="23.8609" gradientUnits="userSpaceOnUse">
<stop stop-color="#009994"/>
<stop offset="1" stop-color="#00DDA8"/>
</linearGradient>
<linearGradient id="paint1_linear_646_1248" x1="10.0157" y1="18.4707" x2="27.4457" y2="18.4707" gradientUnits="userSpaceOnUse">
<stop stop-color="#009994"/>
<stop offset="1" stop-color="#00DDA8"/>
</linearGradient>
</defs>
</svg>
