<svg width="51" height="50" viewBox="0 0 51 50" fill="none" xmlns="http://www.w3.org/2000/svg">
<path d="M48.6 9.8999L48.52 33.75C48.52 35.2 48.07 36.63 47.17 37.86C46.74 38.45 46.21 38.99 45.56 39.49C43.59 41.01 41.22 41.5599 38.62 41.5499C30.85 41.5199 23.08 41.5 15.32 41.46C14.65 41.46 14.12 41.5899 13.58 41.9399C11.09 43.5399 8.58 45.1099 6.08 46.6899C5.67 46.9499 5.26001 47.1899 4.74001 47.2799C3.51001 47.4899 2.31 46.8299 2.1 45.7699C2.03 45.4299 2 45.08 2 44.73C2.04 33.25 2.08 21.7699 2.12 10.2899C2.12 7.44992 3.31 5.08988 6.07 3.37988C6.51 3.10988 6.98 2.87994 7.47 2.68994C8.68 2.21994 10 2 11.33 2L39.54 2.09998C41.07 2.09998 42.59 2.40991 43.93 3.02991C44.24 3.17991 44.54 3.3399 44.84 3.5199C45.8 4.1099 46.56 4.79995 47.15 5.56995C48.13 6.84995 48.62 8.35989 48.61 9.88989L48.6 9.8999Z" stroke="url(#paint0_linear_632_1322)" stroke-width="4" stroke-miterlimit="10"/>
<defs>
<linearGradient id="paint0_linear_632_1322" x1="0.0754238" y1="24.6351" x2="50.5651" y2="24.8113" gradientUnits="userSpaceOnUse">
<stop stop-color="#009994"/>
<stop offset="1" stop-color="#00DDA8"/>
</linearGradient>
</defs>
</svg>
