<svg width="48" height="29" viewBox="0 0 48 29" fill="none" xmlns="http://www.w3.org/2000/svg">
<g clip-path="url(#clip0_632_1259)">
<path d="M23.6798 4.6322C19.4467 4.6322 15.2137 4.6322 10.9805 4.6322C10.3588 4.6322 10.2308 4.75105 10.2034 5.31791C10.1119 7.09161 8.64914 8.57279 6.87544 8.6825C6.26287 8.71907 6.10742 8.88367 6.10742 9.50538C6.10742 12.3579 6.10742 15.2105 6.10742 18.063C6.10742 18.7122 6.2537 18.8676 6.90284 18.895C8.59426 18.9773 10.1211 20.5133 10.2125 22.2047C10.2491 22.8539 10.3954 23.0001 11.0446 23.0001C19.4833 23.0001 27.9221 23.0001 36.37 23.0001C37.0192 23.0001 37.1655 22.8539 37.1929 22.1956C37.2752 20.5316 38.8112 18.9956 40.466 18.895C41.17 18.8585 41.298 18.7212 41.298 18.0081C41.298 15.2013 41.298 12.3945 41.298 9.57848C41.298 8.84706 41.1791 8.72821 40.4294 8.67335C38.802 8.56364 37.2935 7.05503 37.1929 5.42762C37.1472 4.68705 37.074 4.62305 36.3152 4.62305C32.1095 4.62305 27.9038 4.62305 23.6981 4.62305L23.6798 4.6322Z" stroke="url(#paint0_linear_632_1259)" stroke-width="2" stroke-miterlimit="10"/>
</g>
<g clip-path="url(#clip1_632_1259)">
<path d="M2.57114 28.2923C9.71411 28.2492 16.8571 28.2707 24 28.2707H45.4828C47.1394 28.2707 48 27.4102 48 25.7643V2.51735C48 0.892966 47.1179 0.021536 45.472 0.021536C31.1753 0.021536 16.8678 0.0322725 2.56037 0C1.09735 0 7.91793e-05 1.03272 7.91793e-05 2.56029C0.0431091 10.2734 0.0431091 17.9865 7.91793e-05 25.6997C-0.0106783 27.281 1.07584 28.2923 2.57114 28.2923Z" stroke="url(#paint1_linear_632_1259)" stroke-width="2" stroke-miterlimit="10"/>
<path d="M23.9963 18C21.7599 18 19.9927 16.2344 20 14C20 11.7729 21.7745 10 24.0037 10C26.2328 10 28.0073 11.7729 28 14.0073C28 16.2418 26.2328 18 23.9963 18Z" stroke="url(#paint2_linear_632_1259)" stroke-width="2" stroke-miterlimit="10"/>
</g>
<defs>
<linearGradient id="paint0_linear_632_1259" x1="2.8252" y1="13.7932" x2="44.5346" y2="13.7932" gradientUnits="userSpaceOnUse">
<stop stop-color="#009994"/>
<stop offset="1" stop-color="#00DDA8"/>
</linearGradient>
<linearGradient id="paint1_linear_632_1259" x1="-0.537795" y1="14.1461" x2="48.5379" y2="14.1461" gradientUnits="userSpaceOnUse">
<stop stop-color="#009994"/>
<stop offset="1" stop-color="#00DDA8"/>
</linearGradient>
<linearGradient id="paint2_linear_632_1259" x1="19.6261" y1="14" x2="28.3666" y2="14" gradientUnits="userSpaceOnUse">
<stop stop-color="#009994"/>
<stop offset="1" stop-color="#00DDA8"/>
</linearGradient>
<clipPath id="clip0_632_1259">
<rect width="35.1906" height="18.3771" fill="white" transform="translate(6.10742 4.62305)"/>
</clipPath>
<clipPath id="clip1_632_1259">
<rect width="48" height="28.2923" fill="white"/>
</clipPath>
</defs>
</svg>
