<svg width="116" height="109" viewBox="0 0 116 109" fill="none" xmlns="http://www.w3.org/2000/svg">
<path d="M74.22 24.2499C74.42 24.4499 74.6 24.9999 74.58 25.2899C74.48 26.9799 68.76 31.1999 67.7 32.9499C67.69 35.0899 69.68 40.6499 69.16 42.3799C69.02 42.8599 68.19 43.4399 67.71 43.5099C66.36 43.7099 60.74 39.6099 58.89 39.2299C57.03 39.7099 51.32 43.8999 49.83 43.4299C49.16 43.2199 48.64 42.5199 48.61 41.8199C48.53 39.4099 50.09 35.5699 50.1 32.9699C49.85 31.8899 44.27 27.7399 43.65 26.3899C43.32 25.6699 43.33 24.7099 43.94 24.1499C45.08 23.1299 51.74 23.0299 53.59 22.5299C53.97 22.2999 56.67 15.6599 57.5 14.5299C60.32 10.6899 62.95 20.9099 64.44 22.4199C66.23 23.0599 73.16 23.1999 74.21 24.2399L74.22 24.2499ZM69.22 26.3999C67.63 26.1999 63.37 26.0899 62.24 25.2799C61.11 24.4699 59.25 19.0899 58.9 19.0899C57.91 20.4299 56.78 24.4099 55.56 25.2799C54.34 26.1499 50.25 26.1899 48.58 26.3999C49.23 27.7699 53.3 30.6299 53.61 31.7099C54 33.0899 52.46 36.7899 52.71 38.4599C53.08 38.8699 57.87 35.5799 58.9 35.5799C60.58 35.5799 63.63 38.2699 65.41 38.7699C65.63 38.4999 63.94 32.9699 64.27 31.7799C64.65 30.3999 68.45 27.8899 69.23 26.3899L69.22 26.3999Z" fill="url(#paint0_linear_707_2)"/>
<path d="M89.15 47.28C90.35 46.13 92.31 37.25 95.22 40.89C96.19 42.11 97.58 46.67 98.63 47.33C100.3 48.38 108.99 47.32 106.52 51.16C105.75 52.35 101.53 55.69 101.35 56.48C100.99 58.01 104.59 66.41 100.35 65.34C98.65 64.91 95.37 62.06 93.81 61.97C92.76 61.92 88.47 65.02 87.02 65.33C84.91 65.78 85.02 63.94 85.12 62.46C85.22 60.98 86.37 57.37 86.01 56.17C85.47 54.35 79.06 51.77 80.96 49.09C81.94 47.71 88.18 48.23 89.16 47.29L89.15 47.28ZM101.62 51.18C97.17 51.26 95.17 50.13 93.99 45.78C92.69 46.6 92.3 49.67 91.12 50.37C89.94 51.07 87.11 50.98 85.74 51.18C86.3 52.54 89.03 53.78 89.41 54.97C89.94 56.62 88.89 58.67 88.92 60.39C89.23 60.73 92.92 58.23 93.79 58.25C95.11 58.29 96.89 60.16 98.29 60.4C98.86 60.4 97.71 56.09 97.94 55.31C98.31 54.06 100.98 52.48 101.62 51.19V51.18Z" fill="url(#paint1_linear_707_2)"/>
<path d="M24.03 40.1102C26.44 39.7402 27.46 46.3302 29.07 47.3302C30.24 48.0602 34.35 47.9502 35.95 48.3902C40.84 49.7202 32.45 54.7902 31.91 56.2402C31.37 57.6902 35.28 66.8202 30.62 65.1702C29.22 64.6802 25.4 62.0002 24.27 62.0002C23.02 62.0002 19.19 64.8502 17.69 65.2702C13.38 66.4802 17.16 57.6502 16.63 56.2402C16.23 55.1702 11.49 51.7902 11.14 50.6302C10.1 47.1502 18.03 48.5502 19.65 47.1902C21 46.0602 22.18 40.3902 24.02 40.1102H24.03ZM32.06 51.1802C30.73 50.9302 27.81 51.0002 26.8 50.2402C25.91 49.5702 25.05 46.4602 24.28 45.4602C24.01 45.4602 22.49 49.6902 21.76 50.2402C20.75 51.0002 17.83 50.9302 16.5 51.1802C17.25 52.5602 19.75 53.9202 20.1 55.3602C20.36 56.4102 19.17 60.4602 19.36 60.7002C20.48 60.2402 23.15 58.2102 24.22 58.2402C25.53 58.2802 27.93 60.1402 29.19 60.7002C29.38 60.4602 28.2 56.4002 28.45 55.3602C28.8 53.9202 31.3 52.5502 32.05 51.1802H32.06Z" fill="url(#paint2_linear_707_2)"/>
<path d="M22.1001 2.3502C24.4401 2.1002 24.6301 6.2502 25.7001 6.8802C26.6001 7.4102 30.2901 6.8802 30.7401 8.2002C31.6101 10.7702 28.1001 11.4602 27.6601 12.9802C27.1901 14.6402 30.1301 19.8002 25.6901 18.6302C24.7701 18.3902 23.1001 17.0202 22.3101 16.9502C21.0001 16.8302 19.1501 19.6302 17.1201 18.6302C15.2601 17.7202 17.1801 14.4702 16.9901 13.2202C16.9001 12.6502 14.4401 10.8802 13.9801 10.0202C12.1901 6.6602 17.6201 7.6502 18.8901 6.7502C19.9401 6.0102 20.2601 2.5502 22.0801 2.3602L22.1001 2.3502ZM25.3901 10.2102C23.7501 10.1702 22.9001 9.4902 22.3701 7.9802C21.5201 9.4302 20.6801 10.0102 19.0401 10.3602C20.4501 11.3502 20.4401 12.3902 20.3101 14.0102C21.9101 13.3702 22.6801 13.0902 24.2801 14.0102C23.8201 12.3302 24.2801 11.4202 25.3901 10.2002V10.2102Z" fill="url(#paint3_linear_707_2)"/>
<path d="M94.2299 6.63021C95.1799 5.75021 95.0399 2.13021 97.5299 2.43021C99.4399 2.66021 99.6799 6.31021 100.66 6.88021C101.85 7.57021 106.04 6.54021 105.93 9.10021C105.86 10.8502 102.92 11.8102 102.62 12.9802C102.21 14.5402 105.11 19.5702 100.9 18.7202C99.8799 18.5102 98.1099 17.0202 97.2799 16.9502C96.3099 16.8702 94.5299 19.0902 92.5899 18.7902C90.1299 18.4002 92.3199 14.1102 91.9199 13.0502C91.7199 12.5002 89.6099 10.9902 89.0999 10.1902C86.7999 6.65021 93.2599 7.55021 94.2399 6.63021H94.2299ZM100.66 10.2102C98.9199 10.2502 97.8699 9.64021 97.3299 7.99021C96.5199 9.63021 95.8299 10.0702 93.9999 10.3702C95.3999 11.5002 95.6999 12.2602 95.2699 14.0202C96.8699 13.3802 97.6399 13.0902 99.2399 14.0202C98.7799 11.9402 99.4099 11.6402 100.67 10.2102H100.66Z" fill="url(#paint4_linear_707_2)"/>
<path d="M44.84 61.58C44.14 60.87 44.56 58.16 44.44 57.06C43.3 45.99 39.23 37.03 31.11 29.42C30.43 28.78 28.05 27.31 27.78 26.72C26.97 24.95 28.3 23.6 30.14 24.36C31.14 24.77 35.4 28.86 36.35 29.9C42.27 36.35 47.04 46.67 47.63 55.46C47.7 56.45 47.79 60.46 47.56 61.14C47.25 62.04 45.45 62.22 44.83 61.59L44.84 61.58Z" fill="url(#paint5_linear_707_2)"/>
<path d="M88.8299 23.8999C89.7099 23.7699 90.5199 24.7499 90.5299 25.5999C90.5499 26.9399 86.4099 30.7399 85.2899 32.1499C78.7499 40.4399 74.6799 50.5099 73.1199 60.9499C72.4799 62.3499 70.1299 61.7399 69.9499 60.1899C69.8499 59.2899 70.6599 56.0599 70.9099 54.9299C72.6399 46.9299 76.2999 38.9799 81.0299 32.3399C82.1399 30.7799 87.2999 24.1199 88.8299 23.8999Z" fill="url(#paint6_linear_707_2)"/>
<path d="M5.31002 27.7502C13.16 26.8902 13.86 38.5902 6.48003 39.1202C-0.899966 39.6502 -1.92998 28.5402 5.31002 27.7502ZM5.30001 31.2302C3.33001 31.6702 3.24003 35.0402 4.98003 35.5402C9.28003 36.8002 9.42001 30.3202 5.30001 31.2302Z" fill="url(#paint7_linear_707_2)"/>
<path d="M105.22 29.3701C110.16 24.0801 118.69 31.8101 113.38 37.3701C108.07 42.9301 100.05 34.9001 105.22 29.3701ZM108.51 31.2301C106.53 31.6801 106.48 34.8801 108.26 35.4701C112.54 36.8801 112.87 30.2301 108.51 31.2301Z" fill="url(#paint8_linear_707_2)"/>
<path d="M42.79 7.41018C48.93 6.93018 49.77 16.4202 43.64 16.8802C36.88 17.3802 36.86 7.87018 42.79 7.41018Z" fill="url(#paint9_linear_707_2)"/>
<path d="M74.5501 7.40985C79.1201 6.76985 82.1001 13.1798 77.7801 16.0598C71.1901 20.4498 66.8901 8.47985 74.5501 7.40985Z" fill="url(#paint10_linear_707_2)"/>
<path d="M63.8599 3.4898C64.1799 3.8098 66.8399 3.2698 66.5999 5.5498C66.4099 7.3198 64.0399 6.8598 63.8499 7.0398C63.5499 7.3198 64.0199 10.5498 61.5199 9.8198C59.9099 9.3498 60.4599 7.1298 60.3399 7.0198C60.2199 6.9098 57.9999 7.4498 57.5399 5.8398C56.8099 3.3298 60.0699 3.7898 60.3299 3.5198C60.5299 3.2998 59.7799 1.2998 61.6099 0.799803C64.0099 0.139803 63.5499 3.1698 63.8799 3.4898H63.8599Z" fill="url(#paint11_linear_707_2)"/>
<path d="M95.9 30.53C96.12 30.75 98.65 29.93 98.92 32.07C99.23 34.54 96.08 33.84 95.9 34.02C95.65 34.26 96.6399 36.47 94.7099 36.83C92.2999 37.28 92.87 34.16 92.73 34.02C92.62 33.9 90.4 34.45 89.93 32.84C89.18 30.28 92.57 30.69 92.73 30.53C92.85 30.41 92.32 27.85 94.17 27.66C96.6 27.41 95.73 30.36 95.9 30.53Z" fill="url(#paint12_linear_707_2)"/>
<path d="M26.0299 31.8C26.1899 31.96 29.1099 31.25 28.8299 33.79C28.6499 35.48 26.2099 34.78 26.0299 34.97C25.9099 35.09 26.4499 37.33 24.8499 37.78C21.9299 38.59 22.7499 35.18 22.5399 34.97C22.3899 34.82 18.6799 35.4 19.8299 32.76C20.4299 31.39 22.4299 31.91 22.5399 31.8C22.6599 31.68 22.1099 29.47 23.7199 29C26.2899 28.25 25.8699 31.63 26.0299 31.8Z" fill="url(#paint13_linear_707_2)"/>
<path d="M15.1501 71.4602C18.6501 71.4602 21.5701 72.5102 23.9101 74.6102C26.2601 76.7002 27.4401 79.3802 27.4401 82.6702C27.4401 84.9702 26.8901 87.0502 25.7901 88.9002C24.6701 90.7702 22.36 92.8002 18.86 95.0102C16.41 96.5602 14.6001 97.8502 13.4301 98.8602C12.2801 99.8602 11.3701 100.84 10.7001 101.79H27.6701V108.05H1.31006C1.31006 105.71 1.73006 103.62 2.56006 101.77C3.43006 99.9002 4.64006 98.2702 6.19006 96.8602C6.99006 96.1302 8.14007 95.2102 9.63007 94.1202C11.1201 93.0302 12.9901 91.7402 15.2201 90.2502C16.9401 89.1302 18.1901 88.0102 18.9901 86.8802C19.7801 85.7502 20.1801 84.5402 20.1801 83.2402C20.1801 81.6202 19.6901 80.3002 18.7001 79.2602C17.7201 78.2302 16.41 77.7102 14.8 77.7102C13.9 77.7102 13.1001 77.9002 12.4001 78.2702C11.7001 78.6502 11.1101 79.1902 10.6401 79.9102C10.1601 80.6302 9.79006 81.4902 9.53006 82.5102C9.26006 83.5302 9.12007 84.6702 9.10007 85.9402H2.14008V85.2602C2.14008 81.1202 3.32007 77.7902 5.67007 75.2502C8.06007 72.7102 11.2201 71.4502 15.1601 71.4502L15.1501 71.4602Z" fill="url(#paint14_linear_707_2)"/>
<path d="M42.9401 71.4602C47.2301 71.4602 50.5101 73.0202 52.7801 76.1502C55.0501 79.2802 56.1801 83.8802 56.1801 89.9502C56.1801 96.0202 55.0601 100.83 52.8101 104C50.5701 107.18 47.2701 108.77 42.9401 108.77C38.6101 108.77 35.4101 107.18 33.1801 104C30.9401 100.82 29.8301 96.1402 29.8301 89.9502C29.8301 83.7602 30.9401 79.3202 33.1701 76.1702C35.4001 73.0202 38.6601 71.4502 42.9401 71.4502V71.4602ZM37.1001 90.0102C37.1001 93.7302 37.3501 96.4302 37.8501 98.0902C38.3701 99.7602 39.0501 100.96 39.9001 101.68C40.7501 102.4 41.7601 102.77 42.9301 102.77C44.8501 102.77 46.3201 101.84 47.3401 99.9702C48.3701 98.0902 48.8901 94.7602 48.8901 89.9802C48.8901 85.2002 48.3701 82.1502 47.3401 80.2702C46.3001 78.3902 44.8301 77.4402 42.9101 77.4402C40.9901 77.4402 39.6501 78.3502 38.6301 80.1702C37.6101 81.9902 37.1001 85.2702 37.1001 90.0102Z" fill="url(#paint15_linear_707_2)"/>
<path d="M72.1701 71.4602C75.6701 71.4602 78.5901 72.5102 80.9301 74.6102C83.2801 76.7002 84.4601 79.3802 84.4601 82.6702C84.4601 84.9702 83.9101 87.0502 82.8101 88.9002C81.6901 90.7702 79.3801 92.8002 75.8801 95.0102C73.4301 96.5602 71.6201 97.8502 70.4501 98.8602C69.3001 99.8602 68.3901 100.84 67.7201 101.79H84.6901V108.05H58.3301C58.3301 105.71 58.7501 103.62 59.5801 101.77C60.4501 99.9002 61.6601 98.2702 63.2101 96.8602C64.0101 96.1302 65.1601 95.2102 66.6501 94.1202C68.1401 93.0302 70.0101 91.7402 72.2401 90.2502C73.9601 89.1302 75.2101 88.0102 76.0101 86.8802C76.8001 85.7502 77.2001 84.5402 77.2001 83.2402C77.2001 81.6202 76.7101 80.3002 75.7201 79.2602C74.7401 78.2302 73.4301 77.7102 71.8201 77.7102C70.9201 77.7102 70.1201 77.9002 69.4201 78.2702C68.7201 78.6502 68.1301 79.1902 67.6601 79.9102C67.1801 80.6302 66.8101 81.4902 66.5501 82.5102C66.2801 83.5302 66.1401 84.6702 66.1201 85.9402H59.1601V85.2602C59.1601 81.1202 60.3401 77.7902 62.6901 75.2502C65.0801 72.7102 68.2401 71.4502 72.1801 71.4502L72.1701 71.4602Z" fill="url(#paint16_linear_707_2)"/>
<path d="M111.39 72.1602V78.1702H96.5699L95.1399 86.3302L95.2399 86.4301C96.1399 85.5301 97.1399 84.8401 98.2399 84.3701C99.3399 83.9001 100.68 83.6602 102.24 83.6602C105.56 83.6602 108.24 84.8001 110.27 87.0901C112.3 89.3801 113.32 92.3002 113.32 95.8802C113.32 99.4602 112.03 102.5 109.47 105.02C106.93 107.54 103.83 108.8 100.16 108.8C96.2899 108.8 93.0899 107.79 90.5699 105.77C88.0699 103.73 86.7699 100.95 86.6699 97.4102H93.9499C94.1299 99.0602 94.7599 100.37 95.8299 101.34C96.8999 102.31 98.2299 102.79 99.8299 102.79C101.6 102.79 103.08 102.11 104.26 100.76C105.44 99.3901 106.04 97.7602 106.04 95.8802C106.04 93.8902 105.46 92.2802 104.31 91.0202C103.18 89.7702 101.67 89.1402 99.7999 89.1402C98.5199 89.1402 97.4599 89.3802 96.6199 89.8502C95.7799 90.3202 95.0299 91.0502 94.3399 92.0202H87.7799L91.3099 72.1702H111.36L111.39 72.1602Z" fill="url(#paint17_linear_707_2)"/>
<defs>
<linearGradient id="paint0_linear_707_2" x1="43.44" y1="28.5999" x2="74.59" y2="28.5999" gradientUnits="userSpaceOnUse">
<stop stop-color="white"/>
<stop offset="1" stop-color="#00DDA8"/>
</linearGradient>
<linearGradient id="paint1_linear_707_2" x1="80.6" y1="52.73" x2="106.96" y2="52.73" gradientUnits="userSpaceOnUse">
<stop stop-color="white"/>
<stop offset="1" stop-color="#00DDA8"/>
</linearGradient>
<linearGradient id="paint2_linear_707_2" x1="11.06" y1="52.7402" x2="37.48" y2="52.7402" gradientUnits="userSpaceOnUse">
<stop stop-color="white"/>
<stop offset="1" stop-color="#00DDA8"/>
</linearGradient>
<linearGradient id="paint3_linear_707_2" x1="13.6401" y1="10.5902" x2="30.8801" y2="10.5902" gradientUnits="userSpaceOnUse">
<stop stop-color="white"/>
<stop offset="1" stop-color="#00DDA8"/>
</linearGradient>
<linearGradient id="paint4_linear_707_2" x1="88.5999" y1="10.6102" x2="105.93" y2="10.6102" gradientUnits="userSpaceOnUse">
<stop stop-color="white"/>
<stop offset="1" stop-color="#00DDA8"/>
</linearGradient>
<linearGradient id="paint5_linear_707_2" x1="27.53" y1="43.04" x2="47.72" y2="43.04" gradientUnits="userSpaceOnUse">
<stop stop-color="white"/>
<stop offset="1" stop-color="#00DDA8"/>
</linearGradient>
<linearGradient id="paint6_linear_707_2" x1="69.9399" y1="42.8099" x2="90.5299" y2="42.8099" gradientUnits="userSpaceOnUse">
<stop stop-color="white"/>
<stop offset="1" stop-color="#00DDA8"/>
</linearGradient>
<linearGradient id="paint7_linear_707_2" x1="0.390027" y1="33.4202" x2="11.63" y2="33.4202" gradientUnits="userSpaceOnUse">
<stop stop-color="white"/>
<stop offset="1" stop-color="#00DDA8"/>
</linearGradient>
<linearGradient id="paint8_linear_707_2" x1="103.57" y1="33.3901" x2="115.06" y2="33.3901" gradientUnits="userSpaceOnUse">
<stop stop-color="white"/>
<stop offset="1" stop-color="#00DDA8"/>
</linearGradient>
<linearGradient id="paint9_linear_707_2" x1="38.46" y1="12.1502" x2="47.84" y2="12.1502" gradientUnits="userSpaceOnUse">
<stop stop-color="white"/>
<stop offset="1" stop-color="#00DDA8"/>
</linearGradient>
<linearGradient id="paint10_linear_707_2" x1="70.4601" y1="12.1898" x2="79.8701" y2="12.1898" gradientUnits="userSpaceOnUse">
<stop stop-color="white"/>
<stop offset="1" stop-color="#00DDA8"/>
</linearGradient>
<linearGradient id="paint11_linear_707_2" x1="57.4199" y1="5.3198" x2="66.6099" y2="5.3198" gradientUnits="userSpaceOnUse">
<stop stop-color="white"/>
<stop offset="1" stop-color="#00DDA8"/>
</linearGradient>
<linearGradient id="paint12_linear_707_2" x1="89.81" y1="32.26" x2="98.93" y2="32.26" gradientUnits="userSpaceOnUse">
<stop stop-color="white"/>
<stop offset="1" stop-color="#00DDA8"/>
</linearGradient>
<linearGradient id="paint13_linear_707_2" x1="19.5999" y1="33.4" x2="28.8499" y2="33.4" gradientUnits="userSpaceOnUse">
<stop stop-color="white"/>
<stop offset="1" stop-color="#00DDA8"/>
</linearGradient>
<linearGradient id="paint14_linear_707_2" x1="1.31006" y1="89.7602" x2="27.6701" y2="89.7602" gradientUnits="userSpaceOnUse">
<stop stop-color="white"/>
<stop offset="1" stop-color="#00DDA8"/>
</linearGradient>
<linearGradient id="paint15_linear_707_2" x1="29.8201" y1="90.1202" x2="56.1801" y2="90.1202" gradientUnits="userSpaceOnUse">
<stop stop-color="white"/>
<stop offset="1" stop-color="#00DDA8"/>
</linearGradient>
<linearGradient id="paint16_linear_707_2" x1="58.3301" y1="89.7602" x2="84.6901" y2="89.7602" gradientUnits="userSpaceOnUse">
<stop stop-color="white"/>
<stop offset="1" stop-color="#00DDA8"/>
</linearGradient>
<linearGradient id="paint17_linear_707_2" x1="86.6899" y1="90.4702" x2="113.34" y2="90.4702" gradientUnits="userSpaceOnUse">
<stop stop-color="white"/>
<stop offset="1" stop-color="#00DDA8"/>
</linearGradient>
</defs>
</svg>
