<svg width="116" height="109" viewBox="0 0 116 109" fill="none" xmlns="http://www.w3.org/2000/svg">
<path d="M74.3401 23.54C74.5401 23.74 74.7201 24.29 74.7001 24.58C74.6001 26.27 68.8801 30.49 67.8201 32.24C67.8101 34.38 69.8001 39.94 69.2801 41.67C69.1401 42.15 68.3101 42.73 67.8301 42.8C66.4801 43 60.8601 38.9 59.0101 38.52C57.1501 39 51.4401 43.19 49.9501 42.72C49.2801 42.51 48.7601 41.81 48.7301 41.11C48.6501 38.7 50.2101 34.86 50.2201 32.26C49.9701 31.18 44.3901 27.03 43.7701 25.68C43.4401 24.96 43.4501 24 44.0601 23.44C45.2001 22.42 51.8601 22.32 53.7101 21.82C54.0901 21.59 56.7901 14.95 57.6201 13.82C60.4401 9.97997 63.0701 20.2 64.5601 21.71C66.3501 22.35 73.2801 22.49 74.3301 23.53L74.3401 23.54ZM69.3401 25.69C67.7501 25.49 63.4901 25.38 62.3601 24.57C61.2301 23.76 59.3701 18.38 59.0201 18.38C58.0301 19.72 56.9001 23.7 55.6801 24.57C54.4601 25.44 50.3701 25.48 48.7001 25.69C49.3501 27.06 53.4201 29.92 53.7301 31C54.1201 32.38 52.5801 36.08 52.8301 37.75C53.2001 38.16 57.9901 34.87 59.0201 34.87C60.7001 34.87 63.7501 37.56 65.5301 38.06C65.7501 37.79 64.0601 32.26 64.3901 31.07C64.7701 29.69 68.5701 27.18 69.3501 25.68L69.3401 25.69Z" fill="url(#paint0_linear_707_3)"/>
<path d="M89.2699 46.5701C90.4699 45.4201 92.4299 36.5401 95.3399 40.1801C96.3099 41.4001 97.6999 45.9601 98.7499 46.6201C100.42 47.6701 109.11 46.6101 106.64 50.4501C105.87 51.6401 101.65 54.9801 101.47 55.7701C101.11 57.3001 104.71 65.7001 100.47 64.6301C98.7699 64.2001 95.4899 61.3501 93.9299 61.2601C92.8799 61.2101 88.5899 64.3101 87.1399 64.6201C85.0299 65.0701 85.1399 63.2301 85.2399 61.7501C85.3399 60.2701 86.4899 56.6601 86.1299 55.4601C85.5899 53.6401 79.1799 51.0601 81.0799 48.3801C82.0599 47.0001 88.2999 47.5201 89.2799 46.5801L89.2699 46.5701ZM101.73 50.4601C97.2799 50.5401 95.2799 49.4101 94.0999 45.0601C92.7999 45.8801 92.4099 48.9501 91.2299 49.6501C90.0499 50.3501 87.2199 50.2601 85.8499 50.4601C86.4099 51.8201 89.1399 53.0601 89.5199 54.2501C90.0499 55.9001 88.9999 57.9501 89.0299 59.6701C89.3399 60.0101 93.0299 57.5101 93.8999 57.5301C95.2199 57.5701 96.9999 59.4401 98.3999 59.68C98.9699 59.68 97.8199 55.3701 98.0499 54.5901C98.4199 53.3401 101.09 51.7601 101.73 50.4701V50.4601Z" fill="url(#paint1_linear_707_3)"/>
<path d="M24.1499 39.39C26.5599 39.02 27.5799 45.61 29.1899 46.61C30.3599 47.34 34.4699 47.23 36.0699 47.67C40.9599 49 32.5699 54.07 32.0299 55.52C31.4899 56.97 35.3999 66.1 30.7399 64.45C29.3399 63.96 25.5199 61.28 24.3899 61.28C23.1399 61.28 19.3099 64.13 17.8099 64.55C13.4999 65.76 17.2799 56.93 16.7499 55.52C16.3499 54.45 11.6099 51.07 11.2599 49.91C10.2199 46.43 18.1499 47.83 19.7699 46.47C21.1199 45.34 22.2999 39.67 24.1399 39.39H24.1499ZM32.1799 50.46C30.8499 50.21 27.9299 50.28 26.9199 49.52C26.0299 48.85 25.1699 45.74 24.3999 44.74C24.1299 44.74 22.6099 48.97 21.8799 49.52C20.8699 50.28 17.9499 50.21 16.6199 50.46C17.3699 51.84 19.8699 53.2 20.2199 54.64C20.4799 55.69 19.2899 59.74 19.4799 59.98C20.5999 59.52 23.2699 57.49 24.3399 57.52C25.6499 57.56 28.0499 59.42 29.3099 59.98C29.4999 59.74 28.3199 55.68 28.5699 54.64C28.9199 53.2 31.4199 51.83 32.1699 50.46H32.1799Z" fill="url(#paint2_linear_707_3)"/>
<path d="M22.2099 1.62998C24.5499 1.37998 24.7399 5.52999 25.8099 6.15999C26.7099 6.68999 30.3999 6.15999 30.8499 7.47999C31.7199 10.05 28.2099 10.74 27.7699 12.26C27.2999 13.92 30.24 19.08 25.8 17.91C24.88 17.67 23.2099 16.3 22.4199 16.23C21.1099 16.11 19.26 18.91 17.23 17.91C15.37 17 17.2899 13.75 17.0999 12.5C17.0099 11.93 14.5499 10.16 14.0899 9.29999C12.2999 5.93999 17.7299 6.92998 18.9999 6.02998C20.0499 5.28998 20.37 1.82999 22.19 1.63999L22.2099 1.62998ZM25.51 9.48998C23.87 9.44998 23.0199 8.76999 22.4899 7.25999C21.6399 8.70999 20.8 9.28999 19.16 9.63999C20.57 10.63 20.5599 11.67 20.4299 13.29C22.03 12.65 22.8 12.37 24.4 13.29C23.94 11.61 24.4 10.7 25.51 9.47999V9.48998Z" fill="url(#paint3_linear_707_3)"/>
<path d="M94.35 5.91C95.3 5.03 95.16 1.40999 97.65 1.70999C99.56 1.93999 99.8 5.59 100.78 6.16C101.97 6.85 106.16 5.81999 106.05 8.37999C105.98 10.13 103.04 11.09 102.74 12.26C102.33 13.82 105.23 18.85 101.02 18C100 17.79 98.23 16.3 97.4 16.23C96.43 16.15 94.65 18.37 92.71 18.07C90.25 17.68 92.44 13.39 92.04 12.33C91.84 11.78 89.73 10.27 89.22 9.47C86.92 5.93 93.38 6.83 94.36 5.91H94.35ZM100.78 9.48999C99.04 9.52999 97.99 8.91999 97.45 7.26999C96.64 8.90999 95.95 9.35 94.12 9.65C95.52 10.78 95.82 11.54 95.39 13.3C96.99 12.66 97.76 12.37 99.36 13.3C98.9 11.22 99.53 10.92 100.79 9.48999H100.78Z" fill="url(#paint4_linear_707_3)"/>
<path d="M44.9601 60.8598C44.2601 60.1498 44.6801 57.4398 44.5601 56.3398C43.4201 45.2698 39.3501 36.3098 31.2301 28.6998C30.5501 28.0598 28.1701 26.5898 27.9001 25.9998C27.0901 24.2298 28.4201 22.8798 30.2601 23.6398C31.2601 24.0498 35.5201 28.1398 36.4701 29.1798C42.3901 35.6298 47.1601 45.9498 47.7501 54.7398C47.8201 55.7298 47.9101 59.7398 47.6801 60.4198C47.3701 61.3198 45.5701 61.4998 44.9501 60.8698L44.9601 60.8598Z" fill="url(#paint5_linear_707_3)"/>
<path d="M88.94 23.1801C89.82 23.0501 90.63 24.0301 90.64 24.8801C90.66 26.2201 86.52 30.0201 85.4 31.4301C78.86 39.7201 74.79 49.7901 73.23 60.2301C72.59 61.6301 70.24 61.0201 70.06 59.4701C69.96 58.5701 70.77 55.3401 71.02 54.2101C72.75 46.2101 76.41 38.2601 81.14 31.6201C82.25 30.0601 87.41 23.4001 88.94 23.1801Z" fill="url(#paint6_linear_707_3)"/>
<path d="M5.4299 27.03C13.2799 26.17 13.9799 37.87 6.5999 38.4C-0.780102 38.93 -1.8101 27.82 5.4299 27.03ZM5.4099 30.51C3.4399 30.95 3.3499 34.32 5.0899 34.82C9.3899 36.08 9.5299 29.6 5.4099 30.51Z" fill="url(#paint7_linear_707_3)"/>
<path d="M105.34 28.6499C110.28 23.3599 118.81 31.0899 113.5 36.6499C108.34 42.0599 100.17 34.1799 105.34 28.6499ZM108.63 30.5199C106.65 30.9699 106.6 34.1699 108.38 34.7599C112.66 36.1699 112.99 29.5199 108.63 30.5199Z" fill="url(#paint8_linear_707_3)"/>
<path d="M42.9099 6.68997C49.0499 6.20997 49.8899 15.7 43.7599 16.16C36.9999 16.66 36.9799 7.14997 42.9099 6.68997Z" fill="url(#paint9_linear_707_3)"/>
<path d="M74.6599 6.69013C79.2299 6.05013 82.2099 12.4601 77.8899 15.3401C71.2999 19.7301 66.9999 7.76013 74.6599 6.69013Z" fill="url(#paint10_linear_707_3)"/>
<path d="M63.98 2.77984C64.3 3.09984 66.96 2.55984 66.72 4.83984C66.53 6.60984 64.16 6.14985 63.97 6.32985C63.67 6.60985 64.14 9.83985 61.64 9.10985C60.03 8.63985 60.58 6.41984 60.46 6.30984C60.34 6.19984 58.12 6.73984 57.66 5.12984C56.93 2.61984 60.19 3.07984 60.45 2.80984C60.65 2.58984 59.9 0.589842 61.73 0.0898418C64.13 -0.570158 63.67 2.45984 64 2.77984H63.98Z" fill="url(#paint11_linear_707_3)"/>
<path d="M96.0101 29.8201C96.2301 30.0401 98.7601 29.2201 99.0301 31.3601C99.3401 33.8301 96.1901 33.1301 96.0101 33.3101C95.7601 33.5501 96.7501 35.7601 94.8201 36.1201C92.4101 36.5701 92.9801 33.4501 92.8401 33.3101C92.7301 33.1901 90.5101 33.7401 90.0401 32.1301C89.2901 29.5701 92.6801 29.9801 92.8401 29.8201C92.9601 29.7001 92.4301 27.1401 94.2801 26.9501C96.7101 26.7001 95.8401 29.6501 96.0101 29.8201Z" fill="url(#paint12_linear_707_3)"/>
<path d="M26.14 31.0798C26.3 31.2398 29.22 30.5298 28.94 33.0698C28.76 34.7598 26.32 34.0598 26.14 34.2498C26.02 34.3698 26.56 36.6098 24.96 37.0598C22.04 37.8698 22.86 34.4598 22.65 34.2498C22.5 34.0998 18.79 34.6798 19.94 32.0398C20.54 30.6698 22.54 31.1898 22.65 31.0798C22.77 30.9598 22.22 28.7498 23.83 28.2798C26.4 27.5298 25.98 30.9098 26.14 31.0798Z" fill="url(#paint13_linear_707_3)"/>
<path d="M15.2699 70.74C18.7699 70.74 21.6899 71.79 24.0299 73.89C26.3799 75.98 27.5599 78.66 27.5599 81.95C27.5599 84.25 27.0099 86.33 25.9099 88.18C24.7899 90.05 22.4799 92.08 18.9799 94.29C16.5299 95.84 14.7199 97.13 13.5499 98.14C12.3999 99.14 11.4899 100.12 10.8199 101.07H27.7899V107.33H1.42993C1.42993 104.99 1.84993 102.9 2.67993 101.05C3.54993 99.18 4.75993 97.55 6.30993 96.14C7.10993 95.41 8.25993 94.49 9.74993 93.4C11.2399 92.31 13.1099 91.02 15.3399 89.53C17.0599 88.41 18.3099 87.29 19.1099 86.16C19.8999 85.03 20.2999 83.82 20.2999 82.52C20.2999 80.9 19.8099 79.58 18.8199 78.54C17.8399 77.51 16.5299 76.99 14.9199 76.99C14.0199 76.99 13.2199 77.18 12.5199 77.55C11.8199 77.93 11.2299 78.47 10.7599 79.19C10.2799 79.91 9.90993 80.77 9.64993 81.79C9.37993 82.81 9.23993 83.95 9.21993 85.22H2.25993V84.54C2.25993 80.4 3.43993 77.07 5.78993 74.53C8.17993 71.99 11.3399 70.73 15.2799 70.73L15.2699 70.74Z" fill="url(#paint14_linear_707_3)"/>
<path d="M43.0499 70.74C47.3399 70.74 50.6199 72.3 52.8899 75.43C55.1599 78.56 56.2899 83.16 56.2899 89.23C56.2899 95.3 55.1699 100.11 52.9199 103.28C50.6799 106.46 47.3799 108.05 43.0499 108.05C38.7199 108.05 35.5199 106.46 33.2899 103.28C31.0499 100.1 29.9399 95.42 29.9399 89.23C29.9399 83.04 31.0499 78.6 33.2799 75.45C35.5099 72.3 38.7699 70.73 43.0499 70.73V70.74ZM37.2199 89.29C37.2199 93.01 37.4699 95.71 37.9699 97.37C38.4899 99.04 39.1699 100.24 40.0199 100.96C40.8699 101.68 41.8799 102.05 43.0499 102.05C44.9699 102.05 46.4399 101.12 47.4599 99.25C48.4899 97.37 49.0099 94.04 49.0099 89.26C49.0099 84.48 48.4899 81.43 47.4599 79.55C46.4199 77.67 44.9499 76.72 43.0299 76.72C41.1099 76.72 39.7699 77.63 38.7499 79.45C37.7299 81.27 37.2199 84.55 37.2199 89.29Z" fill="url(#paint15_linear_707_3)"/>
<path d="M72.2899 70.74C75.7899 70.74 78.71 71.79 81.05 73.89C83.4 75.98 84.58 78.66 84.58 81.95C84.58 84.25 84.0299 86.33 82.9299 88.18C81.8099 90.05 79.5 92.08 76 94.29C73.55 95.84 71.74 97.13 70.57 98.14C69.42 99.14 68.51 100.12 67.84 101.07H84.81V107.33H58.45C58.45 104.99 58.87 102.9 59.7 101.05C60.57 99.18 61.78 97.55 63.33 96.14C64.13 95.41 65.28 94.49 66.77 93.4C68.26 92.31 70.13 91.02 72.36 89.53C74.08 88.41 75.33 87.29 76.13 86.16C76.92 85.03 77.32 83.82 77.32 82.52C77.32 80.9 76.83 79.58 75.84 78.54C74.86 77.51 73.55 76.99 71.94 76.99C71.04 76.99 70.2399 77.18 69.5399 77.55C68.8399 77.93 68.25 78.47 67.78 79.19C67.3 79.91 66.93 80.77 66.67 81.79C66.4 82.81 66.26 83.95 66.24 85.22H59.28V84.54C59.28 80.4 60.46 77.07 62.81 74.53C65.2 71.99 68.36 70.73 72.3 70.73L72.2899 70.74Z" fill="url(#paint16_linear_707_3)"/>
<path d="M111.51 71.4399V77.4499H96.69L95.26 85.6099L95.36 85.7099C96.26 84.8099 97.26 84.1199 98.36 83.6499C99.46 83.1799 100.8 82.9399 102.36 82.9399C105.68 82.9399 108.36 84.0799 110.39 86.3699C112.42 88.6599 113.44 91.5799 113.44 95.1599C113.44 98.7399 112.15 101.78 109.59 104.3C107.05 106.82 103.95 108.08 100.28 108.08C96.41 108.08 93.21 107.07 90.69 105.05C88.19 103.01 86.89 100.23 86.79 96.6899H94.0701C94.2501 98.3399 94.88 99.6499 95.95 100.62C97.02 101.59 98.35 102.07 99.95 102.07C101.72 102.07 103.2 101.39 104.38 100.04C105.56 98.6699 106.16 97.0399 106.16 95.1599C106.16 93.1699 105.58 91.5599 104.43 90.2999C103.3 89.0499 101.79 88.4199 99.92 88.4199C98.64 88.4199 97.5801 88.6599 96.7401 89.1299C95.9001 89.5999 95.1501 90.3299 94.4601 91.2999H87.9L91.43 71.4499H111.48L111.51 71.4399Z" fill="url(#paint17_linear_707_3)"/>
<defs>
<linearGradient id="paint0_linear_707_3" x1="43.5601" y1="27.88" x2="74.7001" y2="27.88" gradientUnits="userSpaceOnUse">
<stop/>
<stop offset="0.09" stop-color="#002B20"/>
<stop offset="0.21" stop-color="#005944"/>
<stop offset="0.33" stop-color="#008262"/>
<stop offset="0.45" stop-color="#00A37B"/>
<stop offset="0.58" stop-color="#00BC8F"/>
<stop offset="0.71" stop-color="#00CE9D"/>
<stop offset="0.85" stop-color="#00D9A5"/>
<stop offset="1" stop-color="#00DDA8"/>
</linearGradient>
<linearGradient id="paint1_linear_707_3" x1="80.7099" y1="52.0101" x2="107.08" y2="52.0101" gradientUnits="userSpaceOnUse">
<stop/>
<stop offset="0.09" stop-color="#002B20"/>
<stop offset="0.21" stop-color="#005944"/>
<stop offset="0.33" stop-color="#008262"/>
<stop offset="0.45" stop-color="#00A37B"/>
<stop offset="0.58" stop-color="#00BC8F"/>
<stop offset="0.71" stop-color="#00CE9D"/>
<stop offset="0.85" stop-color="#00D9A5"/>
<stop offset="1" stop-color="#00DDA8"/>
</linearGradient>
<linearGradient id="paint2_linear_707_3" x1="11.1799" y1="52.02" x2="37.5999" y2="52.02" gradientUnits="userSpaceOnUse">
<stop/>
<stop offset="0.09" stop-color="#002B20"/>
<stop offset="0.21" stop-color="#005944"/>
<stop offset="0.33" stop-color="#008262"/>
<stop offset="0.45" stop-color="#00A37B"/>
<stop offset="0.58" stop-color="#00BC8F"/>
<stop offset="0.71" stop-color="#00CE9D"/>
<stop offset="0.85" stop-color="#00D9A5"/>
<stop offset="1" stop-color="#00DDA8"/>
</linearGradient>
<linearGradient id="paint3_linear_707_3" x1="13.7599" y1="9.86999" x2="30.9999" y2="9.86999" gradientUnits="userSpaceOnUse">
<stop/>
<stop offset="0.09" stop-color="#002B20"/>
<stop offset="0.21" stop-color="#005944"/>
<stop offset="0.33" stop-color="#008262"/>
<stop offset="0.45" stop-color="#00A37B"/>
<stop offset="0.58" stop-color="#00BC8F"/>
<stop offset="0.71" stop-color="#00CE9D"/>
<stop offset="0.85" stop-color="#00D9A5"/>
<stop offset="1" stop-color="#00DDA8"/>
</linearGradient>
<linearGradient id="paint4_linear_707_3" x1="88.71" y1="9.89" x2="106.05" y2="9.89" gradientUnits="userSpaceOnUse">
<stop/>
<stop offset="0.09" stop-color="#002B20"/>
<stop offset="0.21" stop-color="#005944"/>
<stop offset="0.33" stop-color="#008262"/>
<stop offset="0.45" stop-color="#00A37B"/>
<stop offset="0.58" stop-color="#00BC8F"/>
<stop offset="0.71" stop-color="#00CE9D"/>
<stop offset="0.85" stop-color="#00D9A5"/>
<stop offset="1" stop-color="#00DDA8"/>
</linearGradient>
<linearGradient id="paint5_linear_707_3" x1="27.6501" y1="42.3298" x2="47.8301" y2="42.3298" gradientUnits="userSpaceOnUse">
<stop/>
<stop offset="0.09" stop-color="#002B20"/>
<stop offset="0.21" stop-color="#005944"/>
<stop offset="0.33" stop-color="#008262"/>
<stop offset="0.45" stop-color="#00A37B"/>
<stop offset="0.58" stop-color="#00BC8F"/>
<stop offset="0.71" stop-color="#00CE9D"/>
<stop offset="0.85" stop-color="#00D9A5"/>
<stop offset="1" stop-color="#00DDA8"/>
</linearGradient>
<linearGradient id="paint6_linear_707_3" x1="70.05" y1="42.0901" x2="90.64" y2="42.0901" gradientUnits="userSpaceOnUse">
<stop/>
<stop offset="0.09" stop-color="#002B20"/>
<stop offset="0.21" stop-color="#005944"/>
<stop offset="0.33" stop-color="#008262"/>
<stop offset="0.45" stop-color="#00A37B"/>
<stop offset="0.58" stop-color="#00BC8F"/>
<stop offset="0.71" stop-color="#00CE9D"/>
<stop offset="0.85" stop-color="#00D9A5"/>
<stop offset="1" stop-color="#00DDA8"/>
</linearGradient>
<linearGradient id="paint7_linear_707_3" x1="0.4999" y1="32.7" x2="11.7499" y2="32.7" gradientUnits="userSpaceOnUse">
<stop/>
<stop offset="0.09" stop-color="#002B20"/>
<stop offset="0.21" stop-color="#005944"/>
<stop offset="0.33" stop-color="#008262"/>
<stop offset="0.45" stop-color="#00A37B"/>
<stop offset="0.58" stop-color="#00BC8F"/>
<stop offset="0.71" stop-color="#00CE9D"/>
<stop offset="0.85" stop-color="#00D9A5"/>
<stop offset="1" stop-color="#00DDA8"/>
</linearGradient>
<linearGradient id="paint8_linear_707_3" x1="103.68" y1="32.6799" x2="115.18" y2="32.6799" gradientUnits="userSpaceOnUse">
<stop/>
<stop offset="0.09" stop-color="#002B20"/>
<stop offset="0.21" stop-color="#005944"/>
<stop offset="0.33" stop-color="#008262"/>
<stop offset="0.45" stop-color="#00A37B"/>
<stop offset="0.58" stop-color="#00BC8F"/>
<stop offset="0.71" stop-color="#00CE9D"/>
<stop offset="0.85" stop-color="#00D9A5"/>
<stop offset="1" stop-color="#00DDA8"/>
</linearGradient>
<linearGradient id="paint9_linear_707_3" x1="38.5699" y1="11.43" x2="47.9599" y2="11.43" gradientUnits="userSpaceOnUse">
<stop/>
<stop offset="0.09" stop-color="#002B20"/>
<stop offset="0.21" stop-color="#005944"/>
<stop offset="0.33" stop-color="#008262"/>
<stop offset="0.45" stop-color="#00A37B"/>
<stop offset="0.58" stop-color="#00BC8F"/>
<stop offset="0.71" stop-color="#00CE9D"/>
<stop offset="0.85" stop-color="#00D9A5"/>
<stop offset="1" stop-color="#00DDA8"/>
</linearGradient>
<linearGradient id="paint10_linear_707_3" x1="70.5799" y1="11.4701" x2="79.9899" y2="11.4701" gradientUnits="userSpaceOnUse">
<stop/>
<stop offset="0.09" stop-color="#002B20"/>
<stop offset="0.21" stop-color="#005944"/>
<stop offset="0.33" stop-color="#008262"/>
<stop offset="0.45" stop-color="#00A37B"/>
<stop offset="0.58" stop-color="#00BC8F"/>
<stop offset="0.71" stop-color="#00CE9D"/>
<stop offset="0.85" stop-color="#00D9A5"/>
<stop offset="1" stop-color="#00DDA8"/>
</linearGradient>
<linearGradient id="paint11_linear_707_3" x1="57.54" y1="4.60984" x2="66.73" y2="4.60984" gradientUnits="userSpaceOnUse">
<stop/>
<stop offset="0.09" stop-color="#002B20"/>
<stop offset="0.21" stop-color="#005944"/>
<stop offset="0.33" stop-color="#008262"/>
<stop offset="0.45" stop-color="#00A37B"/>
<stop offset="0.58" stop-color="#00BC8F"/>
<stop offset="0.71" stop-color="#00CE9D"/>
<stop offset="0.85" stop-color="#00D9A5"/>
<stop offset="1" stop-color="#00DDA8"/>
</linearGradient>
<linearGradient id="paint12_linear_707_3" x1="89.9301" y1="31.5501" x2="99.0501" y2="31.5501" gradientUnits="userSpaceOnUse">
<stop/>
<stop offset="0.09" stop-color="#002B20"/>
<stop offset="0.21" stop-color="#005944"/>
<stop offset="0.33" stop-color="#008262"/>
<stop offset="0.45" stop-color="#00A37B"/>
<stop offset="0.58" stop-color="#00BC8F"/>
<stop offset="0.71" stop-color="#00CE9D"/>
<stop offset="0.85" stop-color="#00D9A5"/>
<stop offset="1" stop-color="#00DDA8"/>
</linearGradient>
<linearGradient id="paint13_linear_707_3" x1="19.72" y1="32.6798" x2="28.96" y2="32.6798" gradientUnits="userSpaceOnUse">
<stop/>
<stop offset="0.09" stop-color="#002B20"/>
<stop offset="0.21" stop-color="#005944"/>
<stop offset="0.33" stop-color="#008262"/>
<stop offset="0.45" stop-color="#00A37B"/>
<stop offset="0.58" stop-color="#00BC8F"/>
<stop offset="0.71" stop-color="#00CE9D"/>
<stop offset="0.85" stop-color="#00D9A5"/>
<stop offset="1" stop-color="#00DDA8"/>
</linearGradient>
<linearGradient id="paint14_linear_707_3" x1="1.42993" y1="89.04" x2="27.7799" y2="89.04" gradientUnits="userSpaceOnUse">
<stop stop-color="#009994"/>
<stop offset="1" stop-color="#00DDA8"/>
</linearGradient>
<linearGradient id="paint15_linear_707_3" x1="29.9399" y1="89.4" x2="56.2899" y2="89.4" gradientUnits="userSpaceOnUse">
<stop stop-color="#009994"/>
<stop offset="1" stop-color="#00DDA8"/>
</linearGradient>
<linearGradient id="paint16_linear_707_3" x1="58.44" y1="-75" x2="84.8" y2="-75" gradientUnits="userSpaceOnUse">
<stop stop-color="#009994"/>
<stop offset="1" stop-color="#00DDA8"/>
</linearGradient>
<linearGradient id="paint17_linear_707_3" x1="86.8" y1="89.7499" x2="113.46" y2="89.7499" gradientUnits="userSpaceOnUse">
<stop stop-color="#009994"/>
<stop offset="1" stop-color="#00DDA8"/>
</linearGradient>
</defs>
</svg>
