<svg width="258" height="265" viewBox="0 0 258 265" fill="none" xmlns="http://www.w3.org/2000/svg">
<path d="M127.5 265C194.603 265 249 259.18 249 252C249 244.82 194.603 239 127.5 239C60.3974 239 6 244.82 6 252C6 259.18 60.3974 265 127.5 265Z" fill="white"/>
<path fill-rule="evenodd" clip-rule="evenodd" d="M252.814 200.977C250.685 204.818 245.834 207 238.958 207H19.0365C12.1655 207 7.31986 204.818 5.1856 200.977C3.06223 197.142 3.7809 191.881 7.4233 186.06L95.5976 45.2496C95.6466 45.1789 95.6629 45.0918 95.6575 45.0048L109.96 22.1983L110.091 22.0732L115.683 12.9659C119.363 7.07386 124.138 4 129 4C133.862 4 138.631 7.07386 142.317 12.9604C142.317 12.9659 240.711 170.255 250.473 185.858C250.506 185.924 250.538 185.989 250.582 186.054C254.219 191.881 254.938 197.142 252.814 200.972V200.977Z" fill="white"/>
<g opacity="0.23">
<path d="M127.812 265C194.912 265 249.308 259.11 249.308 251.845C249.308 244.58 194.912 238.69 127.812 238.69C60.7125 238.69 6.3172 244.58 6.3172 251.845C6.3172 259.11 60.7125 265 127.812 265Z" fill="url(#paint0_linear_587_88)"/>
</g>
<path fill-rule="evenodd" clip-rule="evenodd" d="M104.498 27.2086L94.1889 43C93.373 42.5465 92.4558 42.2604 92 42.4439L106 21C105.207 22.7222 103.867 26.4798 104.498 27.214V27.2086Z" fill="url(#paint1_linear_587_88)"/>
<path fill-rule="evenodd" clip-rule="evenodd" d="M254.549 184.805C254.549 184.734 254.505 184.637 254.429 184.517L145.752 10.8597C141.169 3.52926 135.051 0 129.004 0C122.957 0 116.833 3.5347 112.255 10.8597L105.969 20.5883C105.882 20.7297 105.762 20.9744 105.615 21.2952V21.3115C104.842 23.0463 103.547 26.8311 104.156 27.5707L94.1844 43.4768C93.3951 43.0201 92.5079 42.7318 92.067 42.9167H92.0616C91.9636 42.9602 91.8929 43.0146 91.8439 43.0962L4.0196 183.875C-0.612472 191.271 -1.02615 198.025 1.67907 202.903C4.38429 207.775 10.3281 211 19.0643 211H238.932C247.669 211 253.618 207.77 256.323 202.903C258.914 198.237 258.637 191.836 254.549 184.811V184.805ZM252.785 200.934C250.657 204.773 245.807 206.954 238.932 206.954H19.0697C12.2006 206.954 7.35621 204.773 5.22252 200.934C3.09972 197.1 3.8182 191.842 7.45963 186.023L95.6105 45.2768C95.6595 45.2061 95.6758 45.1191 95.6704 45.0321L109.969 22.236L110.1 22.1109L115.69 13.0077C119.37 7.11835 124.143 4.04588 129.004 4.04588C133.865 4.04588 138.633 7.11835 142.318 13.0023C142.318 13.0077 240.685 170.226 250.445 185.822C250.477 185.887 250.51 185.953 250.553 186.018C254.189 191.842 254.908 197.1 252.785 200.929V200.934Z" fill="url(#paint2_linear_587_88)"/>
<path d="M149 81.9392C149 98.2525 140.043 157 129 157C117.957 157 109 98.2579 109 81.9392C109 65.6205 117.957 46 129 46C140.048 46 149 65.6205 149 81.9392Z" fill="url(#paint3_linear_587_88)"/>
<path d="M138.699 183.838C139.577 178.432 135.904 173.339 130.496 172.462C125.088 171.585 119.993 175.255 119.115 180.66C118.237 186.065 121.909 191.159 127.317 192.036C132.725 192.913 137.821 189.243 138.699 183.838Z" fill="url(#paint4_linear_587_88)"/>
<defs>
<linearGradient id="paint0_linear_587_88" x1="6.32264" y1="251.845" x2="249.308" y2="251.845" gradientUnits="userSpaceOnUse">
<stop stop-color="#009994"/>
<stop offset="1" stop-color="#00DDA8"/>
</linearGradient>
<linearGradient id="paint1_linear_587_88" x1="92" y1="31.9973" x2="106" y2="31.9973" gradientUnits="userSpaceOnUse">
<stop stop-color="#009994"/>
<stop offset="1" stop-color="#00DDA8"/>
</linearGradient>
<linearGradient id="paint2_linear_587_88" x1="0.00259755" y1="105.497" x2="258.005" y2="105.497" gradientUnits="userSpaceOnUse">
<stop stop-color="#009994"/>
<stop offset="1" stop-color="#00DDA8"/>
</linearGradient>
<linearGradient id="paint3_linear_587_88" x1="109" y1="101.5" x2="149" y2="101.5" gradientUnits="userSpaceOnUse">
<stop stop-color="#009994"/>
<stop offset="1" stop-color="#00DDA8"/>
</linearGradient>
<linearGradient id="paint4_linear_587_88" x1="118.995" y1="182.247" x2="138.83" y2="182.247" gradientUnits="userSpaceOnUse">
<stop stop-color="#009994"/>
<stop offset="1" stop-color="#00DDA8"/>
</linearGradient>
</defs>
</svg>
