<svg xmlns="http://www.w3.org/2000/svg" width="102" height="185" viewBox="0 0 102 185" fill="none">
<path d="M82.5178 104.861C78.4546 100.69 74.0812 96.8344 69.5376 93.2425C68.687 92.5683 68.5168 92.1049 69.4676 91.4623C69.8779 91.1779 70.2482 90.8198 70.6185 90.5038C78.4747 83.9835 85.8604 76.9577 91.9652 68.5731C97.7898 60.5149 101.953 51.8143 101.793 41.2913C101.693 35.9087 101.723 30.4839 101.723 25.1013V0H0.163119V28.63C0.163119 32.3378 0.13308 36.0772 0.0229939 39.785C-0.277242 50.3396 3.34562 59.293 9.1702 67.4881C15.4351 76.3257 23.1312 83.6781 31.3276 90.4511C33.4293 92.1997 33.3992 92.1997 31.3576 93.8745C23.3914 100.468 15.9055 107.568 9.74065 116.047C3.70591 124.358 -0.257205 133.344 0.0130068 144.14C0.113085 148.206 0.153123 152.304 0.113092 156.401V184.104H101.713V155.611C101.713 151.408 101.713 147.163 101.783 142.95C101.853 135.924 100.022 129.541 96.769 123.484C92.9761 116.458 87.9621 110.433 82.5078 104.84L82.5178 104.861ZM93.9368 173.36C93.9368 175.046 93.1462 175.888 91.5649 175.888H50.7729C37.2523 175.888 23.7016 175.857 10.191 175.92C8.32952 175.92 7.81913 175.425 7.81913 173.455C7.91921 163.796 8.05932 154.126 7.81913 144.467C7.64899 137.188 9.72062 130.847 13.4435 124.927C19.5784 115.226 27.6347 107.494 36.2815 100.321C38.0729 98.8568 39.9344 97.4348 41.7658 95.9707C44.578 93.727 44.608 90.725 41.7658 88.5551C35.0205 83.3516 28.5554 77.8214 22.7308 71.5119C17.5468 65.8765 12.8331 59.8513 9.89076 52.5095C8.56973 49.2651 7.85917 45.8734 7.85917 42.313C7.88919 31.7269 7.88919 21.0986 7.85917 10.4703C7.82914 8.72174 8.25949 8.18451 9.96082 8.18451C37.3023 8.21611 64.6037 8.21611 91.9152 8.18451C93.5064 8.18451 93.9768 8.6796 93.9768 10.3544C93.9068 21.2671 93.9768 32.2114 93.9068 43.1557C93.8767 49.1493 91.5349 54.3844 88.4825 59.3036C82.4578 69.0049 74.4615 76.7049 65.8847 83.8361C64.1934 85.2581 62.432 86.6485 60.7007 88.0073C56.9377 90.9672 56.9077 93.569 60.6707 96.4552C67.1758 101.406 73.4107 106.757 78.9951 112.856C84.2492 118.523 88.9829 124.622 91.9752 132.006C93.2663 135.282 93.9368 138.673 93.9368 142.202C93.9068 152.578 93.9368 162.953 93.9368 173.329V173.36Z" fill="#FFC033"/>
<path d="M84.9898 162.49C84.7896 165.165 83.1283 166.556 80.216 166.556H22.2205C18.0872 166.556 16.8663 165.165 16.7362 160.888C16.566 156.222 18.2273 152.188 20.5692 148.406C25.7833 139.99 32.6987 133.291 40.0445 127.013C42.7166 124.727 45.5288 122.631 48.2709 120.45C49.9623 119.092 51.7237 119.092 53.455 120.377C62.402 127.15 70.9688 134.428 77.9142 143.519C80.9967 147.616 83.8789 151.861 84.8296 157.181C85.1699 158.961 85.1399 160.752 84.9998 162.49H84.9898Z" fill="#FFC033"/>
<path d="M76.1528 61.1889C69.5476 69.0364 61.8916 75.5988 53.8253 81.7292C52.0939 83.0459 50.3325 83.4778 48.5111 82.0874C38.6233 74.5981 29.336 66.4346 21.8502 56.1645C17.2766 49.8865 16.1257 42.9028 16.8062 35.3081C17.0464 32.7801 18.7377 31.3897 21.5099 31.3475C26.724 31.3159 31.908 31.3475 37.0921 31.3475H79.6756C83.6087 31.3475 84.7196 32.8854 85.1299 36.9408C86.1407 46.7475 81.9774 54.2684 76.1528 61.1889Z" fill="#FFC033"/>
</svg>