<svg width="51" height="56" viewBox="0 0 51 56" fill="none" xmlns="http://www.w3.org/2000/svg">
<path d="M24.6701 55.8709C22.2201 55.1009 19.8301 54.2209 17.5401 53.0609C11.6701 50.0909 6.68006 46.1309 3.31006 40.3709C1.11006 36.6109 -0.00993362 32.5409 6.63762e-05 28.1709C6.63762e-05 22.1809 6.63762e-05 16.1809 6.63762e-05 10.1909C6.63762e-05 8.86088 0.50007 8.35089 1.84007 8.33089C7.36007 8.23089 12.7001 7.26085 17.7801 5.04085C20.1501 4.01085 22.3101 2.67087 23.9701 0.620869C24.6101 -0.169131 25.6701 -0.219139 26.3001 0.550861C28.4701 3.22086 31.4001 4.70091 34.5301 5.85091C37.8701 7.08091 41.3201 7.79088 44.8601 8.13088C46.1301 8.25088 47.3901 8.3309 48.6601 8.3409C49.7801 8.3509 50.3201 8.9109 50.3201 10.0309C50.3201 16.2609 50.3601 22.4909 50.3001 28.7209C50.2501 33.9909 48.4701 38.7109 45.3301 42.9209C42.3201 46.9709 38.4401 50.0109 34.0401 52.4109C31.3701 53.8709 28.5501 54.9709 25.6501 55.8709H24.6701ZM47.4301 20.5209C47.4301 19.9609 47.4301 19.3909 47.4301 18.8309C47.4301 16.5109 47.4201 14.1809 47.4401 11.8609C47.4401 11.3609 47.2901 11.1809 46.7901 11.2109C46.3901 11.2309 46.0001 11.1509 45.6001 11.1309C41.5601 10.8409 37.6201 10.0409 33.8101 8.68087C30.7601 7.59087 27.8901 6.19088 25.5001 3.94088C25.1701 3.63088 24.9901 3.8309 24.7801 4.0309C23.2501 5.4609 21.4901 6.54086 19.6001 7.42086C14.5101 9.79086 9.12007 10.9209 3.55007 11.2209C3.05007 11.2509 2.90007 11.3909 2.91007 11.8809C2.93007 17.4509 2.91007 23.0309 2.93007 28.6009C2.93007 30.5309 3.26007 32.4309 3.83007 34.2809C5.13007 38.5009 7.54007 42.0109 10.7701 44.9809C14.7801 48.6509 19.4501 51.1409 24.6001 52.8009C24.9501 52.9109 25.2901 52.9609 25.6601 52.8409C31.7801 50.8609 37.2401 47.8109 41.5701 42.9609C45.3601 38.7309 47.4201 33.7909 47.4401 28.0609C47.4401 25.5509 47.4401 23.0509 47.4401 20.5409L47.4301 20.5209Z" fill="url(#paint0_linear_633_1434)"/>
<path d="M25.1309 39.212C22.9709 39.212 20.8109 39.212 18.6509 39.212C17.2509 39.212 16.7109 38.6619 16.7109 37.2519C16.7109 33.8519 16.7109 30.4619 16.7109 27.0619C16.7109 25.6119 17.2209 25.1119 18.6909 25.1119C19.5209 25.1119 19.5109 25.1119 19.5309 24.2919C19.5509 23.3319 19.4509 22.372 19.6209 21.412C20.1109 18.602 22.7009 16.5419 25.5109 16.7419C28.4509 16.9519 30.7609 19.3519 30.8109 22.2519C30.8209 23.0319 30.8309 23.812 30.8109 24.592C30.8009 25.002 30.9509 25.1619 31.3509 25.1219C31.4809 25.1119 31.6009 25.1219 31.7309 25.1219C33.1109 25.1219 33.6309 25.6419 33.6309 27.0419C33.6309 30.4519 33.6309 33.872 33.6309 37.282C33.6309 38.682 33.0809 39.222 31.6709 39.222C29.4909 39.222 27.3109 39.222 25.1309 39.222V39.212ZM25.1509 28.0019C23.5409 28.0019 21.9209 28.0219 20.3109 27.9919C19.8009 27.9919 19.6509 28.1519 19.6609 28.6419C19.6809 30.9419 19.6809 33.2519 19.6609 35.5519C19.6609 36.0619 19.7909 36.2519 20.3309 36.2519C23.5609 36.2319 26.7909 36.2319 30.0209 36.2519C30.5209 36.2519 30.6809 36.082 30.6709 35.592C30.6509 33.272 30.6509 30.9519 30.6709 28.6219C30.6709 28.1519 30.5409 27.9819 30.0509 27.9919C28.4209 28.0219 26.7809 27.9919 25.1509 27.9919V28.0019ZM25.1509 25.102C25.9109 25.102 26.6709 25.092 27.4409 25.102C27.7909 25.102 27.9309 24.9819 27.9209 24.6219C27.9009 23.8419 27.9409 23.062 27.9109 22.282C27.8509 20.842 26.7809 19.7619 25.3009 19.6319C24.0109 19.5119 22.7709 20.4919 22.5109 21.8719C22.3309 22.8219 22.4609 23.7919 22.4409 24.7519C22.4409 25.0619 22.6309 25.102 22.8809 25.092C23.6409 25.092 24.4009 25.092 25.1709 25.092L25.1509 25.102Z" fill="url(#paint1_linear_633_1434)"/>
<defs>
<linearGradient id="paint0_linear_633_1434" x1="6.6376e-05" y1="27.9309" x2="50.3401" y2="27.9309" gradientUnits="userSpaceOnUse">
<stop stop-color="#009994"/>
<stop offset="1" stop-color="#00DDA8"/>
</linearGradient>
<linearGradient id="paint1_linear_633_1434" x1="16.7109" y1="27.9619" x2="33.6209" y2="27.9619" gradientUnits="userSpaceOnUse">
<stop stop-color="#009994"/>
<stop offset="1" stop-color="#00DDA8"/>
</linearGradient>
</defs>
</svg>
