<svg width="132" height="99" viewBox="0 0 132 99" fill="none" xmlns="http://www.w3.org/2000/svg">
<path d="M0.820068 0.700195V98.1002H131.07V0.700195H0.820068ZM123.54 3.2102C123.47 3.8602 123.41 4.5102 123.34 5.1502C123.36 7.6702 123.34 10.1802 123.34 12.7002V28.4102H120.76C120.76 21.2602 120.76 11.3002 120.76 6.6402C120.66 5.5002 120.57 4.3602 120.46 3.2102H123.52H123.54ZM119.91 69.8802C119.91 69.8802 119.91 69.8902 119.91 69.9002C119.91 69.9002 119.91 69.8902 119.91 69.8802ZM119.34 3.2102C119.24 4.3502 119.14 5.4902 119.04 6.6402C119.05 11.3702 119.04 21.2602 119.04 28.4102H116.32V21.0202C116.32 16.9802 116.31 7.3502 116.32 3.4602C116.31 3.3802 116.3 3.3002 116.29 3.2202H119.32L119.34 3.2102ZM114.63 3.2102C114.62 3.2902 114.61 3.3702 114.6 3.4502C114.62 7.4102 114.6 16.9302 114.6 21.0102V28.4002H112.28V21.0102C112.28 16.9702 112.27 7.3402 112.28 3.4502C112.28 3.3702 112.26 3.2902 112.25 3.2102H114.62H114.63ZM110.58 3.2102C110.57 3.2902 110.56 3.3702 110.55 3.4502C110.57 7.4102 110.55 16.9302 110.55 21.0102V28.4002H107.83C107.83 21.2502 107.83 11.2902 107.83 6.6302C107.73 5.4902 107.64 4.3502 107.53 3.2002H110.56L110.58 3.2102ZM106.41 3.2102C106.31 4.3502 106.21 5.4902 106.11 6.6402C106.12 11.3702 106.11 21.2602 106.11 28.4102H103.53V12.7002C103.53 10.1802 103.53 7.6702 103.53 5.1502C103.47 4.5102 103.4 3.8602 103.33 3.2102H106.38H106.41ZM102 3.2102C101.93 3.8602 101.87 4.5102 101.8 5.1502C101.82 7.6702 101.8 10.1802 101.8 12.7002V28.4102H97.7501V12.7002C97.7501 10.1802 97.7501 7.6702 97.7501 5.1502C97.6901 4.5102 97.62 3.8602 97.55 3.2102H101.97H102ZM96.2301 3.2102C96.1601 3.8602 96.1001 4.5102 96.0301 5.1502C96.0501 7.6702 96.0301 10.1802 96.0301 12.7002V28.4102H93.4501C93.4501 21.2602 93.4501 11.3002 93.4501 6.6402C93.3501 5.5002 93.2601 4.3602 93.1501 3.2102H96.2001H96.2301ZM93.4701 60.8602V33.7502C93.4701 32.9402 93.4701 31.9802 93.4701 30.9202H96.05V50.4602C96.3101 52.9802 96.5701 55.4902 96.9101 58.0102C97.2601 55.4902 97.51 52.9802 97.7701 50.4602V30.9202H101.82V50.4602C102.08 52.9802 102.34 55.4902 102.68 58.0102C103.03 55.4902 103.28 52.9802 103.54 50.4602V30.9202H106.12V60.8702C106.35 63.4602 106.56 66.0502 106.84 68.6302H92.7401C93.0201 66.0402 93.23 63.4502 93.4601 60.8702L93.4701 60.8602ZM92.61 69.8802C92.61 69.8802 92.61 69.8902 92.61 69.9002C92.61 69.9002 92.61 69.8902 92.61 69.8802ZM92.0301 3.2102C91.9301 4.3502 91.8301 5.4902 91.7301 6.6402C91.7401 11.3702 91.7301 21.2602 91.7301 28.4102H89.0101V21.0202C89.0101 16.9802 89.0001 7.3502 89.0101 3.4602C89.0101 3.3802 88.9901 3.3002 88.9801 3.2202H92.0101L92.0301 3.2102ZM87.3201 3.2102C87.3101 3.2902 87.3001 3.3702 87.2901 3.4502C87.3101 7.4102 87.2901 16.9302 87.2901 21.0102V28.4002H84.9701V21.0102C84.9701 16.9702 84.9601 7.3402 84.9701 3.4502C84.9601 3.3702 84.9501 3.2902 84.9401 3.2102H87.3H87.3201ZM83.2801 3.2102C83.2701 3.2902 83.2601 3.3702 83.2501 3.4502C83.2701 7.4102 83.2501 16.9302 83.2501 21.0102V28.4002H80.5301C80.5301 21.2502 80.5301 11.2902 80.5301 6.6302C80.4301 5.4902 80.3401 4.3502 80.2301 3.2002H83.2601L83.2801 3.2102ZM79.1001 3.2102C79.0001 4.3502 78.9 5.4902 78.8 6.6402C78.8101 11.3702 78.8 21.2602 78.8 28.4102H76.2201V12.7002C76.2201 10.1802 76.2201 7.6702 76.2201 5.1502C76.1601 4.5102 76.09 3.8602 76.0201 3.2102H79.08H79.1001ZM74.7001 3.2102C74.6301 3.8602 74.5701 4.5102 74.5001 5.1502C74.5201 7.6702 74.5001 10.1802 74.5001 12.7002V28.4102H71.7301V21.3402C71.7301 17.3002 71.7201 7.6702 71.7301 3.7802C71.7101 3.5902 71.6801 3.4002 71.6601 3.2102H74.6801H74.7001ZM70.08 3.2102C70.05 3.4002 70.0301 3.5902 70.0101 3.7802C70.0301 7.7402 70.0101 17.2602 70.0101 21.3402V28.4102H67.2901C67.2901 21.2802 67.2901 11.5502 67.2901 6.9602C67.1801 5.7102 67.0801 4.4602 66.9601 3.2102H70.0601H70.08ZM65.9001 3.2102C65.7901 4.4602 65.6801 5.7102 65.5701 6.9602C65.5801 11.6202 65.5701 21.2902 65.5701 28.4102H62.9901V13.0302C62.9901 10.5102 62.9901 8.0002 62.9901 5.4802C62.9201 4.7402 62.8401 3.9802 62.7601 3.2202H65.8801L65.9001 3.2102ZM61.5001 3.2102C61.4201 3.9702 61.34 4.7302 61.2701 5.4702C61.2901 7.9902 61.2701 10.5002 61.2701 13.0202V28.4002H57.5901V12.6902C57.5901 10.1702 57.5901 7.6602 57.5901 5.1402C57.5301 4.5002 57.4601 3.8502 57.3901 3.2002H61.4801L61.5001 3.2102ZM56.0601 3.2102C55.9901 3.8602 55.93 4.5102 55.86 5.1502C55.88 7.6702 55.86 10.1802 55.86 12.7002V28.4102H53.2801C53.2801 21.2602 53.2801 11.3002 53.2801 6.6402C53.1801 5.5002 53.0901 4.3602 52.9801 3.2102H56.0301H56.0601ZM51.8501 3.2102C51.7501 4.3502 51.65 5.4902 51.55 6.6402C51.56 11.3702 51.55 21.2602 51.55 28.4102H48.83V21.0202C48.83 16.9802 48.82 7.3502 48.83 3.4602C48.82 3.3802 48.81 3.3002 48.8 3.2202H51.83L51.8501 3.2102ZM47.1501 3.2102C47.1401 3.2902 47.1301 3.3702 47.1201 3.4502C47.1401 7.4102 47.1201 16.9302 47.1201 21.0102V28.4002H44.8V21.0102C44.8 16.9702 44.7901 7.3402 44.8 3.4502C44.8 3.3702 44.78 3.2902 44.7701 3.2102H47.1401H47.1501ZM43.1001 3.2102C43.0901 3.2902 43.0801 3.3702 43.0701 3.4502C43.0901 7.4102 43.0701 16.9302 43.0701 21.0102V28.4002H40.3501C40.3501 21.2502 40.3501 11.2902 40.3501 6.6302C40.2501 5.4902 40.16 4.3502 40.05 3.2002H43.08L43.1001 3.2102ZM38.9301 3.2102C38.8301 4.3502 38.7301 5.4902 38.6301 6.6402C38.6401 11.3702 38.6301 21.2602 38.6301 28.4102H36.05V12.7002C36.05 10.1802 36.05 7.6702 36.05 5.1502C35.99 4.5102 35.9201 3.8602 35.8501 3.2102H38.9001H38.9301ZM34.5201 3.2102C34.4501 3.8602 34.3901 4.5102 34.3201 5.1502C34.3401 7.6702 34.3201 10.1802 34.3201 12.7002V28.4102H30.2701V12.7002C30.2701 10.1802 30.2701 7.6702 30.2701 5.1502C30.2101 4.5102 30.1401 3.8602 30.0701 3.2102H34.4901H34.5201ZM28.7501 3.2102C28.6801 3.8602 28.62 4.5102 28.55 5.1502C28.57 7.6702 28.55 10.1802 28.55 12.7002V28.4102H25.9701C25.9701 21.2602 25.9701 11.3002 25.9701 6.6402C25.8701 5.5002 25.7801 4.3602 25.6701 3.2102H28.7201H28.7501ZM24.55 3.2102C24.45 4.3502 24.3501 5.4902 24.2501 6.6402C24.2601 11.3702 24.2501 21.2602 24.2501 28.4102H21.5301V21.0202C21.5301 16.9802 21.5201 7.3502 21.5301 3.4602C21.5301 3.3802 21.5101 3.3002 21.5001 3.2202H24.5301L24.55 3.2102ZM19.8401 3.2102C19.8301 3.2902 19.8201 3.3702 19.8101 3.4502C19.8301 7.4102 19.8101 16.9302 19.8101 21.0102V28.4002H17.4901V21.0102C17.4901 16.9702 17.4801 7.3402 17.4901 3.4502C17.4801 3.3702 17.4701 3.2902 17.4601 3.2102H19.8201H19.8401ZM15.8 3.2102C15.79 3.2902 15.7801 3.3702 15.7701 3.4502C15.7901 7.4102 15.7701 16.9302 15.7701 21.0102V28.4002H13.05C13.05 21.2502 13.05 11.2902 13.05 6.6302C12.95 5.4902 12.8601 4.3502 12.7501 3.2002H15.7801L15.8 3.2102ZM11.6201 3.2102C11.5201 4.3502 11.4201 5.4902 11.3201 6.6402C11.3301 11.3702 11.3201 21.2602 11.3201 28.4102H8.74005V12.7002C8.74005 10.1802 8.74005 7.6702 8.74005 5.1502C8.68005 4.5102 8.61007 3.8602 8.54007 3.2102H11.5901H11.6201ZM3.33005 3.2102H7.22006C7.15006 3.8602 7.09005 4.5102 7.02005 5.1502C7.04005 7.6702 7.02005 10.1802 7.02005 12.7002V28.4102H3.32007V3.2102H3.33005ZM3.33005 30.9102H7.03006V50.4502C7.29006 52.9702 7.55008 55.4802 7.89008 58.0002C8.24008 55.4802 8.49006 52.9702 8.75006 50.4502V30.9102H11.33V60.8602C11.56 63.4502 11.77 66.0402 12.05 68.6202H3.33005V30.9102ZM22.9101 94.9302H4.35007V71.1302H22.9101V94.9302ZM12.3401 68.6202C12.6201 66.0302 12.8401 63.4402 13.0601 60.8602V33.7502C13.0601 32.9402 13.0601 31.9802 13.0601 30.9202H15.7801V38.5802C16.0301 40.5002 16.3101 42.5202 16.6401 44.4302C16.9701 42.5202 17.2501 40.5002 17.5001 38.5802V30.9202H19.8201C19.8201 34.0002 19.8201 36.9302 19.8201 38.5802C20.0701 40.5002 20.3501 42.5202 20.6801 44.4302C21.0101 42.5202 21.2901 40.5002 21.5401 38.5802C21.5401 36.9102 21.5401 33.9802 21.5401 30.9202H24.2601V60.8702C24.4901 63.4602 24.7001 66.0502 24.9801 68.6302H12.33L12.3401 68.6202ZM25.9901 60.8602C25.9901 55.1002 25.9901 39.7002 25.9901 33.7502C25.9901 32.9402 25.9901 31.9802 25.9901 30.9202H28.5701V50.4602C28.8301 52.9802 29.0901 55.4902 29.4301 58.0102C29.7801 55.4902 30.0301 52.9802 30.2901 50.4602V30.9202H34.3401V50.4602C34.6001 52.9802 34.8601 55.4902 35.2001 58.0102C35.5401 55.4902 35.8001 52.9802 36.0601 50.4602V30.9202H38.6401V60.8702C38.8701 63.4602 39.08 66.0502 39.36 68.6302H25.2601C25.5401 66.0402 25.7501 63.4502 25.9801 60.8702L25.9901 60.8602ZM29.9401 95.5902H25.4201V71.1302H29.9401V95.5902ZM51.0001 94.9302H32.4401V71.1302H51.0001V94.9302ZM39.6401 68.6202C39.9201 66.0302 40.13 63.4402 40.36 60.8602C40.36 55.1002 40.36 39.7002 40.36 33.7502C40.36 32.9402 40.36 31.9802 40.36 30.9202H43.08V38.5802C43.33 40.5002 43.6101 42.5202 43.9401 44.4302C44.2701 42.5202 44.55 40.5002 44.8 38.5802V30.9202H47.1201V38.5802C47.3701 40.5002 47.6501 42.5202 47.9801 44.4302C48.3101 42.5202 48.5901 40.5002 48.8401 38.5802V30.9202H51.5601V60.8702C51.7901 63.4602 52.0001 66.0502 52.2801 68.6302H39.6401V68.6202ZM53.2901 60.8602V33.7502C53.2901 32.9402 53.2901 31.9802 53.2901 30.9202H55.8701V50.4602C56.1301 52.9802 56.3901 55.4902 56.7301 58.0102C57.0801 55.4902 57.3301 52.9802 57.5901 50.4602V30.9202H61.2701V50.7802C61.53 53.3002 61.7901 55.8102 62.1301 58.3302C62.4801 55.8102 62.7301 53.3002 62.9901 50.7802V30.9202H65.5701V61.1902C65.7901 63.6702 66.0001 66.1502 66.2601 68.6302H52.5601C52.8401 66.0402 53.0601 63.4502 53.2801 60.8702L53.2901 60.8602ZM77.8901 95.5902H53.5101V71.1302H77.8901V95.5902ZM66.61 68.6202C66.87 66.1402 67.08 63.6602 67.3 61.1802V34.0702C67.3 33.1802 67.3 32.1102 67.3 30.9102H70.0201V38.9002C70.2701 40.8202 70.5501 42.8402 70.8801 44.7502C71.2101 42.8402 71.4901 40.8202 71.7401 38.9002V30.9102H74.5101V50.4502C74.7701 52.9702 75.0301 55.4802 75.3701 58.0002C75.7201 55.4802 75.9701 52.9702 76.2301 50.4502V30.9102H78.8101V60.8602C79.0401 63.4502 79.2501 66.0402 79.5301 68.6202H66.61ZM79.6801 69.9002C79.6801 69.9002 79.6801 69.8902 79.6801 69.8802C79.6801 69.8802 79.6801 69.8902 79.6801 69.9002ZM80.5401 60.8602V33.7502C80.5401 32.9402 80.5401 31.9802 80.5401 30.9202H83.2601V38.5802C83.5101 40.5002 83.7901 42.5202 84.1201 44.4302C84.4501 42.5202 84.7301 40.5002 84.9801 38.5802V30.9202H87.3V38.5802C87.55 40.5002 87.8301 42.5202 88.1601 44.4302C88.4901 42.5202 88.7701 40.5002 89.0201 38.5802V30.9202H91.7401V60.8702C91.9701 63.4602 92.1801 66.0502 92.4601 68.6302H79.8101C80.0901 66.0402 80.3101 63.4502 80.5301 60.8702L80.5401 60.8602ZM98.9501 94.9302H80.3901V71.1302H98.9501V94.9302ZM105.98 95.5902H101.46V71.1302H105.98V95.5902ZM106.98 69.9002C106.98 69.9002 106.98 69.8902 106.98 69.8802C106.98 69.8802 106.98 69.8902 106.98 69.9002ZM107.85 60.8602V33.7502C107.85 32.9402 107.85 31.9802 107.85 30.9202H110.57V38.5802C110.82 40.5002 111.1 42.5202 111.43 44.4302C111.76 42.5202 112.04 40.5002 112.29 38.5802V30.9202H114.61V38.5802C114.86 40.5002 115.14 42.5202 115.47 44.4302C115.8 42.5202 116.08 40.5002 116.33 38.5802V30.9202H119.05V60.8702C119.28 63.4602 119.49 66.0502 119.77 68.6302H107.13C107.41 66.0402 107.62 63.4502 107.85 60.8702V60.8602ZM127.05 94.9302H108.49V71.1302H127.05V94.9302ZM128.56 68.6202H120.05C120.33 66.0302 120.55 63.4402 120.77 60.8602V33.7502C120.77 32.9402 120.77 31.9802 120.77 30.9202H123.35V50.4602C123.61 52.9802 123.87 55.4902 124.21 58.0102C124.56 55.4902 124.81 52.9802 125.07 50.4602V30.9202H128.55V68.6302L128.56 68.6202ZM128.56 28.4002H125.08V12.6902C125.08 10.1702 125.08 7.6602 125.08 5.1402C125.02 4.5002 124.95 3.8502 124.88 3.2002H128.55V28.4002H128.56Z" fill="url(#paint0_linear_548_67)"/>
<defs>
<linearGradient id="paint0_linear_548_67" x1="0.820068" y1="49.4002" x2="131.07" y2="49.4002" gradientUnits="userSpaceOnUse">
<stop stop-color="white"/>
<stop offset="1" stop-color="#00DDA8"/>
</linearGradient>
</defs>
</svg>
