<svg width="53" height="52" viewBox="0 0 53 52" fill="none" xmlns="http://www.w3.org/2000/svg">
<path d="M3.30893 26.3214C3.30893 29.6614 3.37893 33.0114 3.28893 36.3514C3.20893 39.1114 5.35893 41.0614 7.87893 40.9614C10.0589 40.8714 12.2389 40.9414 14.4189 40.9414C15.9089 40.9414 16.5089 41.6115 16.4289 43.1115C16.3589 44.5115 16.3389 45.9014 16.2989 47.3014C16.2989 47.6014 16.2089 47.9415 16.5789 48.1115C16.9089 48.2715 17.1289 48.0214 17.3489 47.8514C20.1189 45.7714 22.8989 43.6914 25.6589 41.5914C26.2489 41.1414 26.8689 40.9214 27.6189 40.9314C30.8189 40.9514 34.0189 40.8714 37.2089 40.9614C39.5589 41.0314 41.8489 39.4214 41.8389 36.3114C41.8189 32.2914 41.8389 28.2815 41.8389 24.2615C41.8389 23.7815 41.8889 23.3114 42.2389 22.9414C42.7089 22.4514 43.2689 22.2514 43.9189 22.4614C44.5889 22.6714 44.9689 23.1514 45.0589 23.8514C45.0789 24.0314 45.0689 24.2115 45.0689 24.3915C45.0689 28.4215 45.0689 32.4615 45.0689 36.4915C45.0689 40.9415 41.7689 44.2214 37.3089 44.2314C34.3089 44.2314 31.3089 44.2314 28.3189 44.2314C27.8189 44.2314 27.4189 44.3515 27.0189 44.6615C24.3889 46.6615 21.7489 48.6515 19.0989 50.6315C16.9889 52.2015 14.2089 51.4314 13.2789 49.0614C13.0889 48.5814 12.9889 48.0714 13.0289 47.5714C13.1089 46.6614 13.0489 45.7514 13.1089 44.8514C13.1389 44.4014 12.9789 44.2415 12.5189 44.2415C10.8889 44.2615 9.24893 44.2715 7.60893 44.2415C5.18893 44.1915 3.16893 43.2614 1.63893 41.3514C0.558929 39.9914 0.0189339 38.4214 0.0189339 36.7014C-0.00106609 29.7814 -0.0110661 22.8614 0.0189339 15.9314C0.0389339 11.7514 3.39893 8.45141 7.57893 8.44141C13.9589 8.44141 20.3289 8.44141 26.7089 8.44141C28.0189 8.44141 28.8489 9.55149 28.3789 10.6515C28.1189 11.2715 27.6389 11.6215 26.9489 11.6615C26.7489 11.6715 26.5489 11.6615 26.3489 11.6615C20.2089 11.6615 14.0689 11.6615 7.92893 11.6615C7.11893 11.6615 6.32893 11.7615 5.60893 12.1615C4.15893 12.9615 3.31893 14.1714 3.30893 15.8514C3.28893 19.3414 3.30893 22.8314 3.30893 26.3214Z" fill="url(#paint0_linear_694_1307)"/>
<path d="M34.1085 17.2124C34.1885 15.9924 34.2585 14.8125 34.3385 13.6425C34.3585 13.3125 34.2685 13.0525 34.0585 12.7925C33.3585 11.9825 32.6785 11.1524 31.9885 10.3324C30.3785 8.43243 31.0785 6.21246 33.4785 5.61246C34.5185 5.35246 35.5585 5.08244 36.5985 4.84244C37.0085 4.75244 37.2585 4.54241 37.4685 4.19241C38.0285 3.25241 38.6085 2.3325 39.1985 1.41251C40.3885 -0.477495 42.8685 -0.467485 44.0485 1.42251C44.6185 2.33251 45.1985 3.2325 45.7385 4.1525C45.9685 4.5525 46.2685 4.74244 46.7085 4.84244C47.7585 5.07244 48.7885 5.34246 49.8285 5.61246C52.1085 6.19246 52.8285 8.39243 51.3385 10.2124C50.6485 11.0524 49.9585 11.8924 49.2285 12.7124C48.9485 13.0224 48.8485 13.3425 48.8785 13.7525C48.9685 14.9425 49.0785 16.1424 49.0985 17.3424C49.1385 19.4224 47.3385 20.6824 45.3885 19.9524C44.3185 19.5524 43.2585 19.1225 42.2085 18.6625C41.7885 18.4725 41.4285 18.5025 41.0185 18.6725C40.0285 19.0925 39.0385 19.4825 38.0385 19.8825C35.8985 20.7325 34.0685 19.4624 34.1085 17.2024V17.2124ZM37.4785 16.1125C37.3985 16.5025 37.5185 16.6024 37.8985 16.4424C38.8685 16.0324 39.8485 15.6525 40.8185 15.2525C41.3485 15.0325 41.8785 15.0325 42.4085 15.2525C43.3185 15.6225 44.2285 15.9824 45.1385 16.3524C45.7985 16.6224 45.8085 16.6224 45.7785 15.9324C45.7385 15.1524 45.6885 14.3724 45.5985 13.6024C45.4885 12.6524 45.6185 11.8224 46.3385 11.1024C46.9785 10.4624 47.5085 9.7125 48.1085 9.0325C48.3685 8.7325 48.3485 8.60247 47.9385 8.50247C46.9285 8.27247 45.9385 7.99248 44.9285 7.76248C44.3185 7.62248 43.8785 7.30249 43.5585 6.77249C43.0085 5.87249 42.4385 4.99244 41.8885 4.09244C41.6985 3.77244 41.5785 3.75244 41.3785 4.09244C40.8285 4.99244 40.2585 5.87249 39.7085 6.77249C39.3885 7.30249 38.9485 7.62248 38.3485 7.76248C37.3385 7.99248 36.3485 8.27247 35.3385 8.50247C34.8985 8.60247 34.8885 8.73251 35.1585 9.04251C35.8385 9.82251 36.4885 10.6325 37.1685 11.4125C37.5185 11.8125 37.7085 12.2624 37.6785 12.8024C37.6085 13.9024 37.5485 15.0125 37.4885 16.1125H37.4785Z" fill="url(#paint1_linear_694_1307)"/>
<path d="M22.8791 20.752C25.7691 20.752 28.6491 20.752 31.5391 20.752C32.1991 20.752 32.6891 21.052 32.9891 21.642C33.2991 22.232 33.2091 22.8119 32.8191 23.3319C32.4691 23.8019 31.9691 23.9919 31.3891 23.9819C29.8691 23.9819 28.3391 23.9819 26.8191 23.9819C22.8091 23.9819 18.7991 23.9819 14.7791 23.9819C14.5991 23.9819 14.4191 23.9819 14.2391 23.9819C13.3091 23.9219 12.6191 23.2119 12.6391 22.3219C12.6591 21.4619 13.3491 20.772 14.2691 20.762C17.1391 20.752 20.0091 20.762 22.8691 20.762L22.8791 20.752Z" fill="url(#paint2_linear_694_1307)"/>
<path d="M18.8298 31.9316C17.3598 31.9316 15.8898 31.9516 14.4198 31.9316C13.0998 31.9116 12.2798 30.7517 12.7898 29.6317C13.0898 28.9617 13.6598 28.6517 14.3598 28.6517C17.3398 28.6317 20.3198 28.6317 23.2898 28.6517C24.3698 28.6517 25.0398 29.3717 25.0198 30.3417C24.9998 31.2817 24.2898 31.9216 23.2398 31.9316C21.7698 31.9416 20.2998 31.9316 18.8298 31.9316Z" fill="url(#paint3_linear_694_1307)"/>
<defs>
<linearGradient id="paint0_linear_694_1307" x1="-0.00106609" y1="29.9414" x2="45.0789" y2="29.9414" gradientUnits="userSpaceOnUse">
<stop stop-color="#009994"/>
<stop offset="1" stop-color="#00DDA8"/>
</linearGradient>
<linearGradient id="paint1_linear_694_1307" x1="31.1185" y1="10.0825" x2="52.1285" y2="10.0825" gradientUnits="userSpaceOnUse">
<stop stop-color="#009994"/>
<stop offset="1" stop-color="#00DDA8"/>
</linearGradient>
<linearGradient id="paint2_linear_694_1307" x1="12.6391" y1="22.3719" x2="33.1691" y2="22.3719" gradientUnits="userSpaceOnUse">
<stop stop-color="#009994"/>
<stop offset="1" stop-color="#00DDA8"/>
</linearGradient>
<linearGradient id="paint3_linear_694_1307" x1="12.6298" y1="30.2817" x2="25.0198" y2="30.2817" gradientUnits="userSpaceOnUse">
<stop stop-color="#009994"/>
<stop offset="1" stop-color="#00DDA8"/>
</linearGradient>
</defs>
</svg>
