<svg width="53" height="55" viewBox="0 0 53 55" fill="none" xmlns="http://www.w3.org/2000/svg">
<path d="M21.6158 54.91C19.7958 54.36 18.7558 53.14 18.4158 51.27C18.2258 50.2 17.9458 49.1401 17.7158 48.0801C17.6458 47.7601 17.5258 47.54 17.1958 47.4C15.9058 46.83 14.6758 46.12 13.5458 45.28C13.2658 45.08 13.0158 45.05 12.6958 45.16C11.5758 45.53 10.4458 45.8701 9.32584 46.2301C7.15584 46.9201 5.35584 46.23 4.20584 44.28C3.04584 42.29 1.88584 40.3 0.745837 38.3C-0.484163 36.15 -0.194166 34.3701 1.62583 32.6801C2.45583 31.9201 3.27584 31.15 4.11584 30.4C4.34584 30.19 4.47583 29.98 4.44583 29.66C4.30583 28.22 4.28583 26.7701 4.44583 25.3301C4.48583 24.9901 4.34584 24.76 4.09584 24.54C3.17584 23.72 2.27583 22.88 1.37583 22.04C-0.104166 20.65 -0.414167 18.7101 0.585833 16.9601C1.82583 14.7901 3.07583 12.6201 4.33583 10.4601C5.32583 8.77008 7.21583 8.07002 9.09583 8.65002C10.2758 9.01002 11.4458 9.38001 12.6158 9.76001C12.9858 9.88001 13.2758 9.86012 13.6058 9.62012C14.7158 8.80012 15.9058 8.11006 17.1658 7.56006C17.4858 7.42006 17.6358 7.22002 17.7058 6.90002C17.9558 5.71002 18.2258 4.53009 18.4858 3.34009C18.9558 1.22009 20.4758 0 22.6558 0C25.0858 0 27.5158 0 29.9458 0C31.9758 0 33.4958 1.20005 33.9658 3.18005C34.2558 4.40005 34.5358 5.61009 34.7958 6.84009C34.8758 7.21009 35.0358 7.43008 35.3858 7.58008C36.6358 8.12008 37.7958 8.82012 38.8958 9.62012C39.2158 9.85012 39.5158 9.90002 39.8858 9.77002C40.9658 9.40002 42.0558 9.07009 43.1458 8.72009C45.3458 8.02009 47.1458 8.70006 48.3058 10.6901C49.5158 12.7601 50.7058 14.83 51.9058 16.91C52.9158 18.66 52.6458 20.59 51.1758 22C50.2458 22.89 49.2958 23.7501 48.3358 24.6101C48.0858 24.8401 48.0258 25.06 48.0558 25.41C48.1758 26.78 48.1758 28.16 48.0558 29.53C48.0258 29.9 48.1058 30.1301 48.3658 30.3701C49.2858 31.1901 50.1958 32.0201 51.0858 32.8701C52.6758 34.3801 52.9258 36.28 51.8258 38.17C50.6358 40.22 49.4558 42.2901 48.2558 44.3401C47.1658 46.2001 45.4158 46.89 43.3658 46.28C42.1858 45.93 41.0158 45.55 39.8358 45.17C39.5058 45.06 39.2258 45.08 38.9358 45.29C37.7758 46.13 36.5458 46.8601 35.2358 47.4401C34.9758 47.5501 34.8658 47.74 34.8058 48C34.5858 49.03 34.2958 50.0501 34.1258 51.0801C33.7958 53.0001 32.8158 54.33 30.9258 54.91H21.5958H21.6158ZM44.6058 42.9301C45.0158 42.9501 45.1458 42.66 45.2958 42.4C46.4358 40.44 47.5658 38.47 48.7058 36.51C49.0558 35.9 49.0258 35.76 48.4958 35.27C47.4158 34.28 46.3558 33.2601 45.2458 32.3101C44.5058 31.6801 44.3058 30.93 44.4458 30.01C44.5658 29.2 44.6258 28.3801 44.6358 27.5601C44.6358 26.6701 44.5758 25.78 44.4458 24.89C44.3058 23.97 44.5358 23.2301 45.2758 22.6001C46.4058 21.6401 47.4658 20.6001 48.5658 19.6101C48.9458 19.2701 49.0258 18.9401 48.7558 18.4901C47.5958 16.5001 46.4358 14.51 45.2958 12.51C45.0258 12.04 44.7358 11.9201 44.2058 12.1001C42.7158 12.6101 41.2158 13.05 39.7158 13.53C39.0358 13.75 38.4158 13.6901 37.8458 13.2401C36.3358 12.0201 34.6858 11.0301 32.8658 10.3401C32.1958 10.0901 31.7958 9.61002 31.6358 8.90002C31.2958 7.33002 30.9158 5.77007 30.5758 4.20007C30.4658 3.70007 30.2058 3.49011 29.6858 3.49011C27.3958 3.50011 25.1158 3.50011 22.8258 3.49011C22.3158 3.49011 22.0458 3.67006 21.9358 4.19006C21.6158 5.73006 21.2358 7.25004 20.9058 8.79004C20.7358 9.60004 20.2858 10.12 19.5158 10.41C17.8258 11.04 16.2858 11.9401 14.8958 13.0801C14.2058 13.6401 13.5058 13.79 12.6558 13.5C11.1858 13 9.69584 12.5601 8.21584 12.0801C7.80584 11.9501 7.51584 11.99 7.27584 12.4C6.11584 14.43 4.94584 16.4601 3.75584 18.4701C3.48584 18.9301 3.54584 19.2401 3.92584 19.5901C5.05584 20.6001 6.15584 21.66 7.28584 22.66C7.95584 23.25 8.20584 23.92 8.06584 24.8C7.79584 26.58 7.79584 28.36 8.06584 30.14C8.19584 31 7.95584 31.6701 7.31584 32.2401C6.19584 33.2401 5.09584 34.26 3.99584 35.28C3.42584 35.81 3.42584 35.8801 3.81584 36.55C4.94584 38.5 6.08584 40.44 7.18584 42.4C7.45584 42.88 7.74583 43.0101 8.26583 42.8301C9.73583 42.3401 11.2358 41.9 12.7058 41.41C13.4758 41.15 14.1358 41.25 14.7558 41.76C16.2058 42.94 17.8058 43.88 19.5558 44.54C20.2858 44.82 20.7058 45.3301 20.8758 46.0901C21.2058 47.6301 21.5858 49.1501 21.9058 50.6901C22.0158 51.2301 22.2858 51.4301 22.8158 51.4301C25.0658 51.4101 27.3158 51.4301 29.5658 51.4301C30.2958 51.4301 30.3958 51.35 30.5558 50.65C30.9058 49.1 31.2658 47.55 31.6058 46C31.7658 45.3 32.1558 44.8201 32.8358 44.5701C34.6058 43.9001 36.2158 42.95 37.6858 41.77C38.3158 41.26 38.9758 41.15 39.7358 41.41C41.1758 41.89 42.6258 42.33 44.0758 42.79C44.2458 42.84 44.4158 42.8901 44.5658 42.9301H44.6058Z" fill="url(#paint0_linear_632_1328)"/>
<path d="M37.7359 27.469C37.7359 33.819 32.5959 38.959 26.2559 38.959C20.1859 38.959 14.8059 34.109 14.7659 27.449C14.7259 21.149 19.9659 15.959 26.2759 15.959C32.6159 15.959 37.7459 21.109 37.7359 27.469ZM26.2659 19.5389C21.8559 19.5389 18.3259 23.059 18.3159 27.449C18.3159 31.849 21.8359 35.3389 26.2459 35.3889C30.1359 35.4289 34.1859 32.369 34.1959 27.469C34.1959 22.599 30.1859 19.4589 26.2659 19.5389Z" fill="url(#paint1_linear_632_1328)"/>
<defs>
<linearGradient id="paint0_linear_632_1328" x1="0.00583567" y1="27.44" x2="52.5158" y2="27.44" gradientUnits="userSpaceOnUse">
<stop stop-color="#009994"/>
<stop offset="1" stop-color="#00DDA8"/>
</linearGradient>
<linearGradient id="paint1_linear_632_1328" x1="14.7559" y1="27.459" x2="37.7359" y2="27.459" gradientUnits="userSpaceOnUse">
<stop stop-color="#009994"/>
<stop offset="1" stop-color="#00DDA8"/>
</linearGradient>
</defs>
</svg>
