<svg width="47" height="47" viewBox="0 0 47 47" fill="none" xmlns="http://www.w3.org/2000/svg">
<path d="M25.12 4.60195C24.76 4.96195 24.05 5.31195 23.53 5.37195H7.46C6.19 5.54195 5.18 6.67195 5.2 7.97195V38.8319C5.2 40.2219 6.29 41.3719 7.68 41.4319H38.66C40 41.4519 41.15 40.3819 41.25 39.0719L41.28 22.8919C41.97 20.0719 45.91 20.0619 46.45 22.9819C46.1 28.4219 46.91 34.4319 46.45 39.8019C46.16 43.2319 43.11 46.2019 39.73 46.6319H6.83C3.32 46.2219 0.48 43.4119 0 39.9219V7.00195C0.26 3.72195 3.34 0.521947 6.61 0.181947C11.93 -0.378053 18.12 0.571947 23.54 0.161947C25.71 0.331947 26.63 3.08195 25.12 4.60195Z" fill="url(#paint0_linear_699_1308)"/>
<path d="M41.2508 9.12195L24.8608 25.452C22.3708 27.342 19.2908 24.262 21.1808 21.772L37.5008 5.37195H33.0808C32.8708 5.37195 31.8708 4.77195 31.6908 4.58195C30.1908 3.02195 31.1808 0.351951 33.3208 0.161951C36.8208 -0.148049 40.7808 0.401951 44.3308 0.161951C45.3308 0.271951 46.3308 1.28195 46.4508 2.28195C46.2008 5.86195 46.7908 9.89195 46.4508 13.412C46.2308 15.772 43.0108 16.492 41.6708 14.552C41.5808 14.422 41.2408 13.732 41.2408 13.652V9.11195L41.2508 9.12195Z" fill="url(#paint1_linear_699_1308)"/>
<defs>
<linearGradient id="paint0_linear_699_1308" x1="0" y1="23.3119" x2="46.6" y2="23.3119" gradientUnits="userSpaceOnUse">
<stop stop-color="#009994"/>
<stop offset="1" stop-color="#00DDA8"/>
</linearGradient>
<linearGradient id="paint1_linear_699_1308" x1="20.5908" y1="13.042" x2="46.5608" y2="13.042" gradientUnits="userSpaceOnUse">
<stop stop-color="#009994"/>
<stop offset="1" stop-color="#00DDA8"/>
</linearGradient>
</defs>
</svg>
