<svg width="48" height="46" viewBox="0 0 48 46" fill="none" xmlns="http://www.w3.org/2000/svg">
<path d="M36.6078 45.7184C35.9662 45.7184 35.3186 45.5376 34.7015 45.1729C31.278 43.154 27.6174 40.9904 24.0176 38.8449C22.0596 40.0111 20.1016 41.1682 18.1406 42.3284C16.5839 43.2504 15.0242 44.1725 13.4706 45.0946C12.0325 45.9474 10.5488 45.9172 9.29619 45.0042C8.02228 44.0791 7.52974 42.6809 7.90066 41.0658C8.29287 39.3723 8.68204 37.6758 9.0712 35.9823C9.59111 33.7132 10.111 31.4472 10.64 29.1812C8.63947 27.4605 6.61763 25.7008 4.66268 23.9982C3.68368 23.1454 2.70164 22.2897 1.71961 21.4369L1.58583 21.3224C1.16626 20.9638 0.64332 20.5148 0.330163 19.8037C-0.162376 18.6887 -0.101569 17.4774 0.497383 16.4739C1.1237 15.4283 2.23343 14.7623 3.54383 14.6478L13.8081 13.7438C14.0604 13.7227 14.3128 13.6986 14.5651 13.6745C14.9573 13.6354 15.3526 13.5992 15.7478 13.5691C16.5383 11.7038 17.344 9.83855 18.1254 8.02753L19.3385 5.21307C19.752 4.25483 20.1624 3.29659 20.579 2.33835C21.2296 0.834695 22.4488 0 24.0055 0H24.0115C25.5743 0 26.7935 0.831681 27.4472 2.34136L28.1282 3.91432C29.4903 7.06628 30.901 10.3237 32.257 13.5419C32.2631 13.557 32.2692 13.5691 32.2752 13.5811C32.2935 13.5811 32.3148 13.5871 32.3421 13.5871C34.0235 13.7197 35.7291 13.8764 37.377 14.0271L39.0796 14.1808C39.5964 14.226 40.1133 14.2802 40.6302 14.3314C41.749 14.4429 42.9044 14.5574 44.0293 14.6147C45.963 14.7141 47.2703 15.6061 47.9179 17.2694L48 17.4804V19.0232L47.9514 19.1889C47.6108 20.3491 46.7839 21.0542 46.1211 21.6207L44.6586 22.8863L39.5843 27.2948C39.3441 27.5027 39.1069 27.7137 38.8698 27.9216C38.3925 28.3435 37.8969 28.7804 37.3891 29.2023C37.9273 31.5195 38.4533 33.8096 38.9762 36.1028L39.4231 38.0494C39.6724 39.1191 39.9278 40.2281 40.1589 41.3279C40.469 42.7984 39.937 44.1484 38.6995 45.0283C38.0459 45.4924 37.3283 45.7274 36.5986 45.7274L36.6078 45.7184ZM24.0207 36.3499C24.3733 36.3499 24.726 36.4523 25.0726 36.6603C28.7332 38.8449 32.4607 41.0447 35.945 43.0998C36.4375 43.3921 36.8419 43.38 37.2918 43.0606C37.7479 42.7351 37.8999 42.3525 37.7874 41.8131C37.5594 40.7373 37.307 39.6404 37.0608 38.5828L36.6108 36.6301C36.0666 34.2556 35.5224 31.8781 34.969 29.5066C34.7805 28.693 35.0055 28.018 35.6409 27.5057C36.1852 27.0658 36.7051 26.6048 37.2554 26.1196C37.4986 25.9057 37.7388 25.6917 37.985 25.4778L44.537 19.7856C45.06 19.3396 45.4096 19.0292 45.5707 18.6435V17.9414C45.3184 17.4171 44.9019 17.0645 43.9077 17.0163C42.7219 16.956 41.5362 16.8385 40.39 16.724C39.8822 16.6728 39.3715 16.6216 38.8637 16.5764L37.1581 16.4227C35.5163 16.272 33.8198 16.1183 32.1506 15.9858C31.1108 15.9044 30.4115 15.4072 30.0163 14.467C28.6603 11.2578 27.2556 8.00644 25.8935 4.86051L25.2125 3.28755C24.878 2.51614 24.4402 2.40766 24.0146 2.40766H24.0115C23.519 2.40766 23.1268 2.55832 22.8076 3.29659C22.391 4.25182 21.9806 5.20705 21.5701 6.16227L20.357 8.97974C19.5513 10.845 18.7183 12.7765 17.9126 14.678C17.5842 15.4584 16.964 15.9014 16.1218 15.9616C15.6779 15.9918 15.2371 16.037 14.7962 16.0792C14.5378 16.1033 14.2793 16.1304 14.0209 16.1515L3.75665 17.0555C3.23371 17.1007 2.80806 17.3387 2.58915 17.7094C2.39153 18.0408 2.37937 18.4446 2.55571 18.8424C2.64996 19.0533 2.89319 19.2613 3.1729 19.5023L3.31884 19.6289C4.30088 20.4817 5.28291 21.3374 6.26495 22.1902C8.24118 23.9138 10.2873 25.6947 12.3092 27.4304C12.9994 28.024 13.2365 28.7412 13.0298 29.6271C12.4947 31.9233 11.9656 34.2225 11.4396 36.5216C11.0505 38.2182 10.6613 39.9147 10.2691 41.6112C10.0745 42.4519 10.3755 42.8075 10.7312 43.0666C11.1174 43.3469 11.5157 43.4493 12.2149 43.0335C13.7716 42.1084 15.3313 41.1863 16.891 40.2642C18.9068 39.0709 20.9256 37.8777 22.9383 36.6783C23.3001 36.4644 23.6619 36.3559 24.0207 36.3559V36.3499Z" fill="url(#paint0_linear_689_6)"/>
<defs>
<linearGradient id="paint0_linear_689_6" x1="-0.00123678" y1="22.8592" x2="48.003" y2="22.8592" gradientUnits="userSpaceOnUse">
<stop stop-color="#009994"/>
<stop offset="1" stop-color="#00DDA8"/>
</linearGradient>
</defs>
</svg>
