<svg width="59" height="49" viewBox="0 0 59 49" fill="none" xmlns="http://www.w3.org/2000/svg">
<path d="M0.030273 24.256C0.060273 23.256 -0.0897257 22.116 0.0902743 20.986C0.750274 16.856 3.64028 14.146 7.91028 13.656C8.36028 13.606 8.59027 13.446 8.79027 13.036C11.5103 7.47603 15.7203 3.44604 21.5803 1.42604C30.0903 -1.50396 37.8303 0.106017 44.6103 6.02602C46.8603 7.98602 48.5503 10.386 49.8203 13.086C49.9903 13.446 50.2003 13.596 50.6103 13.646C54.8803 14.116 57.7703 16.796 58.4803 20.926C58.5803 21.516 58.5603 22.1061 58.5403 22.6861C58.4803 24.5461 58.7103 26.426 58.4103 28.276C57.6803 32.746 53.3003 35.9061 48.8403 35.1861C48.4403 35.126 48.2303 35.226 48.0103 35.536C44.4503 40.636 39.6103 43.796 33.5103 45.016C33.1003 45.096 32.9403 45.346 32.7703 45.676C31.7003 47.806 29.3603 48.876 27.0903 48.296C24.8403 47.716 23.3203 45.676 23.3603 43.326C23.4003 41.226 24.9203 39.286 26.9503 38.726C29.0903 38.136 31.3403 38.966 32.4803 40.836C32.7903 41.346 33.0803 41.436 33.6103 41.286C41.6103 39.106 46.5903 33.976 48.0203 25.826C49.8703 15.296 42.6003 5.716 32.5203 4.006C22.3103 2.276 12.6503 8.886 10.6303 19.006C9.75027 23.436 10.3903 27.6761 12.4803 31.6861C13.2703 33.196 12.8603 34.266 11.2703 34.816C5.77027 36.726 0.0302746 32.646 0.0202746 26.816C0.0202746 26.006 0.0202746 25.206 0.0202746 24.256H0.030273ZM51.4703 17.546C51.3803 17.786 51.4703 17.996 51.5203 18.196C52.0503 20.796 52.1103 23.406 51.7403 26.026C51.4903 27.806 51.0203 29.516 50.3603 31.176C50.2303 31.486 50.2003 31.616 50.6403 31.576C52.8103 31.336 54.7403 29.546 54.8103 27.446C54.8803 25.496 55.0003 23.526 54.8503 21.566C54.7103 19.726 53.3303 18.066 51.4703 17.536V17.546ZM7.19028 17.546C5.42028 17.906 3.90027 19.686 3.75027 21.506C3.59027 23.486 3.71027 25.4661 3.78027 27.4361C3.86027 29.6761 6.01028 31.546 8.37028 31.556C6.51028 27.016 6.14028 22.366 7.19028 17.546ZM28.3303 44.756C29.0703 44.756 29.6103 44.226 29.6203 43.516C29.6203 42.776 29.0503 42.196 28.3203 42.206C27.6103 42.216 27.0803 42.776 27.0803 43.496C27.0803 44.246 27.5903 44.756 28.3403 44.756H28.3303Z" fill="url(#paint0_linear_633_1435)"/>
<path d="M29.0795 34.7678C28.3995 34.8078 27.5395 34.6778 26.6795 34.4778C26.4195 34.4178 26.2095 34.4478 25.9795 34.5778C24.6595 35.3478 23.3395 36.1078 22.0195 36.8778C21.8495 36.9778 21.6695 37.0878 21.4895 37.1578C20.9395 37.3878 20.4195 37.3179 19.9695 36.9379C19.5295 36.5679 19.3595 36.0778 19.5095 35.5178C19.8395 34.2178 20.1795 32.9178 20.5495 31.6378C20.6695 31.2078 20.6095 30.8978 20.3195 30.5478C18.4995 28.3478 17.5995 25.8178 17.6095 22.9678C17.6295 17.8778 21.0995 13.2878 25.9895 11.8778C32.5995 9.9678 39.3495 14.0178 40.7595 20.7578C42.1395 27.3378 37.4795 33.8578 30.8095 34.6778C30.2995 34.7378 29.7995 34.7478 29.0795 34.7678ZM23.2095 32.8578C23.9695 32.4178 24.6395 32.0478 25.2995 31.6578C25.7395 31.4078 26.1795 31.3378 26.6695 31.4878C27.7495 31.8178 28.8595 31.9278 29.9995 31.8478C34.9095 31.5078 38.6495 26.9678 38.0495 22.0678C37.2895 15.8878 30.6195 12.3978 25.1395 15.3178C19.9195 18.0878 18.9095 25.1378 23.1295 29.3678C23.6895 29.9378 23.8895 30.5178 23.6295 31.2878C23.4695 31.7578 23.3695 32.2578 23.2095 32.8578Z" fill="url(#paint1_linear_633_1435)"/>
<path d="M26.0902 23.0963C26.0902 23.8963 25.4302 24.5362 24.6502 24.5162C23.8602 24.4962 23.2402 23.8463 23.2602 23.0463C23.2702 22.2663 23.9002 21.6562 24.6802 21.6562C25.4802 21.6562 26.1002 22.2863 26.1002 23.0963H26.0902Z" fill="url(#paint2_linear_633_1435)"/>
<path d="M32.5002 23.1063C32.5002 22.2963 33.1102 21.6662 33.9102 21.6562C34.7002 21.6562 35.3202 22.2663 35.3302 23.0463C35.3402 23.8463 34.7302 24.5062 33.9402 24.5262C33.1602 24.5462 32.5002 23.8963 32.4902 23.1063H32.5002Z" fill="url(#paint3_linear_633_1435)"/>
<path d="M30.7111 23.0865C30.7111 23.9065 30.1011 24.5165 29.2811 24.5065C28.4711 24.5065 27.8711 23.8865 27.8711 23.0565C27.8711 22.2565 28.5111 21.6465 29.3211 21.6465C30.0911 21.6465 30.7011 22.2865 30.7011 23.0765L30.7111 23.0865Z" fill="url(#paint4_linear_633_1435)"/>
<defs>
<linearGradient id="paint0_linear_633_1435" x1="0.0102739" y1="24.236" x2="58.5803" y2="24.236" gradientUnits="userSpaceOnUse">
<stop stop-color="#009994"/>
<stop offset="1" stop-color="#00DDA8"/>
</linearGradient>
<linearGradient id="paint1_linear_633_1435" x1="17.6095" y1="24.3478" x2="40.9995" y2="24.3478" gradientUnits="userSpaceOnUse">
<stop stop-color="#009994"/>
<stop offset="1" stop-color="#00DDA8"/>
</linearGradient>
<linearGradient id="paint2_linear_633_1435" x1="23.2502" y1="23.0962" x2="26.0902" y2="23.0962" gradientUnits="userSpaceOnUse">
<stop stop-color="#009994"/>
<stop offset="1" stop-color="#00DDA8"/>
</linearGradient>
<linearGradient id="paint3_linear_633_1435" x1="32.5002" y1="23.0962" x2="35.3402" y2="23.0962" gradientUnits="userSpaceOnUse">
<stop stop-color="#009994"/>
<stop offset="1" stop-color="#00DDA8"/>
</linearGradient>
<linearGradient id="paint4_linear_633_1435" x1="27.8811" y1="23.0865" x2="30.7111" y2="23.0865" gradientUnits="userSpaceOnUse">
<stop stop-color="#009994"/>
<stop offset="1" stop-color="#00DDA8"/>
</linearGradient>
</defs>
</svg>
