<svg width="58" height="58" viewBox="0 0 58 58" fill="none" xmlns="http://www.w3.org/2000/svg">
<path d="M57.7802 28.9504C57.8702 44.8004 44.6902 57.8804 28.7502 57.8004C12.9902 57.7204 -0.0597939 44.7104 0.000206074 28.7804C0.0502061 13.0004 13.1002 -0.079635 29.0502 0.000365035C44.8702 0.080365 57.9202 13.1404 57.7802 28.9404V28.9504ZM31.1802 28.9304C31.1802 36.6404 31.1802 44.3504 31.1802 52.0704C31.1802 52.2504 31.1802 52.4404 31.1802 52.6204C31.1702 52.9704 31.2902 53.1304 31.6802 53.0504C32.2702 52.9404 32.8702 52.9004 33.4602 52.7904C45.2902 50.5504 53.8502 39.8704 53.1702 27.6404C52.9102 23.0504 51.5602 18.8403 48.9202 15.0903C44.7602 9.19033 39.0902 5.74039 31.9202 4.78039C31.2002 4.68039 31.1802 4.97038 31.1802 5.51038C31.1902 13.3104 31.1802 21.1204 31.1802 28.9204V28.9304Z" fill="url(#paint0_linear_632_1356)"/>
<defs>
<linearGradient id="paint0_linear_632_1356" x1="0.0102061" y1="28.9104" x2="57.7902" y2="28.9104" gradientUnits="userSpaceOnUse">
<stop stop-color="#009994"/>
<stop offset="1" stop-color="#00DDA8"/>
</linearGradient>
</defs>
</svg>
