<svg width="49" height="49" viewBox="0 0 49 49" fill="none" xmlns="http://www.w3.org/2000/svg">
<path d="M22.95 0.889648H26.89C27.64 0.999648 28.41 1.06961 29.15 1.22961C38.71 3.23961 44.98 8.91965 48.01 18.1996C48.51 19.7296 48.72 21.3296 48.91 22.9196V26.8596C48.86 27.2096 48.81 27.5696 48.76 27.9196C48.04 33.4496 45.71 38.1996 41.7 42.0596C36.43 47.1496 30.09 49.3896 22.78 48.8196C19.43 48.5596 16.29 47.5797 13.35 45.9597C4.45998 41.0597 -0.730022 30.9996 1.28998 20.6396C3.14998 11.0796 8.93998 4.84963 18.18 1.80963C19.73 1.29963 21.34 1.08965 22.95 0.889648ZM24.9 45.0996C36.03 45.0996 45.11 36.0496 45.13 24.9496C45.15 13.7696 36.09 4.67962 24.93 4.66962C13.78 4.66962 4.70997 13.7296 4.69997 24.8696C4.69997 36.0196 13.76 45.0896 24.9 45.0996Z" fill="url(#paint0_linear_237_14)"/>
<path d="M26.82 18.7594C26.82 20.3494 26.83 21.9494 26.82 23.5394C26.82 23.9294 26.95 24.1694 27.25 24.3994C29.28 25.9094 31.3 27.4294 33.32 28.9494C33.86 29.3494 34.22 29.8394 34.24 30.5494C34.26 31.3294 33.92 31.9094 33.25 32.2794C32.59 32.6394 31.92 32.5994 31.3 32.1894C30.87 31.9094 30.47 31.5794 30.05 31.2694C28.05 29.7694 26.06 28.2594 24.05 26.7794C23.32 26.2394 22.99 25.5794 23 24.6694C23.03 21.1094 23 17.5494 23.01 13.9894C23.01 12.8694 23.74 12.0594 24.77 11.9994C25.92 11.9294 26.81 12.7294 26.82 13.8894C26.84 15.5094 26.82 17.1394 26.82 18.7594Z" fill="url(#paint1_linear_237_14)"/>
<defs>
<linearGradient id="paint0_linear_237_14" x1="0.859978" y1="24.8996" x2="48.91" y2="24.8996" gradientUnits="userSpaceOnUse">
<stop stop-color="#009994"/>
<stop offset="1" stop-color="#00DDA8"/>
</linearGradient>
<linearGradient id="paint1_linear_237_14" x1="23" y1="22.2694" x2="34.24" y2="22.2694" gradientUnits="userSpaceOnUse">
<stop stop-color="#009994"/>
<stop offset="1" stop-color="#00DDA8"/>
</linearGradient>
</defs>
</svg>
