<svg width="33" height="33" viewBox="0 0 33 33" fill="none" xmlns="http://www.w3.org/2000/svg">
<path d="M24.7001 0.019989C25.8501 0.209989 26.9101 0.609996 27.8201 1.34C29.4101 2.63 30.2901 4.28999 30.3001 6.35999C30.3101 8.71999 30.3001 11.08 30.3001 13.44C30.3001 14.05 29.8701 14.57 29.3001 14.69C28.6801 14.83 28.0801 14.53 27.8001 13.97C27.7001 13.76 27.6801 13.54 27.6801 13.31C27.6801 11.07 27.6801 8.81999 27.6801 6.57999C27.6801 5.68999 27.4601 4.86999 26.9201 4.14999C26.1401 3.10999 25.0701 2.59998 23.7901 2.59998C18.0201 2.58998 12.2501 2.57998 6.49012 2.59998C4.28012 2.59998 2.61011 4.27999 2.61011 6.48999C2.60011 12.25 2.60011 18 2.61011 23.76C2.61011 26 4.30011 27.66 6.54011 27.67C8.77011 27.68 11.0001 27.67 13.2401 27.67C13.7901 27.67 14.2601 28.01 14.4501 28.51C14.6401 29.01 14.5001 29.59 14.1001 29.95C13.8601 30.16 13.5801 30.28 13.2601 30.28C10.8501 30.28 8.43009 30.3 6.02009 30.27C3.30009 30.23 0.690082 27.96 0.140082 25.21C0.0500825 24.75 0.000128875 24.28 0.000128875 23.81C0.000128875 18.02 0.0201289 12.23 0.000128875 6.44C-0.0198711 3.33 2.29008 0.519978 5.45008 0.039978C5.50008 0.039978 5.5501 0.01 5.6001 0C11.9701 0 18.3301 0 24.7001 0V0.019989Z" fill="black"/>
<path d="M32.8408 21.2998C32.6408 22.2998 32.1008 23.0898 31.3808 23.7998C29.3608 25.7798 27.3608 27.7899 25.3708 29.7999C23.7708 31.4199 21.8608 32.4198 19.6108 32.7698C19.1208 32.8498 18.6307 32.8699 18.1407 32.8599C17.3607 32.8499 16.8008 32.3098 16.8008 31.5298C16.8108 29.3298 17.4708 27.3298 18.7808 25.5498C19.1008 25.1198 19.4507 24.7198 19.8307 24.3398C21.9507 22.2098 24.0707 20.0898 26.2007 17.9698C27.7207 16.4598 29.9808 16.3798 31.5908 17.7798C32.1608 18.2798 32.5308 18.9098 32.7308 19.6398C32.7608 19.7598 32.8008 19.8898 32.8408 20.0098V21.2898V21.2998ZM19.7808 30.0598C19.7808 30.0598 19.8808 30.0298 19.9308 30.0198C21.1008 29.7298 22.1508 29.1998 23.0408 28.3798C24.3908 27.1298 25.6408 25.7898 26.9608 24.5098C27.1108 24.3598 27.1108 24.2698 26.9608 24.1198C26.5008 23.6798 26.0408 23.2298 25.6008 22.7598C25.4208 22.5698 25.3208 22.5898 25.1508 22.7598C23.9908 23.9398 22.8208 25.0998 21.6508 26.2698C21.2008 26.7198 20.8208 27.2098 20.4908 27.7498C20.1008 28.3898 19.8308 29.0898 19.6508 29.8198C19.6208 29.9398 19.5908 30.0599 19.7908 30.0499L19.7808 30.0598ZM28.9308 19.4498C28.7608 19.4398 28.5408 19.4898 28.3508 19.6198C27.9708 19.8798 27.6808 20.2398 27.3608 20.5598C27.2508 20.6598 27.3208 20.7498 27.4008 20.8298C27.8908 21.3198 28.3808 21.8098 28.8708 22.2998C28.9608 22.3898 29.0407 22.4198 29.1407 22.3098C29.4207 22.0098 29.7408 21.7299 29.9908 21.4099C30.3008 21.0199 30.3308 20.5598 30.1008 20.1198C29.8708 19.6698 29.5008 19.4498 28.9308 19.4498Z" fill="black"/>
<path d="M11.5996 11.3008C12.5896 11.3408 13.4996 11.6608 14.2296 12.3908C16.4196 14.5808 18.6096 16.7708 20.7996 18.9608C21.3596 19.5208 21.3596 20.3308 20.8396 20.8508C20.3096 21.3808 19.5096 21.3708 18.9496 20.8108C16.8396 18.7108 14.7396 16.6008 12.6296 14.4908C11.8996 13.7608 11.2196 13.7608 10.4996 14.4908C9.46963 15.5208 8.43959 16.5608 7.38959 17.5908C6.67959 18.2908 5.5896 18.0808 5.2196 17.1908C5.0196 16.6908 5.07959 16.2108 5.45959 15.8208C6.63959 14.6208 7.82961 13.4208 9.03961 12.2508C9.65961 11.6508 10.6796 11.3008 11.5996 11.3108V11.3008Z" fill="black"/>
<path d="M25.1697 8.99088C25.1697 11.1509 23.4597 12.8609 21.3097 12.8609C19.1397 12.8609 17.4297 11.1509 17.4297 8.98087C17.4297 6.83087 19.1497 5.13086 21.3097 5.13086C23.4597 5.13086 25.1697 6.84088 25.1697 9.00089V8.99088ZM22.5597 8.99088C22.5597 8.32088 21.9697 7.74088 21.2997 7.74088C20.6297 7.74088 20.0497 8.33088 20.0497 9.00089C20.0497 9.66088 20.6497 10.2509 21.3097 10.2509C21.9797 10.2509 22.5597 9.66088 22.5597 8.99088Z" fill="black"/>
</svg>
