<svg width="190" height="190" viewBox="0 0 190 190" fill="none" xmlns="http://www.w3.org/2000/svg">
<g clip-path="url(#clip0_632_1265)">
<path d="M95 190C147.467 190 190 147.467 190 95C190 42.5329 147.467 0 95 0C42.5329 0 0 42.5329 0 95C0 147.467 42.5329 190 95 190Z" fill="white"/>
<path d="M95 0C42.5286 0 0 42.5398 0 95C0 122.968 12.0838 148.11 31.308 165.496C40.8248 139.524 65.7882 120.95 95 120.95C104.965 120.95 114.426 123.113 122.945 126.981C139.434 134.468 152.426 148.368 158.703 165.485C165.294 159.522 171.045 152.639 175.753 145.05C184.788 130.523 190 113.372 190 95C190 42.5398 147.471 0 95 0ZM93.8566 114.269C72.9959 114.269 56.036 97.298 56.036 76.4484C56.036 55.5988 72.9959 38.6165 93.8566 38.6165C114.717 38.6165 131.688 55.5876 131.688 76.4484C131.688 97.3092 114.717 114.269 93.8566 114.269Z" fill="url(#paint0_linear_632_1265)"/>
<path d="M148.738 173.354C142.271 177.804 135.231 181.459 127.743 184.205C117.542 187.96 106.512 190 95.0003 190C75.0587 190 56.5519 183.857 41.2734 173.354C47.9655 150.005 69.5212 132.866 95.0003 132.866C101.816 132.866 108.351 134.088 114.393 136.329C130.949 142.472 143.829 156.237 148.738 173.354Z" fill="url(#paint1_linear_632_1265)"/>
<path d="M93.1513 103.564C107.836 103.564 119.74 91.6596 119.74 76.975C119.74 62.2904 107.836 50.3862 93.1513 50.3862C78.4667 50.3862 66.5625 62.2904 66.5625 76.975C66.5625 91.6596 78.4667 103.564 93.1513 103.564Z" fill="url(#paint2_linear_632_1265)"/>
</g>
<defs>
<linearGradient id="paint0_linear_632_1265" x1="0" y1="82.7481" x2="190" y2="82.7481" gradientUnits="userSpaceOnUse">
<stop stop-color="#009994"/>
<stop offset="1" stop-color="#00DDA8"/>
</linearGradient>
<linearGradient id="paint1_linear_632_1265" x1="41.2734" y1="161.439" x2="148.738" y2="161.439" gradientUnits="userSpaceOnUse">
<stop stop-color="#009994"/>
<stop offset="1" stop-color="#00DDA8"/>
</linearGradient>
<linearGradient id="paint2_linear_632_1265" x1="66.5625" y1="76.975" x2="119.74" y2="76.975" gradientUnits="userSpaceOnUse">
<stop stop-color="#009994"/>
<stop offset="1" stop-color="#00DDA8"/>
</linearGradient>
<clipPath id="clip0_632_1265">
<rect width="190" height="190" fill="white"/>
</clipPath>
</defs>
</svg>
