<svg width="23" height="48" viewBox="0 0 23 48" fill="none" xmlns="http://www.w3.org/2000/svg">
<path d="M3.77646 9.06828C4.00654 7.50775 4.07656 5.94716 4.08657 4.38663C4.08657 3.41629 4.1766 2.46598 4.40668 1.52566C4.47671 1.23556 4.57676 0.955511 4.73681 0.695422C5.30701 -0.224893 6.3874 -0.234896 6.94759 0.695422C7.33772 1.34564 7.42775 2.07589 7.50778 2.81614C7.63782 3.98654 7.58781 5.15684 7.63783 6.33724C7.67784 7.27757 7.66781 8.21797 7.85788 9.29834C8.07795 8.37803 8.12799 7.57773 8.19802 6.77746C8.33807 5.11689 8.33805 3.45635 8.61814 1.80579C8.66816 1.49568 8.74817 1.18553 8.8482 0.885429C9.00826 0.405264 9.28834 0.0251293 9.83853 0.00512249C10.4087 -0.0148844 10.8589 0.235201 11.129 0.755379C11.3791 1.24555 11.4691 1.79569 11.4991 2.33588C11.6992 5.78706 11.6592 9.23833 11.5891 12.6895C11.5691 13.9399 11.3691 15.1603 10.7889 16.3007C10.2387 17.3811 9.46845 18.2414 8.37807 18.7816C8.07797 18.9316 7.91791 19.1016 7.93792 19.4617C8.03795 21.6525 8.11795 23.8333 8.21798 26.024C8.268 27.0944 8.27804 28.1647 8.31805 29.2251C8.4381 32.0961 8.46806 34.9672 8.58811 37.8381C8.66813 39.6988 8.67814 41.5494 8.65814 43.41C8.64813 44.4103 8.59814 45.4106 8.24802 46.3609C7.77786 47.6214 6.66746 48.2216 5.40702 47.8915C4.7368 47.7114 4.28664 47.2713 3.96653 46.6711C3.40634 45.6007 3.27629 44.4203 3.27629 43.2499C3.2963 40.0988 3.38637 36.9478 3.44639 33.7867C3.44639 33.6667 3.44639 33.5366 3.44639 33.4166C3.49641 29.2952 3.53638 25.1838 3.58639 21.0624C3.58639 20.5022 3.62642 19.9419 3.65643 19.3817C3.67643 19.0816 3.56641 18.9016 3.29632 18.7615C1.32564 17.7312 0.415314 15.9806 0.215246 13.8699C-0.154881 9.96852 0.0251808 6.06723 0.215246 2.1659C0.235253 1.69574 0.335304 1.22558 0.545376 0.795432C0.805465 0.275254 1.33565 -0.0448946 1.86583 0.00512249C2.41602 0.0551396 2.68611 0.435294 2.85616 0.905455C3.19628 1.87579 3.2263 2.89614 3.30633 3.90648C3.43637 5.54704 3.46637 7.19764 3.72646 8.8182C3.73646 8.89822 3.75645 8.97824 3.77646 9.05827V9.06828ZM1.71576 1.30562C1.44567 1.68575 1.44568 2.03581 1.41567 2.37593C1.24561 3.91646 1.34568 5.45698 1.26565 6.99751C1.14561 9.3283 1.18562 11.6591 1.44571 13.9699C1.65578 15.8005 2.53606 17.2511 4.36669 17.9413C4.77683 18.1014 4.91685 18.3614 4.89684 18.7916C4.81681 20.4922 4.79682 22.1927 4.78682 23.8833C4.75681 27.1744 4.70679 30.4655 4.65677 33.7667C4.65677 33.8767 4.65677 33.9768 4.65677 34.0868C4.59675 37.2079 4.45674 40.319 4.50675 43.44C4.52676 44.3803 4.6168 45.3307 5.07696 46.191C5.29703 46.5911 5.62711 46.8112 6.10728 46.7911C6.59744 46.7611 6.92757 46.5111 7.11763 46.0709C7.18766 45.9109 7.2377 45.7408 7.26771 45.5708C7.39775 44.9205 7.46773 44.2503 7.46773 43.5901C7.46773 41.7195 7.48774 39.8387 7.40771 37.9681C7.28767 35.0771 7.2577 32.1862 7.13766 29.3052C7.08764 28.2248 7.07759 27.1344 7.02757 26.0541C6.92754 23.6232 6.83753 21.1924 6.7375 18.7615C6.71749 18.3314 6.90758 18.0914 7.32773 17.9513C8.32807 17.6112 9.06828 16.9509 9.59846 16.0306C10.2087 14.9803 10.3687 13.8098 10.3987 12.6394C10.4687 9.23829 10.5088 5.83718 10.2987 2.44602C10.2787 2.06589 10.2687 1.66565 9.99862 1.33553C9.85857 1.49559 9.84859 1.65575 9.82858 1.8158C9.48846 3.76647 9.52847 5.75706 9.3184 7.72774C9.22837 8.56802 9.15832 9.40838 8.7982 10.1786C8.60813 10.5788 8.29806 10.8788 7.8279 10.8688C7.35774 10.8588 7.05762 10.5688 6.87756 10.1486C6.74752 9.8385 6.65747 9.51843 6.61746 9.18832C6.4274 7.54776 6.44738 5.90714 6.40737 4.25658C6.38736 3.38628 6.34739 2.506 6.0773 1.65571C6.03728 1.53567 6.02725 1.33553 5.85719 1.33553C5.69714 1.33553 5.67716 1.52567 5.63715 1.65571C5.52711 2.00583 5.45706 2.36591 5.42705 2.73604C5.267 4.42662 5.28698 6.12729 5.21696 7.82787C5.18695 8.57812 5.13696 9.32835 4.87687 10.0486C4.70682 10.5088 4.41668 10.8588 3.8965 10.8688C3.40633 10.8688 3.09623 10.5687 2.90617 10.1386C2.7061 9.70845 2.60607 9.2483 2.53605 8.77814C2.28596 7.07756 2.26597 5.35697 2.11592 3.64638C2.0459 2.89613 2.0459 2.12592 1.7458 1.32564L1.71576 1.30562Z" fill="url(#paint0_linear_632_1424)"/>
<path d="M22.6524 41.079C22.6524 42.7595 22.7124 44.29 22.3323 45.7905C21.9022 47.4611 20.5416 48.3014 18.9011 47.9012C17.9308 47.6612 17.3406 46.991 17.0205 46.0807C16.5003 44.5802 16.4803 43.0196 16.5303 41.4591C16.5703 40.3087 16.6504 39.1482 16.6904 37.9978C16.8104 34.6867 16.9204 31.3856 17.0405 28.0745C17.0505 27.6744 17.0905 27.2742 17.1205 26.874C17.1405 26.5939 17.0305 26.4639 16.7404 26.4339C16.2502 26.3939 15.77 26.3138 15.2799 26.2438C14.2695 26.0937 13.9094 25.7937 13.6693 24.7934C13.3692 23.5329 13.4092 22.2524 13.4893 20.972C13.6193 18.7712 13.8394 16.5805 14.0795 14.3798C14.4396 11.0686 14.7897 7.75745 15.8601 4.58637C16.1902 3.62604 16.6003 2.69573 17.1805 1.84544C17.3506 1.59535 17.5407 1.36534 17.7507 1.16527C18.9611 0.0348872 20.2416 0.324938 20.8718 1.86546C21.1219 2.47567 21.2319 3.11591 21.272 3.75613C21.362 5.29665 21.422 6.83718 21.482 8.3777C21.632 12.4691 21.7621 16.5705 21.9322 20.6619C22.0422 23.4129 22.1522 26.1538 22.2523 28.9047C22.3623 31.9658 22.4824 35.0269 22.5724 38.0879C22.6024 39.1383 22.6324 40.1886 22.6524 41.079ZM21.492 41.3391C21.382 38.238 21.2719 35.1469 21.1519 32.0458C21.0518 29.2449 20.9418 26.4439 20.8418 23.6429C20.7017 19.9717 20.5517 16.2904 20.4116 12.6191C20.3216 10.3084 20.2816 7.99763 20.1615 5.68684C20.1115 4.76653 20.1616 3.82618 19.9415 2.91587C19.8314 2.46572 19.8114 1.87548 19.2812 1.75544C18.721 1.6254 18.4309 2.15563 18.1608 2.55576C17.5206 3.50609 17.1005 4.56644 16.7704 5.66681C15.9301 8.46777 15.61 11.3587 15.3099 14.2497C15.0698 16.4905 14.8797 18.7412 14.7097 20.992C14.6296 22.0924 14.6096 23.1928 14.7797 24.2932C14.8497 24.7033 14.9698 25.0034 15.4799 25.0434C16.1102 25.0935 16.7304 25.2034 17.3606 25.2435C18.2009 25.3035 18.3709 25.4836 18.3409 26.3239C18.2709 28.3546 18.2209 30.3853 18.1008 32.416C18.0508 33.3663 18.0508 34.3066 18.0008 35.2469C17.8808 37.8178 17.7307 40.3886 17.7307 42.9695C17.7307 43.8998 17.8207 44.8302 18.1608 45.7105C18.3609 46.2307 18.6911 46.6108 19.2613 46.7408C20.2216 46.9609 20.9718 46.4308 21.2119 45.3204C21.492 44.0099 21.462 42.6695 21.492 41.3391Z" fill="url(#paint1_linear_632_1424)"/>
<defs>
<linearGradient id="paint0_linear_632_1424" x1="0.00517396" y1="23.9933" x2="11.6392" y2="23.9933" gradientUnits="userSpaceOnUse">
<stop stop-color="#009994"/>
<stop offset="1" stop-color="#00DDA8"/>
</linearGradient>
<linearGradient id="paint1_linear_632_1424" x1="13.4492" y1="24.2431" x2="22.6524" y2="24.2431" gradientUnits="userSpaceOnUse">
<stop stop-color="#009994"/>
<stop offset="1" stop-color="#00DDA8"/>
</linearGradient>
</defs>
</svg>
