<?xml version="1.0" encoding="UTF-8"?>
<svg id="Layer_2" data-name="Layer 2" xmlns="http://www.w3.org/2000/svg" xmlns:xlink="http://www.w3.org/1999/xlink" viewBox="0 0 109.04 90.89">
  <defs>
    <style>
      .cls-1 {
        fill: url(#linear-gradient);
      }
    </style>
    <linearGradient id="linear-gradient" x1="0" y1="45.45" x2="109.04" y2="45.45" gradientUnits="userSpaceOnUse">
      <stop offset="0" stop-color="#000"/>
      <stop offset="1" stop-color="#00dda8"/>
    </linearGradient>
  </defs>
  <g id="Layer_1-2" data-name="Layer 1">
    <path class="cls-1" d="m106.08,4.89h-56.99l-1.94-3.4c-.52-.92-1.51-1.49-2.57-1.49H2.96C1.33,0,0,1.33,0,2.96v84.98c0,1.63,1.33,2.96,2.96,2.96h90.19c1.07,0,2.02-.55,2.56-1.47.54-.92.54-2.02.01-2.95l-1.06-1.86h11.43c1.63,0,2.96-1.33,2.96-2.96V7.84c0-1.63-1.33-2.96-2.96-2.96ZM34.36,87.89v-7.06s3.73-.02,3.73-.02v7.08s-3.73,0-3.73,0Zm3.68-48.96v9.62s-3.67.02-3.67.02v-9.62s3.67-.02,3.67-.02Zm-3.67-2.92v-7.94s3.66,0,3.66,0v7.91s-3.66.02-3.66.02Zm3.69,15.49v13.8s-3.69.02-3.69.02v-13.8s3.69-.02,3.69-.02Zm.02,16.75v9.62s-3.71.02-3.71.02v-9.62s3.71-.02,3.71-.02Zm5.91,19.64h-2.94v-7.09s2.94-.02,2.94-.02v7.11Zm0-10.06l-2.95.02v-9.62s2.95-.02,2.95-.02v9.62Zm0-12.56l-2.96.02v-13.81s2.96-.02,2.96-.02v13.81Zm0-16.75l-2.98.02v-9.62s2.98-.02,2.98-.02v9.62Zm0-12.56l-2.99.02v-7.89s2.99,0,2.99,0v7.87Zm49.17,51.99h-42.31s-3.92,0-3.92,0V28.08c0-1.63-1.33-2.96-2.96-2.96h-9.6c-1.63,0-2.96,1.33-2.96,2.96v59.81s-.01.05-.01.05h-3.7s-24.75,0-24.75,0V2.95s41.65,0,41.65,0l48.56,84.98s0,.01-.01.01Zm12.94-6.28h-13.12L50.78,7.83h55.32s0,73.83,0,73.83Z"/>
  </g>
</svg>