<svg width="110" height="91" viewBox="0 0 110 91" fill="none" xmlns="http://www.w3.org/2000/svg">
<path d="M106.09 4.88989H49.1L47.16 1.48999C46.64 0.56999 45.65 0 44.59 0H2.95996C1.32996 0 0 1.32996 0 2.95996V87.9399C0 89.5699 1.32996 90.8999 2.95996 90.8999H93.15C94.22 90.8999 95.17 90.3499 95.71 89.4299C96.25 88.5099 96.25 87.41 95.72 86.48L94.66 84.62H106.09C107.72 84.62 109.05 83.2899 109.05 81.6599V7.84998C109.05 6.21998 107.72 4.88989 106.09 4.88989ZM34.37 87.8999V80.84L38.1 80.8199V87.8999H34.37ZM38.04 38.9399V48.5599L34.37 48.58V38.96L38.04 38.9399ZM34.37 36.0199V28.08H38.03V35.99L34.37 36.0099V36.0199ZM38.06 51.5099V65.3099L34.37 65.33V51.5299L38.06 51.5099ZM38.08 68.2599V77.8799L34.37 77.8999V68.2799L38.08 68.2599ZM43.98 87.8999H41.04V80.8099L43.98 80.7899V87.8999ZM43.98 77.84L41.03 77.86V68.24L43.98 68.22V77.84ZM43.98 65.2799L41.02 65.2999V51.49L43.98 51.47V65.2799ZM43.98 48.5199L41 48.5399V38.9199L43.98 38.8999V48.5199ZM43.98 35.96L40.99 35.98V28.09H43.98V35.96ZM93.15 87.95H50.84H46.92V28.1C46.92 26.47 45.59 25.1399 43.96 25.1399H34.36C32.73 25.1399 31.4 26.47 31.4 28.1V87.9099L31.39 87.96H27.69H2.94V2.96997H44.59L93.15 87.95C93.15 87.95 93.15 87.96 93.14 87.96L93.15 87.95ZM106.09 81.6699H92.97L50.78 7.83997H106.1V81.6699H106.09Z" fill="url(#paint0_linear_1_194)"/>
<defs>
<linearGradient id="paint0_linear_1_194" x1="0.01" y1="45.45" x2="109.05" y2="45.45" gradientUnits="userSpaceOnUse">
<stop stop-color="white"/>
<stop offset="1" stop-color="#00DDA8"/>
</linearGradient>
</defs>
</svg>
