<svg width="31" height="52" viewBox="0 0 31 52" fill="none" xmlns="http://www.w3.org/2000/svg">
<path d="M25.22 29.66C24.02 28.49 22.73 27.41 21.39 26.4C21.14 26.21 21.09 26.08 21.37 25.9C21.49 25.82 21.6 25.72 21.71 25.63C24.03 23.8 26.21 21.83 28.01 19.48C29.73 17.22 30.96 14.78 30.91 11.83C30.88 10.32 30.89 8.80004 30.89 7.29004V0.25H0.910014V8.28003C0.910014 9.32003 0.900013 10.37 0.870013 11.41C0.780013 14.37 1.85001 16.8801 3.57001 19.1801C5.42001 21.6601 7.69001 23.72 10.11 25.62C10.73 26.11 10.72 26.11 10.12 26.58C7.77001 28.43 5.56001 30.42 3.74001 32.8C1.96001 35.1301 0.790013 37.6501 0.870013 40.6801C0.900013 41.8201 0.910012 42.97 0.900012 44.12V51.89H30.89V43.9C30.89 42.72 30.89 41.53 30.91 40.35C30.93 38.38 30.39 36.59 29.43 34.89C28.31 32.92 26.83 31.23 25.22 29.66ZM28.59 48.87C28.59 49.3433 28.3567 49.58 27.89 49.58H15.85C11.86 49.58 7.86001 49.57 3.87001 49.58C3.32001 49.58 3.17001 49.44 3.17001 48.89C3.20001 46.18 3.24001 43.47 3.17001 40.76C3.12001 38.72 3.73001 36.94 4.83001 35.28C6.64001 32.56 9.02001 30.39 11.57 28.38C12.1 27.97 12.65 27.57 13.19 27.16C14.02 26.53 14.03 25.69 13.19 25.08C11.2 23.62 9.29001 22.07 7.57001 20.3C6.04001 18.72 4.65001 17.03 3.78001 14.97C3.39001 14.06 3.18001 13.11 3.18001 12.11C3.18001 9.13999 3.18001 6.16005 3.18001 3.18005C3.17001 2.69005 3.30001 2.54004 3.80001 2.54004C11.87 2.55004 19.93 2.55004 27.99 2.54004C28.46 2.54004 28.6 2.68002 28.6 3.15002C28.58 6.21002 28.6 9.27998 28.58 12.35C28.58 14.03 27.88 15.5 26.98 16.88C25.2 19.6 22.84 21.76 20.31 23.76C19.81 24.16 19.29 24.5501 18.78 24.9301C17.67 25.7601 17.66 26.49 18.77 27.3C20.69 28.69 22.53 30.19 24.18 31.9C25.73 33.49 27.13 35.2 28.01 37.27C28.39 38.19 28.59 39.14 28.59 40.13C28.59 43.04 28.59 45.95 28.59 48.86V48.87Z" fill="url(#paint0_linear_237_16)"/>
<path d="M25.95 45.8197C25.89 46.5697 25.4 46.9597 24.54 46.9597H7.42001C6.20001 46.9597 5.84002 46.5697 5.80002 45.3697C5.75002 44.0597 6.24001 42.9297 6.93001 41.8697C8.47001 39.5097 10.51 37.6297 12.68 35.8697C13.47 35.2297 14.3 34.6397 15.11 34.0297C15.61 33.6497 16.13 33.6497 16.64 34.0097C19.28 35.9097 21.81 37.9497 23.86 40.4997C24.77 41.6497 25.62 42.8397 25.9 44.3297C26 44.8297 25.99 45.3297 25.95 45.8197Z" stroke="url(#paint1_linear_237_16)" stroke-width="2" stroke-miterlimit="10"/>
<path d="M23.34 17.4096C21.39 19.6096 19.13 21.4496 16.75 23.1696C16.24 23.5396 15.72 23.6596 15.18 23.2696C12.26 21.1696 9.51997 18.8796 7.30997 15.9996C5.95997 14.2396 5.61997 12.2796 5.81997 10.1496C5.88997 9.43959 6.38997 9.0496 7.20997 9.0396C8.74997 9.0296 10.28 9.0396 11.81 9.0396H24.38C25.54 9.0396 25.87 9.46955 25.99 10.6095C26.29 13.3595 25.06 15.4696 23.34 17.4096Z" stroke="url(#paint2_linear_237_16)" stroke-width="2" stroke-miterlimit="10"/>
<defs>
<linearGradient id="paint0_linear_237_16" x1="0.860013" y1="26.07" x2="30.91" y2="26.07" gradientUnits="userSpaceOnUse">
<stop stop-color="#009994"/>
<stop offset="1" stop-color="#00DDA8"/>
</linearGradient>
<linearGradient id="paint1_linear_237_16" x1="4.79002" y1="40.3497" x2="26.98" y2="40.3497" gradientUnits="userSpaceOnUse">
<stop stop-color="#009994"/>
<stop offset="1" stop-color="#00DDA8"/>
</linearGradient>
<linearGradient id="paint2_linear_237_16" x1="4.76997" y1="16.2696" x2="27.03" y2="16.2696" gradientUnits="userSpaceOnUse">
<stop stop-color="#009994"/>
<stop offset="1" stop-color="#00DDA8"/>
</linearGradient>
</defs>
</svg>
