<svg width="237" height="155" viewBox="0 0 237 155" fill="none" xmlns="http://www.w3.org/2000/svg">
<path d="M113.957 0.838501C94.0612 0.838501 77.8789 17.0312 77.8789 36.927V62.6354C77.8789 73.8437 68.7591 82.9687 57.5508 82.9687H2.9987L0.144531 101.526H58.9518C78.8477 101.526 95.0352 85.3437 95.0352 65.4479V39.6562C95.0352 28.4427 104.155 19.3229 115.363 19.3229H236.077V0.838501H113.957Z" fill="white"/>
<path d="M195.686 66.0833C195.415 63.302 196.296 60.6405 198.165 58.5833C200.004 56.5468 202.629 55.3853 205.358 55.3853H220.014V74.828H205.868C200.639 74.828 196.165 70.9843 195.686 66.0833ZM184.478 46.1145C179.056 52.0676 176.493 59.776 177.249 67.8228C178.598 82.1353 191.285 93.3489 206.134 93.3489H219.134C216.41 101.474 206.853 107.995 197.113 107.995H176.113L173.254 126.516H197.113C218.603 126.516 236.077 109.031 236.077 87.5468V36.8645H205.358C197.436 36.8645 189.827 40.2395 184.478 46.1145ZM154.947 36.8645H134.504L146.473 68.828C147.697 71.8853 147.421 75.401 145.728 78.2395C144.186 80.8385 141.645 82.526 138.759 82.8593C138.358 82.9062 137.947 82.9322 137.53 82.9322H106.103L103.243 101.448H137.53C142.952 101.448 148.243 99.9374 152.832 97.0833C162.978 90.7812 167.957 78.2968 165.171 65.828L154.947 36.8645ZM56.8737 50.5051H38.6966C37.7852 48.2864 37.0404 46.0312 37.0664 43.8541C37.0768 42.8333 37.2747 41.9687 37.6289 41.3697C38.306 40.2187 39.9414 39.3749 41.9987 39.1041C43.6706 38.8749 45.457 38.9583 47.3529 39.0364L48.8893 39.0833C49.2487 39.0833 49.6081 39.1041 49.9622 39.1301L54.3008 39.328L54.2852 27.2187L51.1237 26.9322C46.9102 26.5572 42.1445 26.1353 37.4674 27.1301C31.7643 28.3489 27.2331 31.5885 25.0456 35.9999C23.6029 38.9218 23.1289 42.4895 23.681 46.3333C23.8893 47.7708 24.2227 49.1614 24.6081 50.5051L18.9102 50.5103L16.7122 63.9426H56.8737V50.5051ZM163.952 126.516V126.292H152.572L141.858 137.99V115.073H132.217V154.323H141.858V148.156L145.842 144.286L153.129 154.323H164.514L151.957 138.286L163.952 126.516ZM43.7435 144.656L35.7227 115.078H22.8424L14.8789 144.656L10.3581 115.078H0.144531L7.40495 154.323H21.7695L29.2852 123.396L36.5352 154.323H51.2799L58.4779 115.078H48.2643L43.7435 144.656ZM68.9674 140.797C68.8216 139.417 69.2695 138.104 70.1914 137.088C71.1029 136.073 72.405 135.5 73.7643 135.5H81.0247V145.135H74.0091C71.4206 145.135 69.2018 143.24 68.9674 140.797ZM81.0247 115.073V126.312H73.7643C69.832 126.312 66.0508 127.984 63.4049 130.896C60.7122 133.844 59.4414 137.672 59.8112 141.661C60.4518 148.422 66.1862 153.776 73.0872 154.271V154.323H90.681V115.073H81.0247ZM109.52 145.141C106.926 145.141 104.712 143.24 104.473 140.797C104.342 139.417 104.78 138.104 105.702 137.088C106.613 136.073 107.915 135.5 109.275 135.5H116.535V145.141H109.52ZM116.535 115.078V126.312H109.275C105.342 126.312 101.561 127.984 98.9154 130.896C96.2227 133.849 94.9518 137.672 95.332 141.661C95.9935 148.766 102.29 154.323 109.65 154.323H126.191V115.078H116.535Z" fill="white"/>
</svg>
