<svg width="83" height="82" viewBox="0 0 83 82" fill="none" xmlns="http://www.w3.org/2000/svg">
<path d="M25.6002 0.240234H57.2502C70.9702 0.240234 82.1102 11.3802 82.1102 25.1002V56.7502C82.1102 70.4702 70.9702 81.6102 57.2502 81.6102H25.6002C11.8802 81.6102 0.740234 70.4702 0.740234 56.7502V25.1002C0.740234 11.3802 11.8802 0.240234 25.6002 0.240234Z" fill="url(#paint0_linear_691_1304)"/>
<path d="M65.2699 14.8604C64.8799 15.5604 64.2899 16.1104 63.7699 16.7104C58.0699 23.3404 52.3699 29.9704 46.6599 36.5904C46.3999 36.8904 46.4799 37.0704 46.6599 37.3304C51.7799 44.7704 56.8899 52.2104 62.0099 59.6604C63.5599 61.9204 65.1199 64.1803 66.6699 66.4503C66.7599 66.5803 66.9499 66.7204 66.8599 66.8904C66.7699 67.0604 66.5499 66.9804 66.3899 66.9804C61.6799 66.9804 56.9699 66.9803 52.2599 66.9903C51.8499 66.9903 51.6099 66.8403 51.3899 66.5203C46.9899 60.1003 42.5899 53.7003 38.1899 47.2803C37.9099 46.8603 37.7799 46.9003 37.4799 47.2603C31.9499 53.7003 26.4099 60.1304 20.8799 66.5704C20.6299 66.8704 20.3599 67.0003 19.9699 66.9903C18.7799 66.9703 17.5999 66.9904 16.4099 66.9804C16.2899 66.9804 16.1099 67.0503 16.0499 66.8803C15.9999 66.7603 16.1399 66.6703 16.2099 66.5903C19.5599 62.7003 22.9099 58.8104 26.2499 54.9104C29.3099 51.3504 32.3699 47.7904 35.4399 44.2404C35.7099 43.9304 35.7299 43.7103 35.4899 43.3703C29.4999 34.6804 23.5299 25.9704 17.5499 17.2704C16.9999 16.4704 16.4599 15.6704 15.9199 14.8704C21.0399 14.8704 26.1599 14.8704 31.2799 14.8704C31.3599 15.1404 31.5399 15.3404 31.6899 15.5604C35.7799 21.5204 39.8799 27.4803 43.9699 33.4403C44.2999 33.9203 44.2999 33.9204 44.6799 33.4804C47.7199 29.9504 50.7499 26.4204 53.7899 22.8904C56.0799 20.2204 58.3699 17.5404 60.6699 14.8704C62.1999 14.8704 63.7199 14.8704 65.2499 14.8704L65.2699 14.8604ZM57.2099 63.6504C58.1599 63.6504 59.1099 63.6504 60.0599 63.6504C60.2199 63.6504 60.4499 63.7304 60.5399 63.5904C60.6499 63.4004 60.4199 63.2603 60.3199 63.1203C57.8599 59.5903 55.3899 56.0704 52.9199 52.5404C45.0499 41.2804 37.1699 30.0104 29.3099 18.7504C29.0999 18.4504 28.8699 18.3304 28.5099 18.3304C26.6499 18.3404 24.7799 18.3304 22.9199 18.3404C22.7499 18.3404 22.4999 18.2404 22.4099 18.4404C22.3299 18.6204 22.5599 18.7504 22.6399 18.9204C22.6399 18.9304 22.6599 18.9504 22.6699 18.9604C27.1099 25.3104 31.5499 31.6504 35.9899 38.0004C41.8699 46.4204 47.7599 54.8304 53.6299 63.2504C53.8499 63.5704 54.0899 63.6803 54.4699 63.6703C55.3799 63.6503 56.2999 63.6703 57.2199 63.6703L57.2099 63.6504Z" fill="white"/>
<defs>
<linearGradient id="paint0_linear_691_1304" x1="0.730234" y1="40.9302" x2="82.1102" y2="40.9302" gradientUnits="userSpaceOnUse">
<stop stop-color="#009994"/>
<stop offset="1" stop-color="#00DDA8"/>
</linearGradient>
</defs>
</svg>
